<svg width="540" height="638" viewBox="0 0 540 638" fill="none" xmlns="http://www.w3.org/2000/svg">
<ellipse opacity="0.03" cx="250" cy="304" rx="250" ry="251" fill="url(#paint0_linear)"/>
<g filter="url(#filter0_d)">
<rect x="302" y="190" width="138" height="138" rx="24" fill="white"/>
</g>
<path d="M371 303C395.301 303 415 283.301 415 259C415 234.699 395.301 215 371 215C346.699 215 327 234.699 327 259C327 283.301 346.699 303 371 303Z" fill="#2E3148"/>
<path d="M371 284.532C385.1 284.532 396.53 273.102 396.53 259.001C396.53 244.901 385.1 233.47 371 233.47C356.899 233.47 345.469 244.901 345.469 259.001C345.469 273.102 356.899 284.532 371 284.532Z" fill="#1B1E36"/>
<path d="M371.09 220.612C366.34 220.612 362.489 237.838 362.489 259.089C362.489 280.34 366.34 297.567 371.09 297.567C375.84 297.567 379.691 280.34 379.691 259.089C379.691 237.838 375.84 220.612 371.09 220.612ZM371.684 295.395C371.141 296.119 370.598 295.576 370.598 295.576C368.41 293.042 367.317 288.333 367.317 288.333C363.491 276.021 364.401 249.584 364.401 249.584C366.199 228.597 369.47 223.639 370.583 222.538C370.697 222.426 370.846 222.357 371.006 222.344C371.165 222.331 371.324 222.375 371.454 222.468C373.069 223.612 374.423 228.398 374.423 228.398C378.423 243.246 378.061 257.188 378.061 257.188C378.423 269.32 376.057 282.9 376.057 282.9C374.235 293.22 371.684 295.395 371.684 295.395Z" fill="#6F7390"/>
<path d="M404.466 239.943C402.101 235.822 385.243 241.055 366.802 251.63C348.36 262.205 335.352 274.119 337.715 278.238C340.078 282.358 356.937 277.126 375.379 266.552C393.82 255.977 406.829 244.063 404.466 239.943ZM339.896 277.673C338.991 277.559 339.195 276.815 339.195 276.815C340.306 273.657 343.84 270.365 343.84 270.365C352.62 260.919 376.006 248.553 376.006 248.553C395.103 239.668 401.035 240.043 402.54 240.457C402.694 240.5 402.828 240.597 402.919 240.729C403.009 240.862 403.049 241.022 403.033 241.182C402.852 243.153 399.366 246.708 399.366 246.708C388.485 257.57 376.21 264.196 376.21 264.196C365.867 270.549 352.91 275.252 352.91 275.252C343.051 278.804 339.897 277.673 339.897 277.673H339.896Z" fill="#6F7390"/>
<path d="M404.382 278.373C406.765 274.263 393.789 262.294 375.412 251.64C357.036 240.985 340.18 235.688 337.799 239.805C335.418 243.922 348.392 255.884 366.779 266.538C385.167 277.193 402.001 282.491 404.382 278.373ZM339.378 241.393C339.026 240.559 339.769 240.358 339.769 240.358C343.059 239.736 347.68 241.152 347.68 241.152C360.252 244.015 382.669 258.057 382.669 258.057C399.928 270.134 402.575 275.454 402.972 276.964C403.012 277.119 402.997 277.283 402.928 277.428C402.859 277.572 402.741 277.688 402.595 277.754C400.796 278.578 395.975 277.35 395.975 277.35C381.119 273.366 369.237 266.068 369.237 266.068C358.561 260.31 348.005 251.45 348.005 251.45C339.983 244.696 339.381 241.402 339.381 241.402L339.378 241.393Z" fill="#6F7390"/>
<path d="M371 263.525C373.5 263.525 375.527 261.499 375.527 258.999C375.527 256.498 373.5 254.472 371 254.472C368.5 254.472 366.474 256.498 366.474 258.999C366.474 261.499 368.5 263.525 371 263.525Z" fill="#B7B9C8"/>
<path d="M389.559 244.334C391.009 244.334 392.185 243.118 392.185 241.618C392.185 240.118 391.009 238.902 389.559 238.902C388.109 238.902 386.934 240.118 386.934 241.618C386.934 243.118 388.109 244.334 389.559 244.334Z" fill="#B7B9C8"/>
<path d="M346.464 253.569C347.914 253.569 349.09 252.353 349.09 250.853C349.09 249.353 347.914 248.137 346.464 248.137C345.014 248.137 343.839 249.353 343.839 250.853C343.839 252.353 345.014 253.569 346.464 253.569Z" fill="#B7B9C8"/>
<path d="M365.658 286.887C367.108 286.887 368.284 285.671 368.284 284.171C368.284 282.671 367.108 281.455 365.658 281.455C364.208 281.455 363.032 282.671 363.032 284.171C363.032 285.671 364.208 286.887 365.658 286.887Z" fill="#B7B9C8"/>
<g filter="url(#filter1_d)">
<rect x="60" y="190" width="138" height="138" rx="24" fill="white"/>
</g>
<path fill-rule="evenodd" clip-rule="evenodd" d="M120.772 284.143H168.857V233.857H120.772V284.143ZM136.8 267.38H152.828V250.618H136.8V267.382V267.38ZM88.7139 267.38H104.743V250.618H88.7139V267.38Z" fill="#D73252"/>
<g filter="url(#filter2_d)">
<rect x="181" y="20" width="138" height="138" rx="24" fill="white"/>
</g>
<path fill-rule="evenodd" clip-rule="evenodd" d="M236.495 123.882C240.023 121.847 241.232 117.34 239.195 113.815C237.158 110.29 232.646 109.082 229.118 111.117C225.59 113.152 224.381 117.66 226.418 121.185C228.455 124.71 232.967 125.918 236.495 123.882ZM234.513 120.453C236.146 119.511 236.705 117.426 235.763 115.795C234.82 114.164 232.733 113.605 231.1 114.547C229.468 115.488 228.908 117.574 229.851 119.205C230.793 120.836 232.881 121.395 234.513 120.453Z" fill="#0B2D7C"/>
<path fill-rule="evenodd" clip-rule="evenodd" d="M268.685 68.1824C272.213 66.1472 273.422 61.6398 271.385 58.1148C269.348 54.5898 264.836 53.382 261.308 55.4172C257.78 57.4524 256.571 61.9598 258.608 65.4848C260.645 69.0098 265.156 70.2176 268.685 68.1824ZM266.703 64.753C268.335 63.8113 268.895 61.7258 267.952 60.0948C267.01 58.4639 264.922 57.905 263.29 58.8467C261.657 59.7883 261.098 61.8739 262.04 63.5048C262.983 65.1358 265.07 65.6946 266.703 64.753Z" fill="#0B2D7C"/>
<path fill-rule="evenodd" clip-rule="evenodd" d="M255.121 86.2006C260.427 95.4005 264.112 104.204 265.838 110.94C266.711 114.348 267.023 117.002 266.912 118.816C266.861 119.651 266.738 120.123 266.645 120.371C266.384 120.328 265.913 120.198 265.164 119.825C263.536 119.014 261.392 117.417 258.874 114.957C253.879 110.078 248.066 102.448 242.728 93.2111C237.39 83.9737 233.683 75.1291 231.951 68.3682C231.078 64.96 230.766 62.3061 230.877 60.492C230.928 59.6572 231.051 59.1851 231.144 58.9371C231.405 58.9806 231.876 59.1105 232.625 59.4836C234.253 60.2944 236.397 61.8915 238.915 64.3512C242.641 67.9907 246.822 73.1607 250.922 79.3869L253.131 75.5638C243.562 61.5029 233.557 52.8332 229.101 55.4031C223.8 58.4611 228.364 76.2748 239.295 95.1911C250.227 114.107 263.386 126.963 268.688 123.905C273.989 120.847 269.425 103.033 258.494 84.1172C258.131 83.4902 257.767 82.87 257.4 82.2568L255.121 86.2006ZM251.863 80.8376L254.087 76.9892L251.863 80.8376Z" fill="#0B2D7C"/>
<path fill-rule="evenodd" clip-rule="evenodd" d="M261.666 63.8727L261.376 64.3746L261.38 64.3819C262.13 65.6803 263.606 66.2991 265 66.0226L265.099 65.8526L261.666 63.8727ZM262.499 70.3505C261.23 69.9808 260.041 69.3303 259.034 68.4265L244.613 93.3816C245.381 94.6864 246.167 95.9714 246.966 97.2298L262.499 70.3505ZM246.098 98.7326V98.7327C245.294 97.4837 244.503 96.2079 243.729 94.9119L243.729 94.9117C244.503 96.2079 245.294 97.4837 246.098 98.7326ZM240.595 100.334C241.39 101.601 242.198 102.846 243.018 104.062L239.006 111.005C238.018 110.079 236.843 109.404 235.583 109.008L240.595 100.334Z" fill="#0B2D7C"/>
<g filter="url(#filter3_d)">
<rect x="96" y="360" width="138" height="138" rx="24" fill="white"/>
</g>
<g clip-path="url(#clip0)">
<path d="M176.98 470.579C176.76 470.359 176.54 470.139 176.32 470.139C171.26 469.039 166.2 467.279 161.8 464.639C152.56 459.139 146.4 450.999 146.18 441.539C146.18 438.019 146.84 434.499 148.38 431.199C149.26 428.999 154.54 421.519 155.2 420.199C158.72 414.699 157.62 415.139 152.56 408.319L145.52 397.979L140.9 390.939C138.26 392.699 135.62 394.899 133.2 397.099C128.36 401.939 124.62 408.099 122.42 414.699C120.22 421.299 119.56 428.339 120.44 435.159C121.32 441.979 123.96 448.579 127.92 454.299C131.88 460.019 137.16 464.859 143.1 468.159C127.48 456.719 120.22 439.339 126.16 421.959C127.7 417.339 130.12 412.939 133.2 408.979L138.26 416.459C138.48 416.899 138.7 417.339 138.7 417.999C138.7 418.439 138.48 419.099 138.26 419.539C135.84 422.619 133.86 425.919 132.54 429.659C125.94 448.799 143.76 468.599 162.46 471.899C165.98 472.559 172.58 473.219 176.1 472.339C176.32 472.339 176.54 472.119 176.54 472.119C176.76 471.899 176.76 471.899 176.76 471.679C176.76 471.459 176.76 471.239 176.76 471.019C177.2 471.019 177.2 470.799 176.98 470.579Z" fill="url(#paint1_linear)"/>
<path d="M153.22 387.42C153.44 387.64 153.66 387.86 153.88 387.86C158.94 388.96 164 390.72 168.4 393.36C177.64 398.86 183.8 407 184.02 416.46C184.02 419.98 183.36 423.5 181.82 426.8C180.94 429 175.66 436.48 175 437.8C171.48 443.3 172.58 442.86 177.64 449.68L184.68 460.02L189.52 467.06C192.16 465.3 194.8 463.1 197.22 460.9C202.06 456.06 205.8 449.9 208 443.3C210.2 436.7 210.86 429.66 209.98 422.84C209.1 416.02 206.46 409.42 202.5 403.7C198.54 397.98 193.26 393.14 187.32 389.84C202.94 401.28 210.2 418.66 204.04 436.04C202.5 440.66 200.08 445.06 197 449.02L191.94 441.54C191.72 441.1 191.5 440.66 191.5 440C191.5 439.56 191.72 438.9 191.94 438.46C194.36 435.38 196.34 432.08 197.66 428.34C204.26 409.2 186.44 389.4 167.74 386.1C164.22 385.44 157.62 384.78 154.1 385.66C153.88 385.66 153.66 385.88 153.66 385.88C153.22 385.88 153 386.1 153 386.32C153 386.54 153 386.76 153 386.98C153 386.98 153 387.2 153.22 387.42Z" fill="url(#paint2_linear)"/>
</g>
<g filter="url(#filter4_d)">
<rect x="266" y="360" width="138" height="138" rx="24" fill="white"/>
</g>
<g clip-path="url(#clip1)">
<path d="M325.603 430.717L326.82 422.496H328.648L327.418 430.717H325.603Z" fill="#92D4D8"/>
<path fill-rule="evenodd" clip-rule="evenodd" d="M328.738 430.717L329.966 422.496H331.543C332.302 422.496 332.83 422.509 333.129 422.537C333.429 422.565 333.682 422.612 333.886 422.679C334.337 422.814 334.683 423.044 334.925 423.366C335.173 423.687 335.298 424.072 335.298 424.518C335.298 424.916 335.199 425.264 335.002 425.557C334.811 425.851 334.53 426.079 334.161 426.239C334.641 426.436 335.006 426.711 335.261 427.068C335.515 427.421 335.643 427.826 335.643 428.283C335.643 428.625 335.57 428.942 335.426 429.235C335.285 429.53 335.076 429.79 334.802 430.016C334.5 430.267 334.133 430.448 333.698 430.559C333.266 430.664 332.669 430.717 331.899 430.717H328.738ZM330.712 429.417H332.14C332.697 429.417 333.123 429.31 333.422 429.094C333.722 428.875 333.875 428.566 333.875 428.165C333.875 427.728 333.728 427.417 333.434 427.238C333.143 427.054 332.625 426.962 331.877 426.962H331.083L330.712 429.417ZM331.278 425.723H332.217C332.683 425.723 333.03 425.64 333.259 425.475C333.485 425.306 333.598 425.053 333.598 424.711C333.598 424.39 333.489 424.149 333.269 423.989C333.053 423.828 332.73 423.749 332.3 423.749H331.566L331.278 425.723Z" fill="#92D4D8"/>
<path d="M342.741 430.259C342.337 430.458 341.919 430.609 341.483 430.711C341.053 430.813 340.614 430.864 340.168 430.864C339.023 430.864 338.09 430.509 337.37 429.794C336.654 429.078 336.294 428.154 336.294 427.021C336.294 426.359 336.413 425.75 336.654 425.195C336.893 424.638 337.249 424.141 337.723 423.7C338.224 423.24 338.796 422.901 339.439 422.685C340.085 422.466 340.849 422.357 341.731 422.357C342.107 422.357 342.474 422.381 342.836 422.432C343.194 422.48 343.545 422.553 343.886 422.655L343.658 424.16C343.305 424.074 342.974 424.011 342.664 423.971C342.36 423.929 342.07 423.907 341.794 423.907C340.663 423.907 339.766 424.192 339.104 424.759C338.442 425.323 338.112 426.085 338.112 427.044C338.112 427.746 338.321 428.293 338.74 428.684C339.158 429.076 339.741 429.272 340.491 429.272C340.93 429.272 341.369 429.185 341.814 429.013C342.258 428.837 342.674 428.586 343.059 428.261L342.741 430.259Z" fill="#92D4D8"/>
<path d="M326.705 405.133C326.705 403.245 328.235 401.713 330.123 401.713C332.01 401.713 333.542 403.245 333.542 405.133C333.542 407.02 332.01 408.55 330.123 408.55C328.235 408.55 326.705 407.02 326.705 405.133Z" fill="#A5BC3B"/>
<path d="M353.734 418.902C353.734 417.015 355.266 415.485 357.152 415.485C359.04 415.485 360.571 417.015 360.571 418.902C360.571 420.79 359.04 422.322 357.152 422.322C355.266 422.322 353.734 420.79 353.734 418.902Z" fill="#A5BC3B"/>
<path d="M314.071 423.588C314.4 425.448 313.156 427.22 311.298 427.548C309.439 427.876 307.667 426.635 307.338 424.775C307.012 422.915 308.253 421.143 310.111 420.815C311.971 420.487 313.743 421.728 314.071 423.588Z" fill="#A5BC3B"/>
<path d="M292 433.826C292 433.826 331.981 437.752 321.407 420.245C314.094 407.833 301.508 399.621 301.508 399.621L302.245 402.78C302.245 402.78 316.649 416.141 317.722 423.257C317.722 423.257 321.718 432.421 298.795 432.991L292 433.826Z" fill="#A5BC3B"/>
<path d="M323.843 384.999C323.843 384.999 313.032 423.689 332.111 416.317C345.604 411.27 355.877 400.301 355.877 400.301L352.637 400.48C352.637 400.48 336.979 412.344 329.784 412.165C329.784 412.165 320.065 414.51 323.485 391.836L323.843 384.999Z" fill="#A5BC3B"/>
<path d="M377.284 412.623C377.284 412.623 338.593 401.812 345.967 420.891C351.014 434.383 361.983 444.655 361.983 444.655L361.804 441.417C361.804 441.417 349.939 425.757 350.118 418.564C350.118 418.564 347.774 408.847 370.447 412.265L377.284 412.623Z" fill="#A5BC3B"/>
<path d="M292.818 438.005L293.24 435.162H293.872L293.447 438.005H292.818Z" fill="#92D4D8"/>
<path d="M296.905 435.214L296.821 435.751C296.687 435.712 296.559 435.684 296.434 435.667C296.313 435.649 296.199 435.639 296.09 435.639C295.678 435.639 295.342 435.741 295.086 435.946C294.833 436.148 294.703 436.413 294.703 436.74C294.703 436.991 294.782 437.182 294.936 437.314C295.091 437.448 295.314 437.514 295.602 437.514C295.648 437.514 295.697 437.512 295.75 437.509C295.802 437.504 295.867 437.497 295.948 437.486L296.024 436.966H295.495L295.562 436.504H296.707L296.485 437.973C296.361 438.001 296.238 438.02 296.118 438.034C296.001 438.05 295.883 438.057 295.769 438.057C295.217 438.057 294.794 437.948 294.504 437.732C294.211 437.514 294.065 437.2 294.065 436.787C294.065 436.545 294.12 436.317 294.229 436.102C294.338 435.888 294.492 435.702 294.696 435.544C294.877 435.402 295.088 435.294 295.328 435.224C295.57 435.154 295.844 435.119 296.148 435.119C296.273 435.119 296.398 435.128 296.522 435.143C296.649 435.157 296.775 435.182 296.905 435.214Z" fill="#92D4D8"/>
<path fill-rule="evenodd" clip-rule="evenodd" d="M297.044 438.005L297.467 435.162H298.12C298.354 435.162 298.537 435.172 298.665 435.19C298.793 435.209 298.898 435.241 298.977 435.285C299.113 435.355 299.216 435.453 299.292 435.58C299.369 435.704 299.406 435.843 299.406 435.996C299.406 436.193 299.352 436.358 299.244 436.491C299.136 436.625 298.984 436.714 298.79 436.756C298.87 436.8 298.962 436.914 299.067 437.095C299.171 437.276 299.315 437.58 299.497 438.005H298.839C298.788 437.9 298.721 437.759 298.637 437.585C298.512 437.327 298.431 437.167 298.391 437.106C298.333 437.018 298.268 436.953 298.198 436.916C298.127 436.878 298.038 436.856 297.933 436.856C297.906 436.856 297.885 436.858 297.869 436.858C297.855 436.858 297.841 436.86 297.829 436.862L297.659 438.005H297.044ZM297.901 436.398L297.913 436.4C298.015 436.405 298.087 436.409 298.133 436.409C298.358 436.409 298.521 436.375 298.624 436.312C298.728 436.249 298.779 436.149 298.779 436.012C298.779 435.882 298.732 435.785 298.64 435.724C298.549 435.661 298.407 435.631 298.215 435.631C298.163 435.631 298.122 435.631 298.094 435.632C298.064 435.632 298.038 435.636 298.012 435.638L297.901 436.398Z" fill="#92D4D8"/>
<path d="M299.62 438.005L300.045 435.162H301.812L301.736 435.666H300.581L300.484 436.317H301.508L301.434 436.799H300.414L300.303 437.54H301.784L301.713 438.005H299.62Z" fill="#92D4D8"/>
<path d="M301.475 438.934L301.354 438.47C301.366 438.47 301.382 438.47 301.404 438.472C301.424 438.474 301.44 438.474 301.448 438.474C301.566 438.474 301.661 438.463 301.733 438.439C301.803 438.414 301.856 438.376 301.889 438.321C301.926 438.268 301.956 438.195 301.98 438.102C302.005 438.009 302.033 437.852 302.065 437.631L302.428 435.162H303.055L302.678 437.71L302.676 437.715C302.593 438.284 302.479 438.632 302.332 438.758C302.263 438.818 302.174 438.864 302.059 438.895C301.947 438.927 301.817 438.943 301.67 438.943C301.633 438.943 301.575 438.939 301.494 438.934C301.485 438.934 301.48 438.934 301.475 438.934Z" fill="#92D4D8"/>
<path fill-rule="evenodd" clip-rule="evenodd" d="M302.914 438.005L304.27 435.162H304.965L305.445 438.005H304.846L304.749 437.385H303.862L303.592 438.005H302.914ZM304.043 436.969H304.686L304.524 435.884L304.043 436.969Z" fill="#92D4D8"/>
<path fill-rule="evenodd" clip-rule="evenodd" d="M306.748 438.005L307.171 435.162H307.717C307.979 435.162 308.164 435.167 308.265 435.178C308.369 435.186 308.457 435.202 308.527 435.225C308.683 435.272 308.803 435.351 308.887 435.464C308.973 435.575 309.015 435.706 309.015 435.863C309.015 435.999 308.982 436.119 308.913 436.221C308.847 436.323 308.75 436.402 308.622 436.458C308.789 436.525 308.915 436.619 309.003 436.744C309.091 436.865 309.135 437.006 309.135 437.164C309.135 437.281 309.11 437.39 309.059 437.494C309.012 437.594 308.94 437.685 308.845 437.763C308.74 437.85 308.613 437.912 308.462 437.951C308.313 437.987 308.107 438.005 307.84 438.005H306.748ZM307.429 437.555H307.925C308.116 437.555 308.264 437.519 308.367 437.445C308.471 437.369 308.524 437.26 308.524 437.123C308.524 436.972 308.473 436.865 308.371 436.802C308.271 436.739 308.092 436.707 307.833 436.707H307.558L307.429 437.555ZM307.626 436.277H307.951C308.113 436.277 308.232 436.249 308.311 436.193C308.388 436.135 308.427 436.047 308.427 435.929C308.427 435.817 308.39 435.734 308.315 435.678C308.239 435.624 308.128 435.596 307.979 435.596H307.724L307.626 436.277Z" fill="#92D4D8"/>
<path fill-rule="evenodd" clip-rule="evenodd" d="M309.126 438.005L310.48 435.162H311.175L311.655 438.005H311.056L310.959 437.385H310.073L309.802 438.005H309.126ZM310.253 436.969H310.896L310.735 435.884L310.253 436.969Z" fill="#92D4D8"/>
<path d="M312.217 438.005L312.57 435.647H311.655L311.72 435.162H314.163L314.096 435.647H313.195L312.841 438.005H312.217Z" fill="#92D4D8"/>
<path d="M314.064 438.005L314.484 435.162H315.116L314.691 438.005H314.064Z" fill="#92D4D8"/>
<path d="M315.311 437.265C315.48 437.363 315.627 437.435 315.754 437.483C315.882 437.527 315.999 437.549 316.108 437.549C316.233 437.549 316.335 437.52 316.412 437.46C316.491 437.398 316.53 437.321 316.53 437.228C316.53 437.105 316.396 436.959 316.126 436.791C316.068 436.752 316.022 436.724 315.989 436.703C315.813 436.591 315.68 436.473 315.594 436.352C315.508 436.232 315.466 436.106 315.466 435.972C315.466 435.726 315.56 435.525 315.754 435.363C315.947 435.2 316.191 435.119 316.486 435.119C316.614 435.119 316.744 435.136 316.874 435.17C317.004 435.201 317.136 435.252 317.273 435.323L317.176 435.834C317.046 435.762 316.925 435.709 316.813 435.674C316.702 435.639 316.598 435.621 316.502 435.621C316.381 435.621 316.28 435.647 316.203 435.702C316.126 435.756 316.089 435.827 316.089 435.909C316.089 436.011 316.196 436.13 316.41 436.267C316.507 436.327 316.581 436.378 316.635 436.417C316.83 436.555 316.962 436.678 317.032 436.789C317.102 436.9 317.137 437.024 317.137 437.165C317.137 437.428 317.048 437.642 316.867 437.809C316.688 437.974 316.456 438.057 316.168 438.057C316.005 438.057 315.845 438.034 315.689 437.985C315.534 437.937 315.378 437.864 315.22 437.764L315.311 437.265Z" fill="#92D4D8"/>
<path d="M318.142 438.005L318.495 435.647H317.578L317.647 435.162H320.088L320.021 435.647H319.118L318.765 438.005H318.142Z" fill="#92D4D8"/>
<path fill-rule="evenodd" clip-rule="evenodd" d="M319.391 438.005L320.746 435.162H321.44L321.919 438.005H321.321L321.226 437.385H320.337L320.067 438.005H319.391ZM320.518 436.969H321.163L320.999 435.884L320.518 436.969Z" fill="#92D4D8"/>
<path fill-rule="evenodd" clip-rule="evenodd" d="M323.231 438.005L323.655 435.162C323.695 435.162 323.751 435.162 323.827 435.16C323.902 435.158 323.958 435.158 323.992 435.158C324.336 435.158 324.61 435.174 324.812 435.206C325.014 435.236 325.183 435.287 325.316 435.353C325.555 435.48 325.739 435.652 325.867 435.871C325.996 436.089 326.061 436.34 326.061 436.623C326.061 436.809 326.033 436.981 325.975 437.141C325.915 437.303 325.831 437.443 325.72 437.57C325.578 437.722 325.406 437.835 325.204 437.903C325.002 437.972 324.736 438.005 324.408 438.005H323.231ZM323.927 437.526H324.441C324.744 437.526 324.982 437.443 325.158 437.28C325.332 437.115 325.42 436.89 325.42 436.607C325.42 436.305 325.323 436.068 325.13 435.898C324.94 435.727 324.673 435.641 324.334 435.641C324.299 435.641 324.273 435.643 324.255 435.643C324.238 435.643 324.222 435.645 324.208 435.647L323.927 437.526Z" fill="#92D4D8"/>
<path d="M326.273 438.005L326.697 435.162H328.465L328.39 435.666H327.234L327.139 436.317H328.16L328.088 436.799H327.067L326.957 437.54H328.437L328.367 438.005H326.273Z" fill="#92D4D8"/>
<path d="M332.068 437.848C331.928 437.916 331.782 437.969 331.633 438.004C331.483 438.039 331.332 438.057 331.178 438.057C330.783 438.057 330.46 437.934 330.21 437.686C329.963 437.439 329.838 437.119 329.838 436.727C329.838 436.499 329.88 436.288 329.963 436.095C330.045 435.904 330.168 435.732 330.333 435.581C330.505 435.421 330.704 435.303 330.925 435.229C331.15 435.152 331.413 435.115 331.719 435.115C331.849 435.115 331.975 435.124 332.1 435.14C332.225 435.157 332.346 435.184 332.463 435.217L332.384 435.739C332.263 435.709 332.147 435.686 332.042 435.674C331.935 435.658 331.835 435.651 331.742 435.651C331.348 435.651 331.039 435.749 330.811 435.946C330.581 436.141 330.467 436.404 330.467 436.736C330.467 436.979 330.539 437.168 330.684 437.303C330.828 437.439 331.03 437.505 331.29 437.505C331.441 437.505 331.594 437.477 331.747 437.416C331.901 437.356 332.045 437.27 332.177 437.156L332.068 437.848Z" fill="#92D4D8"/>
<path fill-rule="evenodd" clip-rule="evenodd" d="M332.68 436.766C332.68 436.543 332.713 436.339 332.783 436.153C332.852 435.967 332.957 435.798 333.096 435.647C333.252 435.477 333.435 435.345 333.644 435.254C333.853 435.164 334.074 435.119 334.308 435.119C334.474 435.119 334.629 435.14 334.766 435.182C334.906 435.222 335.031 435.286 335.14 435.368C335.296 435.484 335.416 435.632 335.5 435.811C335.584 435.992 335.627 436.19 335.627 436.404C335.627 436.624 335.591 436.829 335.523 437.021C335.453 437.21 335.353 437.375 335.219 437.52C335.059 437.695 334.875 437.829 334.669 437.918C334.462 438.008 334.239 438.053 333.997 438.053C333.826 438.053 333.674 438.032 333.537 437.992C333.4 437.95 333.277 437.888 333.168 437.808C333.015 437.692 332.896 437.542 332.81 437.358C332.724 437.174 332.68 436.977 332.68 436.766ZM334.278 435.647C334.004 435.647 333.776 435.748 333.595 435.949C333.412 436.15 333.321 436.403 333.321 436.708C333.321 436.959 333.384 437.158 333.509 437.303C333.635 437.447 333.805 437.52 334.025 437.52C334.304 437.52 334.532 437.416 334.713 437.214C334.894 437.008 334.986 436.749 334.986 436.429C334.986 436.202 334.919 436.014 334.784 435.869C334.652 435.721 334.483 435.647 334.278 435.647Z" fill="#92D4D8"/>
<path d="M335.823 438.005L336.248 435.162H336.868L338.003 437.06L338.257 435.162H338.881L338.461 438.005H337.904L336.722 436.033L336.443 438.005H335.823Z" fill="#92D4D8"/>
<path d="M339.697 438.005L340.051 435.647H339.135L339.202 435.162H341.644L341.578 435.647H340.675L340.322 438.005H339.697Z" fill="#92D4D8"/>
<path fill-rule="evenodd" clip-rule="evenodd" d="M340.946 438.005L342.302 435.162H342.997L343.475 438.005H342.876L342.781 437.385H341.895L341.624 438.005H340.946ZM342.076 436.969H342.72L342.557 435.884L342.076 436.969Z" fill="#92D4D8"/>
<path d="M346.552 435.214L346.467 435.751C346.334 435.712 346.204 435.684 346.083 435.667C345.96 435.649 345.844 435.639 345.737 435.639C345.322 435.639 344.989 435.741 344.732 435.946C344.478 436.148 344.349 436.413 344.349 436.74C344.349 436.991 344.427 437.182 344.581 437.314C344.738 437.448 344.961 437.514 345.249 437.514C345.292 437.514 345.342 437.512 345.394 437.509C345.447 437.504 345.514 437.497 345.595 437.486L345.668 436.966H345.14L345.208 436.504H346.351L346.13 437.973C346.005 438.001 345.884 438.02 345.765 438.034C345.647 438.05 345.531 438.057 345.415 438.057C344.862 438.057 344.441 437.948 344.149 437.732C343.858 437.514 343.712 437.2 343.712 436.787C343.712 436.545 343.766 436.317 343.875 436.102C343.982 435.888 344.139 435.702 344.342 435.544C344.523 435.402 344.732 435.294 344.975 435.224C345.217 435.154 345.489 435.119 345.793 435.119C345.919 435.119 346.044 435.128 346.169 435.143C346.295 435.157 346.422 435.182 346.552 435.214Z" fill="#92D4D8"/>
<path d="M346.685 438.005L347.11 435.162H348.876L348.802 435.666H347.645L347.55 436.317H348.572L348.499 436.799H347.478L347.368 437.54H348.848L348.776 438.005H346.685Z" fill="#92D4D8"/>
<path d="M348.91 438.005L349.864 435.162H350.529L350.94 436.997L351.927 435.162H352.563L352.684 438.005H352.094L352.027 436.04L350.982 438.005H350.654L350.189 435.991L349.521 438.005H348.91Z" fill="#92D4D8"/>
<path d="M357.114 461.169C357.114 461.169 337.4 426.167 329.123 444.87C323.15 457.98 323.644 473 323.644 473L325.807 470.584C325.807 470.584 328.491 451.122 333.705 446.161C333.705 446.161 338.917 437.633 352.534 456.083L357.114 461.169Z" fill="#A5BC3B"/>
<path d="M335.976 449.015C337.312 447.678 339.476 447.678 340.81 449.015C342.145 450.35 342.145 452.513 340.81 453.848C339.476 455.184 337.31 455.183 335.976 453.848C334.641 452.513 334.641 450.35 335.976 449.015Z" fill="#A5BC3B"/>
</g>
<defs>
<filter id="filter0_d" x="242" y="170" width="298" height="298" filterUnits="userSpaceOnUse" color-interpolation-filters="sRGB">
<feFlood flood-opacity="0" result="BackgroundImageFix"/>
<feColorMatrix in="SourceAlpha" type="matrix" values="0 0 0 0 0 0 0 0 0 0 0 0 0 0 0 0 0 0 127 0" result="hardAlpha"/>
<feOffset dx="20" dy="60"/>
<feGaussianBlur stdDeviation="40"/>
<feComposite in2="hardAlpha" operator="out"/>
<feColorMatrix type="matrix" values="0 0 0 0 0.45098 0 0 0 0 0.537255 0 0 0 0 0.584314 0 0 0 0.16 0"/>
<feBlend mode="normal" in2="BackgroundImageFix" result="effect1_dropShadow"/>
<feBlend mode="normal" in="SourceGraphic" in2="effect1_dropShadow" result="shape"/>
</filter>
<filter id="filter1_d" x="0" y="170" width="298" height="298" filterUnits="userSpaceOnUse" color-interpolation-filters="sRGB">
<feFlood flood-opacity="0" result="BackgroundImageFix"/>
<feColorMatrix in="SourceAlpha" type="matrix" values="0 0 0 0 0 0 0 0 0 0 0 0 0 0 0 0 0 0 127 0" result="hardAlpha"/>
<feOffset dx="20" dy="60"/>
<feGaussianBlur stdDeviation="40"/>
<feComposite in2="hardAlpha" operator="out"/>
<feColorMatrix type="matrix" values="0 0 0 0 0.45098 0 0 0 0 0.537255 0 0 0 0 0.584314 0 0 0 0.16 0"/>
<feBlend mode="normal" in2="BackgroundImageFix" result="effect1_dropShadow"/>
<feBlend mode="normal" in="SourceGraphic" in2="effect1_dropShadow" result="shape"/>
</filter>
<filter id="filter2_d" x="121" y="0" width="298" height="298" filterUnits="userSpaceOnUse" color-interpolation-filters="sRGB">
<feFlood flood-opacity="0" result="BackgroundImageFix"/>
<feColorMatrix in="SourceAlpha" type="matrix" values="0 0 0 0 0 0 0 0 0 0 0 0 0 0 0 0 0 0 127 0" result="hardAlpha"/>
<feOffset dx="20" dy="60"/>
<feGaussianBlur stdDeviation="40"/>
<feComposite in2="hardAlpha" operator="out"/>
<feColorMatrix type="matrix" values="0 0 0 0 0.45098 0 0 0 0 0.537255 0 0 0 0 0.584314 0 0 0 0.16 0"/>
<feBlend mode="normal" in2="BackgroundImageFix" result="effect1_dropShadow"/>
<feBlend mode="normal" in="SourceGraphic" in2="effect1_dropShadow" result="shape"/>
</filter>
<filter id="filter3_d" x="36" y="340" width="298" height="298" filterUnits="userSpaceOnUse" color-interpolation-filters="sRGB">
<feFlood flood-opacity="0" result="BackgroundImageFix"/>
<feColorMatrix in="SourceAlpha" type="matrix" values="0 0 0 0 0 0 0 0 0 0 0 0 0 0 0 0 0 0 127 0" result="hardAlpha"/>
<feOffset dx="20" dy="60"/>
<feGaussianBlur stdDeviation="40"/>
<feComposite in2="hardAlpha" operator="out"/>
<feColorMatrix type="matrix" values="0 0 0 0 0.45098 0 0 0 0 0.537255 0 0 0 0 0.584314 0 0 0 0.16 0"/>
<feBlend mode="normal" in2="BackgroundImageFix" result="effect1_dropShadow"/>
<feBlend mode="normal" in="SourceGraphic" in2="effect1_dropShadow" result="shape"/>
</filter>
<filter id="filter4_d" x="206" y="340" width="298" height="298" filterUnits="userSpaceOnUse" color-interpolation-filters="sRGB">
<feFlood flood-opacity="0" result="BackgroundImageFix"/>
<feColorMatrix in="SourceAlpha" type="matrix" values="0 0 0 0 0 0 0 0 0 0 0 0 0 0 0 0 0 0 127 0" result="hardAlpha"/>
<feOffset dx="20" dy="60"/>
<feGaussianBlur stdDeviation="40"/>
<feComposite in2="hardAlpha" operator="out"/>
<feColorMatrix type="matrix" values="0 0 0 0 0.45098 0 0 0 0 0.537255 0 0 0 0 0.584314 0 0 0 0.16 0"/>
<feBlend mode="normal" in2="BackgroundImageFix" result="effect1_dropShadow"/>
<feBlend mode="normal" in="SourceGraphic" in2="effect1_dropShadow" result="shape"/>
</filter>
<linearGradient id="paint0_linear" x1="250" y1="53" x2="250" y2="555" gradientUnits="userSpaceOnUse">
<stop stop-color="#0B2D7C"/>
<stop offset="1" stop-color="#0B2D7C" stop-opacity="0"/>
</linearGradient>
<linearGradient id="paint1_linear" x1="136.863" y1="464.705" x2="169.817" y2="407.623" gradientUnits="userSpaceOnUse">
<stop stop-color="#174E5B"/>
<stop offset="0.07" stop-color="#195A6C"/>
<stop offset="0.21" stop-color="#1E779A"/>
<stop offset="0.4" stop-color="#27A7E3"/>
<stop offset="0.47" stop-color="#2ABAFF"/>
<stop offset="0.7" stop-color="#1DDAF0"/>
<stop offset="1" stop-color="#0EFFE0"/>
</linearGradient>
<linearGradient id="paint2_linear" x1="193.343" y1="393.297" x2="160.387" y2="450.374" gradientUnits="userSpaceOnUse">
<stop stop-color="#174E5B"/>
<stop offset="0.07" stop-color="#195A6C"/>
<stop offset="0.21" stop-color="#1E779A"/>
<stop offset="0.4" stop-color="#27A7E3"/>
<stop offset="0.47" stop-color="#2ABAFF"/>
<stop offset="0.7" stop-color="#1DDAF0"/>
<stop offset="1" stop-color="#0EFFE0"/>
</linearGradient>
<clipPath id="clip0">
<rect width="90.2" height="88" fill="white" transform="translate(120 385)"/>
</clipPath>
<clipPath id="clip1">
<rect width="85.2846" height="88" fill="white" transform="translate(292 385)"/>
</clipPath>
</defs>
</svg>
