<svg width="56" height="56" viewBox="0 0 56 56" fill="none" xmlns="http://www.w3.org/2000/svg">
<path d="M9.33398 16.332C13.2 16.332 16.334 13.198 16.334 9.33203C16.334 5.46604 13.2 2.33203 9.33398 2.33203C5.46799 2.33203 2.33398 5.46604 2.33398 9.33203C2.33398 13.198 5.46799 16.332 9.33398 16.332Z" fill="#A37AEB"/>
<path d="M38.4993 44.3346C41.721 44.3346 44.3327 41.7229 44.3327 38.5013C44.3327 35.2796 41.721 32.668 38.4993 32.668C35.2777 32.668 32.666 35.2796 32.666 38.5013C32.666 41.7229 35.2777 44.3346 38.4993 44.3346Z" fill="#A37AEB"/>
<path d="M28.0006 32.6654C30.578 32.6654 32.6673 30.576 32.6673 27.9987C32.6673 25.4214 30.578 23.332 28.0006 23.332C25.4233 23.332 23.334 25.4214 23.334 27.9987C23.334 30.576 25.4233 32.6654 28.0006 32.6654Z" fill="#A37AEB"/>
<path d="M27.9994 11.668C18.9927 11.668 11.666 18.9946 11.666 28.0013C11.666 36.7606 18.5097 43.924 27.2434 44.309C27.2784 44.309 27.3134 44.3113 27.3484 44.3113C28.5897 44.3113 29.6234 43.3336 29.677 42.0806C29.733 40.7926 28.7367 39.703 27.4487 39.647C21.2164 39.374 16.3327 34.257 16.3327 28.0013C16.3327 21.5683 21.5664 16.3346 27.9994 16.3346C34.255 16.3346 39.372 21.2183 39.645 27.4506C39.701 28.7386 40.7884 29.7023 42.0787 29.679C43.3667 29.623 44.363 28.5333 44.307 27.2453C43.922 18.5116 36.7587 11.668 27.9994 11.668Z" fill="#0B2D7C"/>
<path d="M28 0C25.3097 0 22.6333 0.385 20.041 1.14567C18.8043 1.50733 18.0973 2.80467 18.459 4.04133C18.8183 5.278 20.118 5.98967 21.3547 5.62333C23.52 4.98867 25.7553 4.66667 28 4.66667C40.866 4.66667 51.3333 15.134 51.3333 28C51.3333 40.866 40.866 51.3333 28 51.3333C15.134 51.3333 4.66667 40.866 4.66667 28C4.66667 25.7553 4.98867 23.52 5.62333 21.3523C5.985 20.1157 5.278 18.8207 4.04133 18.4567C2.80933 18.0903 1.50733 18.8043 1.14567 20.041C0.385 22.6333 0 25.3097 0 28C0 43.4397 12.5603 56 28 56C43.4397 56 56 43.4397 56 28C56 12.5603 43.4397 0 28 0Z" fill="#0B2D7C"/>
</svg>
