<svg width="56" height="56" viewBox="0 0 56 56" fill="none" xmlns="http://www.w3.org/2000/svg">
<path d="M28 29.6406C28.9061 29.6406 29.6406 28.9061 29.6406 28C29.6406 27.0939 28.9061 26.3594 28 26.3594C27.0939 26.3594 26.3594 27.0939 26.3594 28C26.3594 28.9061 27.0939 29.6406 28 29.6406Z" fill="#0B2D7C"/>
<path d="M39.4433 19.6844L34.791 18.6496L32.3735 14.5388L28.0001 16.4417L23.6266 14.5388L21.2092 18.6496L16.557 19.6844L17.0121 24.4289L13.8589 28.0003L17.0122 31.5717L16.5571 36.3162L21.2093 37.351L23.627 41.4619L28.0001 39.559L32.3735 41.4619L34.791 37.351L39.4433 36.3162L38.988 31.5717L42.1414 28.0003L38.9879 24.4289L39.4433 19.6844ZM28.0001 32.9221C25.2862 32.9221 23.0782 30.7141 23.0782 28.0003C23.0782 25.2865 25.2862 23.0786 28.0001 23.0786C30.714 23.0786 32.922 25.2865 32.922 28.0003C32.922 30.7141 30.714 32.9221 28.0001 32.9221Z" fill="#A37AEB"/>
<path d="M51.0781 23.0782C50.3255 23.0782 49.6118 23.2481 48.9733 23.5514C47.2238 15.2941 40.706 8.77658 32.4483 7.02723C32.7518 6.38859 32.9218 5.6747 32.9218 4.92188C32.9218 2.20795 30.7138 0 28 0C25.2862 0 23.0782 2.20795 23.0782 4.92188C23.0782 5.6747 23.2482 6.38859 23.5517 7.02723C15.294 8.77658 8.77625 15.2941 7.02669 23.5514C6.38816 23.2481 5.67448 23.0782 4.92188 23.0782C2.20795 23.0782 0 25.2862 0 28C0 30.7138 2.20795 32.9218 4.92188 32.9218C5.67448 32.9218 6.38816 32.7519 7.02669 32.4486C8.77625 40.706 15.294 47.2235 23.5517 48.9728C23.2482 49.6114 23.0782 50.3253 23.0782 51.0781C23.0782 53.792 25.2862 56 28 56C30.7138 56 32.9218 53.792 32.9218 51.0781C32.9218 50.3253 32.7518 49.6114 32.4483 48.9728C40.706 47.2234 47.2238 40.7059 48.9733 32.4486C49.6118 32.7519 50.3255 32.9218 51.0781 32.9218C53.792 32.9218 56 30.7138 56 28C56 25.2862 53.792 23.0782 51.0781 23.0782ZM28 46.1556C17.9886 46.1556 9.84375 38.011 9.84375 28C9.84375 17.989 17.9886 9.84441 28 9.84441C38.0114 9.84441 46.1562 17.989 46.1562 28C46.1562 38.011 38.0114 46.1556 28 46.1556Z" fill="#0B2D7C"/>
<path d="M4.89258 48.7773L9.18096 44.4889L11.5008 46.8088L7.21242 51.0972L4.89258 48.7773Z" fill="#0B2D7C"/>
<path d="M44.4868 9.19165L48.7753 4.90319L51.0951 7.22303L46.8067 11.5115L44.4868 9.19165Z" fill="#0B2D7C"/>
<path d="M44.4829 46.8123L46.8027 44.4924L51.0912 48.7809L48.7714 51.1008L44.4829 46.8123Z" fill="#0B2D7C"/>
<path d="M4.89844 7.21864L7.21828 4.8988L11.5067 9.18719L9.18682 11.507L4.89844 7.21864Z" fill="#0B2D7C"/>
</svg>
