<svg width="56" height="56" viewBox="0 0 56 56" fill="none" xmlns="http://www.w3.org/2000/svg">
<g clip-path="url(#clip0)">
<path d="M13.2866 18.1693C13.508 20.8176 14.0164 24.4452 15.1667 28.2542C17.6097 36.3431 21.9254 42.0948 28.0006 45.3634C34.0759 42.0948 38.3916 36.3431 40.8345 28.2542C41.9848 24.4455 42.493 20.8178 42.7146 18.1693L28.0006 10.8123L13.2866 18.1693Z" fill="#A37AEB"/>
<path d="M52.7029 13.0877C52.6723 12.4977 52.3267 11.9698 51.7983 11.7056L28.7338 0.173351C28.2719 -0.0575395 27.7283 -0.0575395 27.2665 0.173351L4.202 11.7056C3.67361 11.9698 3.32799 12.4977 3.29736 13.0877C3.27986 13.4235 2.90055 21.4186 5.62409 30.7009C7.23563 36.1931 9.606 40.9899 12.6694 44.9584C16.5298 49.9592 21.4915 53.638 27.4166 55.8929C27.6046 55.9643 27.8023 56.0001 28.0001 56.0001C28.198 56.0001 28.3956 55.9643 28.5837 55.8929C34.5088 53.6381 39.4705 49.9592 43.3309 44.9584C46.3943 40.9899 48.7647 36.1929 50.3762 30.7009C53.0997 21.4186 52.7204 13.4235 52.7029 13.0877ZM28.7273 48.6798C28.4981 48.7932 28.2491 48.8498 28.0001 48.8498C27.7512 48.8498 27.5021 48.7932 27.273 48.6798C19.9676 45.0678 14.8375 38.5148 12.0253 29.2028C10.6187 24.5453 10.1109 20.1565 9.93259 17.295C9.89158 16.6379 10.2475 16.02 10.8364 15.7256L27.2666 7.51055C27.7285 7.27977 28.2721 7.27966 28.7339 7.51055L45.1643 15.7256C45.7531 16.0199 46.109 16.638 46.068 17.2951C45.8896 20.1568 45.3818 24.5457 43.9752 29.2028C41.1628 38.5146 36.0326 45.0677 28.7273 48.6798Z" fill="#0B2D7C"/>
</g>
<defs>
<clipPath id="clip0">
<rect width="56" height="56" fill="white"/>
</clipPath>
</defs>
</svg>
