<svg width="64" height="64" viewBox="0 0 64 64" fill="none" xmlns="http://www.w3.org/2000/svg">
<path d="M34.1174 10.1871C34.7059 9.40715 34.6112 7.75286 34.5275 6.29356C34.5243 6.23066 34.5208 6.16914 34.5173 6.10667C33.6924 6.02791 32.8574 5.98438 32.0124 5.98438C28.7741 5.98438 25.6757 6.58093 22.8159 7.6624C24.8559 8.64275 28.0137 10.3301 31.5236 12.8233C32.7212 11.7927 33.6244 10.8413 34.1174 10.1871Z" fill="#A37AEB"/>
<path d="M47.2971 25.0309C46.0149 25.1757 44.9336 25.3861 44.0088 25.6813C48.4297 33.4 50.1534 43.1517 50.5752 50.2164C54.9549 45.7539 57.7363 39.7211 57.9993 33.0389C54.9815 29.3295 50.9837 24.6127 47.2971 25.0309Z" fill="#A37AEB"/>
<path d="M21.0165 18.3702C24.1227 17.7238 27.041 16.1604 29.3679 14.5102C24.5137 11.1669 20.465 9.43182 19.6596 9.10156C14.6235 11.824 10.5935 16.1617 8.24902 21.4174C11.2964 20.2033 14.5968 19.5855 17.8384 18.9836C18.8871 18.7889 19.9711 18.5876 21.0165 18.3702Z" fill="#A37AEB"/>
<path d="M38.9971 19.1233C39.2743 19.4019 39.5508 19.6853 39.8254 19.9741C40.8388 21.0379 41.7583 22.2014 42.6014 23.4324C43.8293 22.9688 45.2749 22.64 47.0053 22.4444C51.0824 21.9832 54.7077 25.2129 57.8193 28.7686C57.1522 23.3784 54.8404 18.4998 51.3957 14.6523C49.5154 14.8789 47.4192 15.2628 45.2827 15.9004C43.8812 16.319 41.6492 17.4563 38.9971 19.1233Z" fill="#A37AEB"/>
<path d="M35.5752 32.5617C36.6422 28.9477 37.8781 26.3426 40.2726 24.6516C39.554 23.6199 38.7806 22.6517 37.9429 21.7721C37.5554 21.3651 37.1635 20.9721 36.7699 20.5859C27.1629 27.1251 14.0033 39.1372 12.8066 49.5448C16.8011 53.9152 22.2677 56.9123 28.4216 57.7626C30.6623 53.3015 32.7713 44.2324 34.0249 38.8387C34.6272 36.2481 35.147 34.0112 35.5752 32.5617Z" fill="#A37AEB"/>
<path d="M24.6818 26.8282C28.0315 23.7415 31.5689 20.9736 34.8043 18.7491C33.7258 17.7949 32.644 16.9154 31.5821 16.1087C28.8947 18.1288 25.3763 20.1185 21.5464 20.915C20.4739 21.1382 19.3756 21.3422 18.3138 21.5393C14.2228 22.2991 10.2956 23.0348 6.99298 24.8775C6.34981 27.1414 5.99805 29.5283 5.99805 31.9984C5.99805 37.5241 7.7263 42.6438 10.664 46.8568C12.5671 39.3217 19.0948 31.9765 24.6818 26.8282Z" fill="#A37AEB"/>
<path d="M37.045 17.2635C40.1399 15.2904 42.808 13.9262 44.5392 13.4095C46.0937 12.9452 47.6187 12.6071 49.0628 12.3605C45.7258 9.46069 41.6467 7.39398 37.1438 6.49313C37.2436 8.30994 37.2872 10.3046 36.1942 11.7538C35.6749 12.442 34.7964 13.3858 33.6533 14.4098C34.7728 15.2812 35.9104 16.2314 37.045 17.2635Z" fill="#A37AEB"/>
<path d="M38.0682 33.2963C37.6621 34.6722 37.1497 36.8751 36.557 39.4255C34.8068 46.9562 33.1321 53.6947 31.1763 57.9919C31.454 58.0007 31.7315 58.0131 32.0113 58.0131C38.0741 58.0131 43.6474 55.9335 48.0705 52.4566C47.8958 45.0637 46.1235 34.6068 41.6592 26.8443C39.9277 28.1312 38.9958 30.1556 38.0682 33.2963Z" fill="#A37AEB"/>
</svg>
