<svg width="64" height="64" viewBox="0 0 64 64" fill="none" xmlns="http://www.w3.org/2000/svg">
<g clip-path="url(#clip0)">
<path d="M62.1244 4.62415C61.0889 4.62415 60.2494 5.46364 60.2494 6.49914V7.53576C59.0029 8.78675 57.7294 10.0787 56.4995 11.288V48.1687C57.6735 49.4213 58.8924 50.7132 60.2494 52.0861V53.125C60.2494 54.1604 61.0889 54.9999 62.1244 54.9999C63.1599 54.9999 63.9994 54.1604 63.9994 53.125V6.49914C63.9994 5.46352 63.1599 4.62415 62.1244 4.62415Z" fill="#A37AEB"/>
<path d="M0.756143 22.3075C0.280643 22.6613 0.000392863 23.2191 0.000392863 23.8118V35.8118C-0.0214821 36.8188 0.873393 37.7085 1.87552 37.6868C2.08702 37.7757 6.06664 36.4897 6.37802 36.4192V23.2051L2.41414 22.016C1.84639 21.8455 1.23164 21.9538 0.756143 22.3075Z" fill="#A37AEB"/>
<path d="M15.7732 24.1874H10.1284V29.8895C11.6345 27.6529 13.5527 25.7155 15.7732 24.1874Z" fill="#A37AEB"/>
<path d="M27.8447 35.3121C24.2778 35.3121 21.376 38.214 21.376 41.7809C21.7012 50.3508 33.9896 50.3484 34.3135 41.7808C34.3135 38.2139 31.4116 35.3121 27.8447 35.3121Z" fill="#A37AEB"/>
<path d="M50.0016 17.0699C44.3255 21.4602 37.2976 23.7071 30.1782 24.0903C26.1753 24.3251 22.1816 24.6103 18.6472 26.786C13.5141 29.946 10.25 35.7508 10.25 41.7797C10.25 51.4808 18.1425 59.3734 27.8437 59.3734C38.8501 59.5004 47.424 48.9183 45.0679 38.1846C47.9244 39.6581 50.251 41.6831 52.75 44.2179C52.75 44.2179 52.75 14.8009 52.75 14.7999C52.7437 15.3292 50.3836 16.7785 50.0016 17.0699ZM27.8437 51.9984C22.2091 51.9984 17.625 47.4143 17.625 41.7797C18.1387 28.2417 37.5508 28.2455 38.0624 41.7798C38.0624 47.4143 33.4783 51.9984 27.8437 51.9984Z" fill="#A37AEB"/>
</g>
<defs>
<clipPath id="clip0">
<rect width="64" height="64" fill="white"/>
</clipPath>
</defs>
</svg>
