<svg width="64" height="64" viewBox="0 0 64 64" fill="none" xmlns="http://www.w3.org/2000/svg">
<path d="M53.6568 11.492C51.2303 9.28925 48.1534 8.125 44.7586 8.125C40.7859 8.125 36.6191 9.72062 32.374 12.8676C32.2675 12.9466 32.1386 12.9896 32.0061 12.9904C31.8735 12.9913 31.7441 12.95 31.6365 12.8725C27.4545 9.85625 23.1934 8.2615 19.3134 8.2615C15.9274 8.2615 12.8466 9.42075 10.404 11.6137C7.95851 13.8094 6.26739 16.9315 5.51364 20.6425C4.33614 26.674 5.83476 33.2744 9.73339 39.2289C14.2531 46.1316 21.7959 51.8553 31.5449 55.7808C31.6883 55.8411 31.8424 55.8724 31.998 55.8728C32.1536 55.8731 32.3078 55.8426 32.4515 55.7829C53.5241 47.4743 60.7104 32.1454 58.489 20.6386C57.7695 16.8715 56.0988 13.709 53.6568 11.492ZM13.1378 18.0099C12.2655 19.3829 11.6609 20.9086 11.356 22.5065C10.7783 25.4732 11.0675 28.7202 12.1935 31.891C12.221 31.9683 12.2329 32.0504 12.2287 32.1323C12.2244 32.2143 12.2041 32.2946 12.1688 32.3687C12.1335 32.4428 12.084 32.5093 12.0231 32.5642C11.9621 32.6192 11.8909 32.6616 11.8136 32.6891C11.7362 32.7165 11.6542 32.7285 11.5723 32.7242C11.4903 32.72 11.41 32.6997 11.3359 32.6644C11.2617 32.6291 11.1953 32.5796 11.1404 32.5186C11.0854 32.4577 11.043 32.3865 11.0155 32.3091C9.81551 28.928 9.50876 25.4537 10.1303 22.2621C10.4662 20.508 11.1315 18.8335 12.0908 17.327C12.1356 17.2583 12.1935 17.199 12.2613 17.1527C12.329 17.1063 12.4052 17.0737 12.4855 17.0568C12.5658 17.0399 12.6487 17.039 12.7294 17.0541C12.81 17.0692 12.887 17.1001 12.9557 17.1449C13.0244 17.1898 13.0837 17.2477 13.13 17.3154C13.1764 17.3832 13.209 17.4594 13.2259 17.5397C13.2428 17.62 13.2437 17.7029 13.2286 17.7835C13.2135 17.8642 13.1826 17.9411 13.1378 18.0099ZM16.0291 15.1341C15.7945 15.28 15.5628 15.4401 15.3404 15.61C15.2086 15.7106 15.0423 15.7548 14.878 15.7328C14.7137 15.7108 14.5649 15.6244 14.4643 15.4926C14.3636 15.3609 14.3195 15.1946 14.3415 15.0303C14.3635 14.8659 14.4499 14.7171 14.5816 14.6165C14.8356 14.4226 15.1005 14.2396 15.3691 14.0726C15.5099 13.9851 15.6797 13.9571 15.8411 13.9947C16.0025 14.0323 16.1424 14.1325 16.2299 14.2733C16.3175 14.4141 16.3455 14.5838 16.3079 14.7453C16.2703 14.9067 16.17 15.0466 16.0293 15.1341H16.0291Z" fill="#0B2D7C"/>
</svg>
