<svg width="64" height="64" viewBox="0 0 64 64" fill="none" xmlns="http://www.w3.org/2000/svg">
<g clip-path="url(#clip0)">
<path d="M5.70038 22.6329C5.70038 21.5974 4.86088 20.7579 3.82538 20.7579H1.875C0.8395 20.7579 0 21.5974 0 22.6329C0 23.6684 0.8395 24.5079 1.875 24.5079H3.82538C4.86088 24.5079 5.70038 23.6684 5.70038 22.6329Z" fill="#0B2D7C"/>
<path d="M6.67792 7.5803C8.36542 7.5803 9.20617 5.49893 7.95704 4.33405L6.53067 3.0038C5.77329 2.29768 4.58679 2.33918 3.88067 3.0963C3.17442 3.85368 3.21592 5.04005 3.97317 5.7463C5.12567 6.68705 5.53379 7.5803 6.67792 7.5803Z" fill="#0B2D7C"/>
<path d="M5.3996 37.9218L3.97323 39.2519C3.21585 39.9582 3.17448 41.1447 3.8806 41.9019C4.5871 42.6594 5.77335 42.7007 6.53073 41.9945L7.95711 40.6644C8.71448 39.9582 8.75586 38.7717 8.04973 38.0144C7.34335 37.257 6.15698 37.2155 5.3996 37.9218Z" fill="#0B2D7C"/>
<path d="M62.1262 20.4923H60.1758C59.1403 20.4923 58.3008 21.3318 58.3008 22.3673C58.3008 23.4028 59.1403 24.2423 60.1758 24.2423H62.1262C63.1617 24.2423 64.0012 23.4028 64.0012 22.3673C64.0012 21.3318 63.1617 20.4923 62.1262 20.4923Z" fill="#0B2D7C"/>
<path d="M58.601 37.9256C57.8437 37.2196 56.6573 37.2609 55.9509 38.0182C55.2448 38.7756 55.2862 39.9619 56.0435 40.6682L57.4699 41.9983C58.2289 42.7059 59.4152 42.6614 60.1201 41.9057C60.8262 41.1483 60.7848 39.9619 60.0274 39.2557L58.601 37.9256Z" fill="#0B2D7C"/>
<path d="M58.602 7.07645L60.0284 5.74632C60.7857 5.04007 60.8271 3.85357 60.1209 3.09632C59.4146 2.33907 58.2281 2.29745 57.4709 3.00382L56.0445 4.33395C55.2871 5.0402 55.2458 6.2267 55.952 6.98395C56.6584 7.74132 57.8449 7.78257 58.602 7.07645Z" fill="#0B2D7C"/>
<path d="M21.375 50.8125C21.375 53.1448 22.8031 55.1493 24.8305 56H39.1695C41.1969 55.1493 42.625 53.1448 42.625 50.8125V48.125H21.375V50.8125Z" fill="#0B2D7C"/>
<path d="M25.125 62.125C25.125 63.16 25.965 64 27 64H37C38.035 64 38.875 63.16 38.875 62.125V59.75H25.125V62.125Z" fill="#0B2D7C"/>
<path d="M53.6935 22.5001C59.0286 17.054 55.946 7.86848 48.4801 6.67935C46.6059 0.447979 39.0751 -2.03252 33.875 1.87973V45.0626H39.5C43.7324 45.0626 47.3436 42.2827 48.4987 38.3179C55.924 37.1202 59.0386 27.9565 53.6935 22.5001ZM37.625 11.3751C37.625 10.3396 38.4645 9.5001 39.5 9.5001C40.5355 9.5001 41.375 10.3396 41.375 11.3751C41.375 13.2952 42.1029 13.647 43.5529 14.3476C44.9256 15.0109 47 16.0131 47 18.8751C47 19.9106 46.1605 20.7501 45.125 20.7501C44.0895 20.7501 43.25 19.9106 43.25 18.8751C43.25 18.4637 43.25 18.366 41.9215 17.7241C40.3146 16.9477 37.625 15.6482 37.625 11.3751ZM48.7464 29.0646C46.5877 32.0559 43.2531 33.2971 42.3036 33.2971C41.4877 33.2971 40.7372 32.7606 40.5017 31.9372C40.217 30.9416 40.7934 29.9037 41.789 29.619C43.339 29.1757 44.74 28.208 45.7055 26.8701C46.3115 26.0304 47.4835 25.841 48.3231 26.4469C49.1629 27.053 49.3524 28.2249 48.7464 29.0646Z" fill="#0B2D7C"/>
<path d="M30.1252 45.0626V1.87973C24.9253 -2.0324 17.3945 0.447728 15.5202 6.67935C8.05008 7.86923 4.97396 17.0564 10.3068 22.5001C4.95983 27.9582 8.07983 37.1207 15.5016 38.3179C16.6605 42.2957 20.2792 45.0626 24.5003 45.0626H30.1252ZM20.4473 14.3476C21.8973 13.647 22.6252 13.2954 22.6252 11.3751C22.6252 10.3396 23.4647 9.5001 24.5002 9.5001C25.5357 9.5001 26.3752 10.3396 26.3752 11.3751C26.3752 15.6482 23.6856 16.9477 22.0787 17.7241C20.7502 18.366 20.7502 18.4637 20.7502 18.8751C20.7502 19.9106 19.9107 20.7501 18.8752 20.7501C17.8397 20.7501 17.0002 19.9106 17.0002 18.8751C17.0002 16.0131 19.0746 15.0109 20.4473 14.3476ZM23.4985 31.9372C23.2631 32.7605 22.5125 33.2971 21.6966 33.2971C20.7183 33.2971 17.6016 32.0656 15.526 29.4257C14.8858 28.6116 15.027 27.4329 15.841 26.7929C16.6552 26.1527 17.8338 26.2939 18.4738 27.1079C19.4077 28.2956 20.7233 29.1935 22.2112 29.6189C23.207 29.9037 23.7832 30.9416 23.4985 31.9372Z" fill="#0B2D7C"/>
</g>
<defs>
<clipPath id="clip0">
<rect width="64" height="64" fill="white"/>
</clipPath>
</defs>
</svg>
