<svg width="64" height="64" viewBox="0 0 64 64" fill="none" xmlns="http://www.w3.org/2000/svg">
<g clip-path="url(#clip0)">
<path d="M44.0466 52.2042C38.3062 52.2042 24.9149 52.2042 19.9527 52.2042C18.9136 52.2042 18.0703 53.0475 18.0703 54.0866V62.1179C18.0703 63.1569 18.9136 64.0002 19.9527 64.0002H44.0466C45.0856 64.0002 45.9289 63.1569 45.9289 62.1179V54.0866C45.9289 53.0475 45.0856 52.2042 44.0466 52.2042Z" fill="#A37AEB"/>
<path d="M9.78865 13.9297C9.78865 12.8901 8.94586 12.0474 7.90631 12.0474H1.88283C0.843274 12.0474 0.000488281 12.8901 0.000488281 13.9297C0.000488281 14.9693 0.843274 15.812 1.88283 15.812H7.90631C8.94586 15.812 9.78865 14.9693 9.78865 13.9297Z" fill="#A37AEB"/>
<path d="M11.7887 3.51326C17.5388 6.83308 17.2722 6.77761 17.9446 6.77761C19.8668 6.77761 20.549 4.22391 18.8875 3.2648L13.671 0.253055C12.7706 -0.267098 11.6194 0.0416053 11.0997 0.94199C10.5798 1.84238 10.8883 2.99349 11.7887 3.51326Z" fill="#A37AEB"/>
<path d="M13.1851 23.3425L7.96864 26.3543C6.30792 27.313 6.9887 29.8671 8.91157 29.8671C9.59072 29.8671 9.49522 29.8199 15.0674 26.6027C15.9677 26.083 16.2762 24.9319 15.7564 24.0315C15.2366 23.1311 14.0855 22.8224 13.1851 23.3425Z" fill="#A37AEB"/>
<path d="M62.1172 12.0474H56.0938C55.0542 12.0474 54.2114 12.8901 54.2114 13.9297C54.2114 14.9693 55.0542 15.812 56.0938 15.812H62.1172C63.1568 15.812 63.9996 14.9693 63.9996 13.9297C63.9996 12.8901 63.1568 12.0474 62.1172 12.0474Z" fill="#A37AEB"/>
<path d="M46.0566 6.7774C46.7357 6.7774 46.6402 6.73022 52.2125 3.51305C53.1127 2.99327 53.4212 1.84216 52.9014 0.941775C52.3816 0.0415151 51.2304 -0.267439 50.3301 0.252839L45.1137 3.26458C43.4529 4.22332 44.1337 6.7774 46.0566 6.7774Z" fill="#A37AEB"/>
<path d="M56.0314 26.3548L50.815 23.3431C49.9146 22.823 48.7634 23.1317 48.2437 24.032C47.7239 24.9324 48.0324 26.0836 48.9326 26.6033C54.6828 29.9231 54.4161 29.8676 55.0885 29.8676C57.0108 29.8676 57.6928 27.3138 56.0314 26.3548Z" fill="#A37AEB"/>
<path d="M15.7975 14.3745L24.0221 20.349L20.8798 30.0167C20.3199 31.7466 22.3055 33.1901 23.7774 32.1211L30.1184 27.5144V32.1262H28.9889C28.1582 32.1262 27.4254 32.672 27.1857 33.4676C25.7183 38.3586 24.7529 43.0347 24.3208 48.4398H39.6806C39.2443 42.9817 38.272 38.333 36.8157 33.4676C36.576 32.6719 35.8432 32.1262 35.0124 32.1262H33.883V27.5144L40.224 32.1211C41.6854 33.1825 43.6832 31.7522 43.1215 30.0167L39.9793 20.349L48.2039 14.3745C49.6738 13.3048 48.9158 10.9687 47.097 10.9687H36.9324L33.7914 1.30225C33.2292 -0.429001 30.7715 -0.427119 30.21 1.30225L27.069 10.9687H16.9043C15.0864 10.9687 14.3268 13.3042 15.7975 14.3745Z" fill="#A37AEB"/>
</g>
<defs>
<clipPath id="clip0">
<rect width="64" height="64" fill="white"/>
</clipPath>
</defs>
</svg>
