<svg width="64" height="64" viewBox="0 0 64 64" fill="none" xmlns="http://www.w3.org/2000/svg">
<path d="M51.0328 3.12975C47.2845 -0.618625 41.4211 -0.99475 37.2486 2.002C35.4445 0.7015 33.2849 0 31.0173 0C28.1631 0 25.4798 1.1115 23.4615 3.12975C19.2954 7.296 19.2954 14.075 23.4615 18.2411L35.9213 30.7009C36.2728 31.0525 36.7498 31.2501 37.247 31.2501C37.7443 31.2501 38.2213 31.0525 38.5728 30.7009L51.0325 18.2411C53.0508 16.2229 54.1623 13.5396 54.1623 10.6854C54.1625 7.83125 53.051 5.14787 51.0328 3.12975Z" fill="#A37AEB"/>
<path d="M62.2316 41.2659L48.2861 53.7877C46.4481 55.4381 44.0754 56.347 41.6051 56.347H23.853L13.442 63.6582C13.1264 63.8799 12.7501 63.9988 12.3644 63.9988H2C0.9645 63.9988 0.125 63.1594 0.125 62.1239V48.6467C0.125 48.0681 0.392125 47.522 0.848875 47.1667L12.4739 38.1251C14.9971 36.1625 18.1026 35.097 21.2994 35.097H39.3341C41.923 35.097 44.0216 37.1956 44.0216 39.7845C44.0216 42.3734 41.923 44.472 39.3341 44.472H30.5632C29.5278 44.472 28.6882 45.3115 28.6882 46.347C28.6882 47.3825 29.5278 48.222 30.5632 48.222H39.3341C43.6054 48.222 47.1431 45.031 47.6945 40.9082L55.645 33.8754C57.3032 32.4084 59.759 32.225 61.6171 33.4294C62.9206 34.2744 63.7379 35.6472 63.8594 37.196C63.9809 38.7445 63.3876 40.228 62.2316 41.2659Z" fill="#A37AEB"/>
</svg>
