<svg width="64" height="64" viewBox="0 0 64 64" fill="none" xmlns="http://www.w3.org/2000/svg">
<g clip-path="url(#clip0)">
<path d="M52.6689 26.7911C52.3149 26.92 51.98 27.0967 51.6763 27.3199C50.1069 28.4747 47.1812 31.629 47.1812 31.629C47.271 31.5445 45.0742 33.67 43.0601 35.6334C42.4951 36.1846 41.5454 35.7886 41.5386 34.9991V9.55865C41.5386 7.065 39.522 5.34478 37.0815 5.85748C35.1343 6.26666 34.0952 8.07818 34.0952 10.2442L34.1123 29.4483L31.144 29.4551V3.46636C31.144 1.08697 29.2339 -0.475043 26.9326 0.130425C25.3535 0.545465 24.6143 2.03179 24.6143 3.90582V29.4908L21.6548 29.4971L21.6377 8.70904C21.6377 6.63189 20.6582 4.79986 18.582 4.73834C16.4243 4.67437 15.3853 6.48443 15.3853 8.62798L15.3545 29.5313L12.4614 29.5372V15.836C12.4614 13.6778 11.4575 12.0474 9.2876 12.0474C7.12891 12.0474 6.125 13.6778 6.125 15.836L6.12744 46.2525C7.20996 61.8902 16.0503 63.9996 25.2915 63.9996C32.9478 63.9996 39.0728 60.2017 42.4634 54.1309C42.8999 53.4268 44.0796 51.5713 45.4785 49.3736C47.4683 46.2481 49.2739 43.4517 50.541 41.4703C52.2114 38.8575 53.7407 36.8165 55.6323 34.3589C56.1587 33.6753 56.5947 33.1251 56.8027 32.8975C57.3726 32.2754 57.748 31.5015 57.8604 30.6661V30.5084C57.8604 27.4922 55.5015 25.7559 52.6689 26.7911Z" fill="#0B2D7C"/>
</g>
<defs>
<clipPath id="clip0">
<rect width="64" height="64" fill="white"/>
</clipPath>
</defs>
</svg>
