<svg width="348" height="304" viewBox="0 0 348 304" fill="none" xmlns="http://www.w3.org/2000/svg">
<path fill-rule="evenodd" clip-rule="evenodd" d="M200.043 71.9508L200.034 71.9991C209.827 63.3687 221.653 55.8264 232.218 51.342L232.074 51.3733C235.154 50.0602 238.128 49.0058 240.916 48.2588L240.708 48.3423C238.024 49.0748 235.171 50.089 232.218 51.342L235.303 50.6782C223.717 56.0164 210.798 64.0523 201.367 73.4842C198.369 76.4812 195.766 79.1405 193.49 81.4669C189.696 85.3426 186.806 88.2945 184.506 90.3442C183.461 91.2762 182.047 92.1295 180.631 92.9837C178.212 94.4427 175.786 95.9074 175.164 97.7798C174.961 98.392 175.209 99.3373 175.782 100.506C173.773 101.559 171.886 102.93 170.198 104.62C167.287 107.53 165.32 111.027 164.298 114.73C161.906 114.548 159.495 114.487 157.139 114.465C146.804 114.37 136.262 115.72 126.663 119.704C113.586 125.131 105.304 135.229 99.3555 147.738C98.9475 148.596 98.5495 149.478 98.1563 150.377C97.4346 150.114 96.725 149.859 96.0298 149.617C91.467 148.029 86.5361 146.315 81.6335 146.581C76.373 146.867 70.8564 151.095 69.9998 156.475C69.6469 158.691 70.0558 160.916 70.7796 163.015C70.8217 163.138 70.8651 163.288 70.9122 163.45C71.0699 163.993 71.2689 164.68 71.6048 164.967C72.1116 165.399 72.8443 164.896 72.6947 164.273C71.616 159.783 70.9767 155.767 75.1404 152.537C76.0182 151.856 76.9921 151.308 78.0017 150.848C79.3707 150.226 80.8403 150.098 82.3267 150.242C86.2026 150.618 89.9449 152.343 93.4465 153.956L93.6482 154.049C94.4715 154.429 95.2919 154.814 96.1109 155.203C93.6081 161.168 90.9296 167.293 86.7259 171.682C82.0984 176.513 75.1016 178.452 68.597 177.126C66.4372 176.686 64.3463 175.912 62.4099 174.861C62.0374 174.658 61.6654 174.389 61.2931 174.119C60.81 173.77 60.3266 173.42 59.842 173.216C59.2973 172.987 58.7846 173.518 58.9404 174.057C59.1564 174.805 61.387 176.167 62.2227 176.677C62.28 176.713 62.3309 176.744 62.374 176.77C66.4492 179.278 71.228 180.537 76.0121 180.266C89.2703 179.512 95.7498 168.573 101.612 157.84C104.265 159.1 106.933 160.326 109.664 161.414C110.674 161.815 111.695 162.201 112.726 162.563C112.452 164.267 112.262 166.107 112.067 167.986C111.541 173.059 110.986 178.414 108.686 182.12C105.535 187.198 99.0855 189.802 93.5299 191.151C91.8304 191.564 90.1009 191.879 88.3598 192.052C88.0656 192.081 87.7439 192.077 87.4185 192.073C86.9319 192.067 86.437 192.061 86.0127 192.166C85.3021 192.34 85.3734 193.349 86.0638 193.488C88.515 193.984 91.3736 193.585 93.8234 193.243L93.9262 193.229C101.996 192.102 110.492 188.7 114.131 180.886C115.837 177.224 116.684 173.296 117.53 169.368C117.894 167.678 118.258 165.988 118.691 164.319C122.405 165.178 126.208 165.577 130.035 165.197C138.53 164.353 146.496 159.228 153.2 154.135C148.107 160.839 142.982 168.804 142.138 177.3C141.758 181.127 142.157 184.929 143.016 188.644C141.347 189.076 139.657 189.441 137.967 189.805C134.04 190.651 130.111 191.497 126.449 193.204C118.635 196.843 115.233 205.339 114.106 213.409L114.092 213.512C113.75 215.961 113.35 218.82 113.846 221.271C113.986 221.961 114.995 222.033 115.169 221.322C115.273 220.898 115.267 220.403 115.262 219.917C115.258 219.591 115.254 219.27 115.283 218.975C115.455 217.234 115.771 215.504 116.184 213.805C117.533 208.249 120.137 201.8 125.215 198.649C128.921 196.349 134.276 195.794 139.349 195.268H139.35C141.228 195.073 143.068 194.882 144.772 194.608C145.134 195.64 145.52 196.661 145.922 197.67C147.009 200.402 148.235 203.07 149.496 205.722C138.762 211.585 127.823 218.065 127.069 231.323C126.797 236.107 128.057 240.885 130.565 244.961C130.591 245.004 130.622 245.055 130.657 245.112C131.168 245.948 132.53 248.179 133.278 248.395C133.817 248.551 134.348 248.038 134.119 247.493C133.915 247.008 133.565 246.525 133.216 246.042C132.946 245.67 132.677 245.297 132.474 244.925C131.423 242.988 130.649 240.898 130.209 238.738C128.883 232.234 130.822 225.236 135.653 220.609C140.042 216.406 146.168 213.727 152.132 211.224C152.52 212.043 152.907 212.863 153.286 213.686L153.379 213.889C154.993 217.39 156.717 221.132 157.093 225.008C157.237 226.495 157.109 227.964 156.486 229.333C156.027 230.343 155.479 231.316 154.798 232.195C151.569 236.358 147.552 235.719 143.062 234.64C142.439 234.49 141.935 235.224 142.368 235.73C142.655 236.066 143.341 236.265 143.884 236.422H143.885C144.048 236.47 144.198 236.513 144.32 236.555C146.42 237.279 148.644 237.688 150.86 237.335C156.24 236.479 160.467 230.962 160.754 225.701C161.021 220.799 159.307 215.868 157.718 211.305C157.476 210.609 157.221 209.9 156.959 209.179C157.858 208.785 158.739 208.388 159.597 207.979C172.106 202.031 182.203 193.749 187.631 180.672C191.616 171.073 192.965 160.531 192.87 150.196C192.848 147.84 192.787 145.429 192.605 143.037C196.308 142.015 199.805 140.048 202.716 137.137C204.405 135.448 205.776 133.562 206.829 131.552C207.997 132.125 208.943 132.373 209.555 132.17C211.428 131.549 212.892 129.122 214.351 126.704C215.206 125.288 216.058 123.874 216.991 122.828C219.041 120.528 221.993 117.639 225.868 113.846V113.845H225.869C228.195 111.567 230.854 108.965 233.851 105.968C244.782 95.0375 253.838 79.4227 258.992 66.6275C255.638 78.915 246.377 94.7724 235.336 107.301L235.384 107.292L235.358 107.322C240.523 106.349 245.81 103.495 251.036 98.2686C265.561 83.7437 270.107 52.3846 262.541 44.8165L262.519 44.7949L262.518 44.7941V44.7941L262.517 44.7929C254.946 37.2284 223.59 41.7756 209.067 56.299C203.841 61.5254 200.986 66.8116 200.013 71.9774L200.043 71.9508ZM114.429 155.835C111.051 155.005 107.677 153.866 104.434 152.691C105.604 150.603 106.79 148.59 108.04 146.738C111.103 142.202 114.73 138.03 119.162 134.784C126.629 129.315 135.977 127.275 145.084 126.945C146.742 126.885 148.402 126.88 150.061 126.926C143.034 129.506 136.208 132.657 129.983 136.775C122.448 141.758 117.237 147.806 114.429 155.835ZM154.137 137.428C151.858 138.007 149.595 138.647 147.354 139.359C137.82 142.386 127.247 146.754 121.993 155.806C121.762 156.204 121.544 156.605 121.338 157.011C124.079 157.236 126.763 157.12 129.32 156.508C131.526 155.98 133.527 154.979 135.47 153.832C142.601 149.628 148.688 143.746 154.137 137.428ZM150.324 185.997C150.1 183.256 150.216 180.571 150.827 178.015C151.355 175.809 152.356 173.808 153.502 171.864C157.707 164.733 163.588 158.647 169.907 153.198C169.327 155.477 168.687 157.74 167.976 159.981C164.949 169.514 160.582 180.088 151.529 185.343C151.131 185.573 150.729 185.791 150.324 185.997ZM180.409 157.274C180.455 158.933 180.45 160.593 180.39 162.25C180.06 171.358 178.02 180.706 172.551 188.173C169.305 192.605 165.133 196.232 160.597 199.294C158.745 200.545 156.732 201.731 154.644 202.9C153.469 199.658 152.329 196.283 151.501 192.906C159.529 190.097 165.577 184.887 170.561 177.352C174.677 171.127 177.83 164.301 180.409 157.274Z" fill="#0B2D7C"/>
<path d="M174.701 121.044C174.768 136.147 197.76 136.267 197.875 121.044C197.821 105.954 174.828 105.816 174.701 121.044Z" fill="white"/>
<path d="M181.85 121.044C181.875 126.831 190.686 126.878 190.73 121.044C190.709 115.262 181.898 115.209 181.85 121.044Z" fill="#2AE0DD"/>
<circle opacity="0.4" cx="94.5" cy="15.5" r="4.5" fill="url(#paint0_linear)"/>
<circle opacity="0.4" cx="286" cy="232" r="8" fill="url(#paint1_linear)"/>
<circle opacity="0.4" cx="300" cy="215" r="4" fill="url(#paint2_linear)"/>
<circle opacity="0.4" cx="344" cy="138" r="4" fill="url(#paint3_linear)"/>
<circle opacity="0.4" cx="113" cy="295" r="3" fill="url(#paint4_linear)"/>
<circle opacity="0.4" cx="122.5" cy="302.5" r="1.5" fill="#0B2D7C"/>
<circle opacity="0.4" cx="120" cy="291" r="1" fill="#0B2D7C"/>
<circle opacity="0.4" cx="2" cy="123" r="2" fill="url(#paint5_linear)"/>
<defs>
<linearGradient id="paint0_linear" x1="90" y1="20" x2="99" y2="11" gradientUnits="userSpaceOnUse">
<stop stop-color="#4F24FF"/>
<stop offset="1" stop-color="#00FFE2"/>
</linearGradient>
<linearGradient id="paint1_linear" x1="278" y1="240" x2="294" y2="224" gradientUnits="userSpaceOnUse">
<stop stop-color="#4F24FF"/>
<stop offset="1" stop-color="#00FFE2"/>
</linearGradient>
<linearGradient id="paint2_linear" x1="296" y1="219" x2="304" y2="211" gradientUnits="userSpaceOnUse">
<stop stop-color="#4F24FF"/>
<stop offset="1" stop-color="#00FFE2"/>
</linearGradient>
<linearGradient id="paint3_linear" x1="340" y1="142" x2="348" y2="134" gradientUnits="userSpaceOnUse">
<stop stop-color="#4F24FF"/>
<stop offset="1" stop-color="#00FFE2"/>
</linearGradient>
<linearGradient id="paint4_linear" x1="110" y1="298" x2="116" y2="292" gradientUnits="userSpaceOnUse">
<stop stop-color="#4F24FF"/>
<stop offset="1" stop-color="#00FFE2"/>
</linearGradient>
<linearGradient id="paint5_linear" x1="8.00185e-09" y1="125" x2="4" y2="121" gradientUnits="userSpaceOnUse">
<stop stop-color="#4F24FF"/>
<stop offset="1" stop-color="#00FFE2"/>
</linearGradient>
</defs>
</svg>
