<svg width="299" height="568" viewBox="0 0 299 568" fill="none" xmlns="http://www.w3.org/2000/svg">
<path d="M147.326 423.467C147.326 425.265 146.242 426.343 144.436 426.343C142.629 426.343 141.545 425.265 141.545 423.467C141.545 421.67 142.629 420.591 144.436 420.591C146.242 420.591 147.326 422.029 147.326 423.467Z" fill="#0B2D7C"/>
<path d="M208.75 423.467C208.75 425.265 207.666 426.343 205.859 426.343C204.053 426.343 202.969 425.265 202.969 423.467C202.969 421.67 204.053 420.591 205.859 420.591C207.666 420.591 208.75 422.029 208.75 423.467Z" fill="#0B2D7C"/>
<path d="M52.6692 525.559L52.6692 526.278C52.6692 527.716 53.7531 529.154 55.5596 529.154C57.3661 529.154 58.45 528.075 58.45 526.278L58.45 525.559C58.45 524.121 57.3661 522.683 55.5596 522.683C53.7531 522.683 52.6692 524.121 52.6692 525.559Z" fill="#0B2D7C"/>
<path d="M52.6692 537.062L52.6692 537.781C52.6692 539.219 53.7531 540.657 55.5596 540.657C57.3661 540.657 58.45 539.578 58.45 537.781L58.45 537.062C58.45 535.624 57.3661 534.186 55.5596 534.186C53.7531 534.186 52.6692 535.624 52.6692 537.062Z" fill="#0B2D7C"/>
<path d="M53.0269 514.055L53.0269 514.774C53.0269 516.212 54.1108 517.65 55.556 517.65C57.0012 517.65 58.4464 516.572 58.4464 515.134L58.4464 514.415C58.4464 514.415 58.4464 514.415 58.4464 514.055C58.4464 512.618 57.3625 511.539 55.9173 511.539C54.4721 511.539 53.0269 512.618 53.0269 514.055Z" fill="#0B2D7C"/>
<path d="M88.075 488.892C86.6298 488.892 85.1846 489.97 85.1846 491.768C85.1846 493.565 86.2685 494.644 88.075 494.644L88.7976 494.644C90.2428 494.644 91.688 493.565 91.688 491.768C91.688 489.97 90.6041 488.892 88.7976 488.892L88.075 488.892Z" fill="#0B2D7C"/>
<path d="M65.6744 493.566L64.9518 493.925C63.8679 494.644 63.5066 496.441 64.2292 497.52C64.9518 498.598 66.7583 498.958 67.8423 498.239L68.5649 497.879C69.2875 497.52 69.6488 496.441 69.6488 495.722C69.6488 495.363 69.6488 494.644 69.2875 494.285C68.5649 492.847 66.7583 492.487 65.6744 493.566Z" fill="#0B2D7C"/>
<path d="M96.7488 491.768C96.7488 493.206 97.8327 494.644 99.6392 494.644L100.362 494.644C101.807 494.644 103.252 493.565 103.252 491.768C103.252 489.97 101.807 488.892 100.362 488.892L99.6392 488.892C98.194 488.892 96.7488 490.33 96.7488 491.768Z" fill="#0B2D7C"/>
<path d="M52.6692 548.206L52.6692 548.925C52.6692 550.362 53.7531 551.8 55.5596 551.8C57.3661 551.8 58.45 550.722 58.45 548.925L58.45 548.206C58.45 546.768 57.3661 545.33 55.5596 545.33C53.7531 545.33 52.6692 546.768 52.6692 548.206Z" fill="#0B2D7C"/>
<path d="M56.6418 502.193L56.2805 502.912C55.5579 504.35 55.9192 505.787 57.3644 506.506C58.8096 507.225 60.2548 506.866 60.9774 505.428L61.3387 505.068C61.7001 504.709 61.7 503.99 61.7 503.631C61.7 502.552 61.3387 501.833 60.2548 501.474C59.1709 500.755 57.7257 501.114 56.6418 502.193Z" fill="#0B2D7C"/>
<path d="M131.434 485.657C130.35 486.376 129.988 488.174 130.711 489.252C131.434 490.33 133.24 490.69 134.324 489.971L135.047 489.611C135.769 489.252 136.13 488.174 136.13 487.455C136.13 487.095 136.13 486.376 135.769 486.017C135.047 484.938 133.24 484.579 132.156 485.298L131.434 485.657Z" fill="#0B2D7C"/>
<path d="M139.021 477.748L138.66 478.107C137.938 479.545 138.299 480.983 139.383 481.702C140.828 482.421 142.273 482.061 142.996 480.983L143.357 480.264C143.718 479.904 143.718 479.545 143.718 478.826C143.718 477.748 143.357 477.029 142.273 476.31C141.189 475.95 139.744 476.669 139.021 477.748Z" fill="#0B2D7C"/>
<path d="M141.911 468.402L141.911 469.121C141.911 470.559 142.995 471.997 144.44 471.997C145.885 471.997 147.33 470.919 147.33 469.481L147.33 468.762C147.33 468.762 147.33 468.762 147.33 468.402C147.33 466.964 146.246 465.886 144.801 465.886C143.356 465.527 141.911 466.605 141.911 468.402Z" fill="#0B2D7C"/>
<path d="M80.1277 491.768C79.7664 489.971 78.6825 488.893 77.2373 489.252L76.5147 489.252C75.0695 489.612 73.9856 490.69 74.3469 492.487C74.7082 493.925 75.7921 495.004 77.5986 494.644L78.3212 494.644C79.4051 494.285 80.1277 493.206 80.1277 491.768Z" fill="#0B2D7C"/>
<path d="M122.762 488.891L122.04 488.891C120.594 488.891 119.51 490.329 119.51 491.767C119.51 493.205 120.956 494.283 122.401 494.283C122.762 494.283 123.124 494.283 123.124 494.283C124.569 493.924 125.291 492.845 125.291 491.767L125.291 491.407C125.653 489.61 124.207 488.531 122.762 488.891Z" fill="#0B2D7C"/>
<path d="M114.45 491.768C114.45 490.33 113.366 488.892 111.559 488.892L110.837 488.892C109.392 488.892 107.946 489.97 107.946 491.768C107.946 493.565 109.03 494.644 110.837 494.644L111.559 494.644C113.366 494.284 114.45 493.206 114.45 491.768Z" fill="#0B2D7C"/>
<path d="M52.6699 560.068C52.6699 561.506 53.7538 562.944 55.5604 562.944C57.3669 562.944 58.4508 561.866 58.4508 560.068L58.4508 559.709C58.0895 558.271 57.0056 557.193 55.5604 557.193C54.1151 557.193 52.6699 558.631 52.6699 560.068Z" fill="#0B2D7C"/>
<path d="M141.911 423.467L141.911 434.611L141.911 435.33L141.911 446.114L141.911 446.833L141.911 457.258L141.911 457.977C141.911 459.415 142.995 460.853 144.801 460.853C146.608 460.853 147.691 459.775 147.691 457.977L147.691 457.258L147.691 446.833L147.691 445.755L147.691 434.971L147.691 434.252L147.691 423.108C147.691 421.67 146.608 420.232 144.801 420.232C142.995 420.232 141.911 422.029 141.911 423.467Z" fill="#0B2D7C"/>
<path d="M177.318 423.467C177.318 425.265 176.234 426.343 174.428 426.343C172.621 426.343 171.537 425.265 171.537 423.467C171.537 421.67 172.621 420.591 174.428 420.591C176.234 420.591 177.318 422.029 177.318 423.467Z" fill="#0B2D7C"/>
<path d="M171.896 517.65L171.896 518.369C171.896 519.807 172.979 521.245 174.786 521.245C176.592 521.245 177.676 520.166 177.676 518.369L177.676 517.65C177.676 516.212 176.592 514.774 174.786 514.774C172.979 514.774 171.896 516.212 171.896 517.65Z" fill="#2F87A5"/>
<path d="M171.896 505.787L171.896 506.506C171.896 507.944 172.979 509.382 174.786 509.382C176.592 509.382 177.676 508.304 177.676 506.506L177.676 505.787C177.676 504.349 176.592 502.912 174.786 502.912C172.979 502.912 171.896 504.349 171.896 505.787Z" fill="#2F87A5"/>
<path d="M171.896 529.512L171.896 530.231C171.896 531.668 172.979 533.106 174.786 533.106C176.592 533.106 177.676 532.028 177.676 530.231L177.676 529.512C177.676 528.074 176.592 526.636 174.786 526.636C172.979 526.636 171.896 528.074 171.896 529.512Z" fill="#2F87A5"/>
<path d="M171.896 541.376L171.896 542.095C171.896 543.533 172.979 544.971 174.786 544.971C176.592 544.971 177.676 543.892 177.676 542.095L177.676 541.376C177.676 539.938 176.592 538.5 174.786 538.5C172.979 538.5 171.896 539.938 171.896 541.376Z" fill="#2F87A5"/>
<path d="M171.896 553.238L171.896 553.957C171.896 555.395 172.979 556.833 174.786 556.833C176.592 556.833 177.676 555.755 177.676 553.957L177.676 553.238C177.676 551.8 176.592 550.362 174.786 550.362C172.979 550.362 171.896 551.441 171.896 553.238Z" fill="#2F87A5"/>
<path d="M171.896 470.198L171.896 470.917C171.896 472.355 172.979 473.793 174.786 473.793C176.592 473.793 177.676 472.715 177.676 470.917L177.676 470.198C177.676 468.76 176.592 467.323 174.786 467.323C172.979 467.323 171.896 468.76 171.896 470.198Z" fill="#2F87A5"/>
<path d="M171.896 493.924L171.896 494.643C171.896 496.081 172.979 497.519 174.786 497.519C176.592 497.519 177.676 496.441 177.676 494.643L177.676 493.924C177.676 492.486 176.592 491.048 174.786 491.048C172.979 491.048 171.896 492.486 171.896 493.924Z" fill="#2F87A5"/>
<path d="M171.896 482.062L171.896 482.781C171.896 484.218 172.979 485.656 174.786 485.656C176.592 485.656 177.676 484.578 177.676 482.781L177.676 482.062C177.676 480.624 176.592 479.186 174.786 479.186C172.979 479.186 171.896 480.624 171.896 482.062Z" fill="#2F87A5"/>
<path d="M171.896 564.742L171.896 565.101C171.896 566.539 172.979 567.977 174.786 567.977C176.592 567.977 177.676 566.899 177.676 565.101L177.676 564.742C177.676 563.304 176.592 561.866 174.786 561.866C172.979 561.866 171.896 563.304 171.896 564.742Z" fill="#2F87A5"/>
<path d="M171.896 423.466L171.896 434.97L171.896 435.689L171.896 446.833L171.896 447.552L171.896 457.617L171.896 457.976L171.896 458.336L171.896 459.055C171.896 460.493 172.979 461.931 174.786 461.931C176.592 461.931 177.676 460.852 177.676 459.055L177.676 458.336L177.676 457.976L177.676 457.617L177.676 447.552L177.676 446.833L177.676 435.689L177.676 434.97L177.676 423.466C177.676 422.028 176.592 420.591 174.786 420.591C172.979 420.591 171.896 422.028 171.896 423.466Z" fill="#2F87A5"/>
<path d="M289.318 505.068L289.68 505.428C290.402 506.866 292.209 507.225 293.293 506.506C294.015 506.147 294.738 505.068 294.738 503.99C294.738 503.631 294.738 503.271 294.377 502.552L294.015 501.833C293.293 500.395 291.486 500.036 290.402 501.114C288.957 502.193 288.596 503.99 289.318 505.068Z" fill="#0B2D7C"/>
<path d="M292.569 514.776L292.569 515.495C292.569 516.933 294.015 518.011 295.46 518.011C296.905 518.011 297.989 516.573 297.989 515.495L297.989 514.776C297.989 513.338 296.544 512.26 295.099 512.26C293.292 511.9 292.208 513.338 292.569 514.776Z" fill="#0B2D7C"/>
<path d="M270.535 491.409C270.173 492.847 271.257 494.285 273.064 494.285L273.786 494.285C275.232 494.645 276.677 493.566 277.038 492.128L277.038 491.769C277.038 490.331 275.954 489.252 274.87 489.252L274.148 489.252C271.98 488.893 270.535 489.971 270.535 491.409Z" fill="#0B2D7C"/>
<path d="M292.572 525.56L292.572 526.279C292.572 527.717 293.656 529.155 295.463 529.155C297.269 529.155 298.353 528.077 298.353 526.279L298.353 525.56C298.353 524.122 297.269 522.685 295.463 522.685C293.656 522.685 292.572 524.122 292.572 525.56Z" fill="#0B2D7C"/>
<path d="M258.973 491.769C258.973 493.207 260.057 494.645 261.863 494.645L262.586 494.645C264.031 494.645 265.476 493.567 265.476 491.769C265.476 489.972 264.392 488.893 262.586 488.893L261.863 488.893C260.418 488.893 258.973 490.331 258.973 491.769Z" fill="#0B2D7C"/>
<path d="M292.572 548.207L292.572 548.926C292.572 550.364 293.656 551.802 295.463 551.802C297.269 551.802 298.353 550.724 298.353 548.926L298.353 548.207C298.353 546.769 297.269 545.331 295.463 545.331C293.656 545.331 292.572 546.769 292.572 548.207Z" fill="#0B2D7C"/>
<path d="M292.572 537.063L292.572 537.782C292.572 539.22 293.656 540.658 295.463 540.658C297.269 540.658 298.353 539.579 298.353 537.782L298.353 537.063C298.353 535.625 297.269 534.187 295.463 534.187C293.656 534.187 292.572 535.625 292.572 537.063Z" fill="#0B2D7C"/>
<path d="M281.373 494.285C280.65 495.363 281.011 497.16 282.095 497.879L282.818 498.239C283.902 498.958 285.708 498.598 286.431 497.52C286.792 497.16 286.792 496.441 286.792 496.082C286.792 495.363 286.431 494.285 285.708 493.925L284.986 493.566C283.902 492.487 282.456 492.847 281.373 494.285Z" fill="#0B2D7C"/>
<path d="M207.303 480.624L207.664 481.343C208.387 482.781 210.194 483.14 211.277 482.062C212 481.702 212.723 480.624 212.723 479.905C212.723 479.546 212.723 478.827 212.361 478.467L212 478.108C211.277 476.67 209.471 476.31 208.387 477.029C207.303 477.748 206.58 479.186 207.303 480.624Z" fill="#0B2D7C"/>
<path d="M203.693 468.763L203.693 469.482C203.693 470.92 205.138 471.999 206.584 471.999C208.029 471.999 209.113 470.561 209.113 469.482L209.113 469.123L209.113 468.404C209.113 466.966 207.668 465.887 206.222 465.887C204.416 465.887 203.332 467.325 203.693 468.763Z" fill="#0B2D7C"/>
<path d="M215.616 489.613L216.338 489.973C217.422 490.692 219.229 490.332 219.951 489.254C220.313 488.894 220.313 488.175 220.313 487.816C220.313 487.097 219.951 486.018 219.229 485.659L218.867 485.299C217.783 484.58 215.977 484.94 215.254 486.018C214.17 487.097 214.532 488.894 215.616 489.613Z" fill="#0B2D7C"/>
<path d="M247.77 491.769C247.77 493.207 248.854 494.645 250.66 494.645L251.383 494.645C252.828 494.645 254.273 493.567 254.273 491.769C254.273 489.972 253.19 488.893 251.383 488.893L250.66 488.893C248.854 488.893 247.77 490.331 247.77 491.769Z" fill="#0B2D7C"/>
<path d="M236.208 491.769C236.208 493.207 237.291 494.645 239.098 494.645L239.821 494.645C241.266 494.645 242.711 493.567 242.711 491.769C242.711 489.972 241.266 488.893 239.821 488.893L239.098 488.893C237.653 488.893 236.208 490.331 236.208 491.769Z" fill="#0B2D7C"/>
<path d="M225.009 491.05C224.647 492.488 225.731 493.925 227.176 494.285C227.538 494.285 227.899 494.285 227.899 494.285C229.344 494.285 230.789 493.207 230.789 491.769L230.789 491.409C230.789 489.971 229.705 488.893 228.26 488.893L227.538 488.893C226.454 488.533 225.37 489.612 225.009 491.05Z" fill="#0B2D7C"/>
<path d="M292.572 560.07C292.572 561.508 293.656 562.946 295.463 562.946C297.269 562.946 298.353 561.867 298.353 560.07L298.353 559.711C297.992 558.273 296.908 557.194 295.463 557.194C294.017 557.194 292.572 558.632 292.572 560.07Z" fill="#0B2D7C"/>
<path d="M203.331 423.468L203.331 434.612L203.331 435.331L203.331 446.115L203.331 446.834L203.331 457.619L203.331 457.978L203.331 458.338C203.331 459.776 204.415 461.214 206.221 461.214C208.028 461.214 209.112 460.135 209.112 458.338L209.112 457.978L209.112 457.619L209.112 446.834L209.112 445.756L209.112 434.972L209.112 434.253L209.112 423.109C209.112 421.671 208.028 420.233 206.221 420.233C204.415 420.233 203.331 422.03 203.331 423.468Z" fill="#0B2D7C"/>
<path d="M147.326 140.916C147.326 142.354 146.242 143.792 144.436 143.792C142.629 143.792 141.545 142.713 141.545 141.275L141.545 140.916C141.545 139.478 142.629 138.04 144.436 138.04C146.242 138.04 147.326 139.478 147.326 140.916Z" fill="#0B2D7C"/>
<path d="M208.75 140.916C208.75 142.354 207.666 143.792 205.859 143.792C204.053 143.792 202.969 142.713 202.969 141.275L202.969 140.916C202.969 139.478 204.053 138.04 205.859 138.04C207.666 138.04 208.75 139.478 208.75 140.916Z" fill="#0B2D7C"/>
<path d="M85.5459 76.5693C85.5459 78.0072 86.6298 79.4451 88.4363 79.4451L89.1589 79.4451C90.6042 79.4451 92.0494 78.3667 92.0494 76.5693C92.0494 74.7719 90.9655 73.6934 89.1589 73.6934L88.4363 73.6934C86.6298 73.6934 85.5459 75.1314 85.5459 76.5693Z" fill="#0B2D7C"/>
<path d="M96.7488 76.5693C96.7488 78.0072 97.8327 79.4451 99.6392 79.4451L100.362 79.4451C101.807 79.4451 103.252 78.3667 103.252 76.5693C103.252 74.7719 102.168 73.6934 100.362 73.6934L99.6392 73.6934C98.194 73.6934 96.7488 75.1314 96.7488 76.5693Z" fill="#0B2D7C"/>
<path d="M119.51 76.5699C119.51 78.0078 120.594 79.4457 122.04 79.4457L122.762 79.4457C124.207 79.8052 125.653 78.7267 126.014 77.2888L126.014 76.9293C126.014 75.4914 124.93 74.413 123.846 74.413C123.485 74.413 123.124 74.413 123.124 74.413C121.317 73.694 119.872 74.7725 119.51 76.5699Z" fill="#0B2D7C"/>
<path d="M130.711 79.0845C129.988 80.163 130.35 81.9603 131.434 82.6793L131.795 83.0388C132.879 83.7578 134.685 83.3982 135.408 82.3198C135.769 81.9603 135.769 81.2414 135.769 80.8819C135.769 80.163 135.408 79.0845 134.685 78.725L133.963 78.3656C133.24 77.2871 131.434 77.6466 130.711 79.0845Z" fill="#0B2D7C"/>
<path d="M141.908 99.576L141.908 100.295C141.908 101.733 143.353 102.811 144.798 102.811C146.243 102.811 147.327 101.373 147.327 100.295C147.327 100.295 147.327 100.295 147.327 99.9355L147.327 99.2165C147.327 97.7786 145.882 96.7001 144.437 96.7001C142.63 96.7001 141.547 97.7786 141.908 99.576Z" fill="#0B2D7C"/>
<path d="M138.657 89.8684L139.018 90.2279C139.741 91.6659 141.547 92.0253 142.631 91.3063C143.354 90.9469 144.076 89.8684 144.076 88.79C144.076 88.4305 144.076 87.7116 143.715 87.3521L143.354 86.6332C142.631 85.1952 140.825 84.8357 139.741 85.9141C138.295 86.9926 137.934 88.79 138.657 89.8684Z" fill="#0B2D7C"/>
<path d="M141.911 110.36L141.911 111.079L141.911 121.504L141.911 122.223L141.911 133.007L141.911 133.726L141.911 144.87C141.911 146.308 142.995 147.746 144.801 147.746C146.608 147.746 147.691 146.667 147.691 144.87L147.691 133.726L147.691 133.007L147.691 122.223L147.691 121.504L147.691 111.079L147.691 110.36C147.691 108.922 146.608 107.484 144.801 107.484C142.995 107.484 141.911 108.922 141.911 110.36Z" fill="#0B2D7C"/>
<path d="M108.311 76.5693C108.311 78.0072 109.395 79.4451 111.202 79.4451L111.924 79.4451C113.37 79.4451 114.815 78.3667 114.815 76.5693C114.815 74.7719 113.731 73.6934 111.924 73.6934L111.202 73.6934C109.395 73.6934 108.311 75.1314 108.311 76.5693Z" fill="#0B2D7C"/>
<path d="M52.6692 30.5547L52.6692 31.2737C52.6692 32.7116 53.7531 34.1495 55.5596 34.1495C57.3661 34.1495 58.45 33.0711 58.45 31.2737L58.45 30.5547C58.45 29.1168 57.3661 27.6789 55.5596 27.6789C53.7531 27.6789 52.6692 29.1168 52.6692 30.5547Z" fill="#0B2D7C"/>
<path d="M52.6692 19.0529L52.6692 19.7719C52.6692 21.2098 53.7531 22.6477 55.5596 22.6477C57.3661 22.6477 58.45 21.5693 58.45 19.7719L58.45 19.0529C58.45 17.615 57.3661 16.1771 55.5596 16.1771C53.7531 16.1771 52.6692 17.615 52.6692 19.0529Z" fill="#0B2D7C"/>
<path d="M52.6692 41.6995L52.6692 42.4185C52.6692 43.8564 53.7531 45.2943 55.5596 45.2943C57.3661 45.2943 58.45 44.2159 58.45 42.4185L58.45 41.6995C58.45 40.2616 57.3661 38.8237 55.5596 38.8237C53.7531 38.8237 52.6692 40.2616 52.6692 41.6995Z" fill="#0B2D7C"/>
<path d="M74.3469 75.8497C73.9856 77.2876 75.0695 78.7255 76.5147 79.085L77.2373 79.085C78.6825 79.085 80.1277 78.3661 80.1277 76.5687L80.1277 76.2092C80.1277 74.7713 79.0438 73.6928 77.5986 73.6928L76.876 73.6928C75.7921 73.3334 74.3469 74.4118 74.3469 75.8497Z" fill="#0B2D7C"/>
<path d="M64.9525 74.4131L65.6751 74.7726C66.759 75.4915 68.5655 75.132 69.2881 74.0536C69.6494 73.6941 69.6494 72.9751 69.6494 72.6157C69.6494 71.8967 69.2881 70.8183 68.5655 70.4588L67.8429 70.0993C66.759 69.3804 64.9524 69.7398 64.2298 70.8183C63.1459 71.8967 63.5072 73.3346 64.9525 74.4131Z" fill="#0B2D7C"/>
<path d="M56.2821 65.0651L56.6434 65.7841C57.366 67.222 59.1725 67.5814 60.2564 66.503C60.979 66.1435 61.7016 65.0651 61.7016 64.3461C61.7016 63.9866 61.7016 63.2677 61.3403 62.9082L60.979 62.5487C60.2564 61.1108 58.4499 60.7514 57.366 61.4703C56.2821 62.1893 55.5595 63.9867 56.2821 65.0651Z" fill="#0B2D7C"/>
<path d="M52.6692 53.2029L52.6692 53.9218C52.6692 55.3597 54.1144 56.4382 55.5596 56.4382C57.0048 56.4382 58.0887 55.0003 58.0887 53.9218C58.0887 53.9218 58.0887 53.9218 58.0887 53.5623L58.0887 52.8434C58.0887 51.4055 56.6435 50.327 55.1983 50.327C53.7531 50.6865 52.6692 51.765 52.6692 53.2029Z" fill="#0B2D7C"/>
<path d="M52.6692 7.90748C52.6692 9.70488 53.7531 10.7833 55.5596 10.7833C57.3661 10.7833 58.45 9.3454 58.45 7.90748C58.45 6.46956 57.3661 5.03163 55.5596 5.03163C53.7531 5.03163 52.6692 6.46956 52.6692 7.90748Z" fill="#0B2D7C"/>
<path d="M177.318 140.916C177.318 142.354 176.234 143.792 174.428 143.792C172.621 143.792 171.537 142.713 171.537 141.275L171.537 140.916C171.537 139.478 172.621 138.04 174.428 138.04C176.234 138.04 177.318 139.478 177.318 140.916Z" fill="#0B2D7C"/>
<path d="M171.896 85.1968L171.896 85.9158C171.896 87.3537 172.979 88.7916 174.786 88.7916C176.592 88.7916 177.676 87.7132 177.676 85.9158L177.676 85.1968C177.676 83.7589 176.592 82.321 174.786 82.321C172.979 82.321 171.896 83.7589 171.896 85.1968Z" fill="#2F87A5"/>
<path d="M171.896 73.3325L171.896 74.0515C171.896 75.4894 172.979 76.9273 174.786 76.9273C176.592 76.9273 177.676 75.8489 177.676 74.0515L177.676 73.3325C177.676 71.8946 176.592 70.4567 174.786 70.4567C172.979 70.4567 171.896 71.8946 171.896 73.3325Z" fill="#2F87A5"/>
<path d="M171.896 97.0584L171.896 97.7774C171.896 99.2153 172.979 100.653 174.786 100.653C176.592 100.653 177.676 99.5747 177.676 97.7774L177.676 97.0584C177.676 95.6205 176.592 94.1826 174.786 94.1826C172.979 94.1826 171.896 95.6205 171.896 97.0584Z" fill="#2F87A5"/>
<path d="M171.896 108.921L171.896 109.64L171.896 109.999L171.896 110.359L171.896 120.424L171.896 121.143L171.896 132.287L171.896 133.006L171.896 144.509C171.896 145.947 172.979 147.385 174.786 147.385C176.592 147.385 177.676 146.307 177.676 144.509L177.676 133.006L177.676 132.287L177.676 121.143L177.676 120.424L177.676 110.359L177.676 109.999L177.676 109.64L177.676 108.921C177.676 107.483 176.592 106.045 174.786 106.045C172.979 106.045 171.896 107.483 171.896 108.921Z" fill="#2F87A5"/>
<path d="M171.896 61.8307L171.896 62.5496C171.896 63.9875 172.979 65.4255 174.786 65.4255C176.592 65.4255 177.676 64.347 177.676 62.5496L177.676 61.8307C177.676 60.3928 176.592 58.9548 174.786 58.9548C172.979 58.9548 171.896 60.0333 171.896 61.8307Z" fill="#2F87A5"/>
<path d="M171.896 26.2407L171.896 26.9596C171.896 28.3975 172.979 29.8354 174.786 29.8354C176.592 29.8354 177.676 28.757 177.676 26.9596L177.676 26.2407C177.676 24.8027 176.592 23.3648 174.786 23.3648C172.979 23.3648 171.896 24.8027 171.896 26.2407Z" fill="#2F87A5"/>
<path d="M171.896 14.3792L171.896 15.0982C171.896 16.5361 172.979 17.974 174.786 17.974C176.592 17.974 177.676 16.8955 177.676 15.0982L177.676 14.3792C177.676 12.9413 176.592 11.5034 174.786 11.5034C172.979 11.5034 171.896 12.9413 171.896 14.3792Z" fill="#2F87A5"/>
<path d="M171.896 38.1048L171.896 38.8237C171.896 40.2617 172.979 41.6996 174.786 41.6996C176.592 41.6996 177.676 40.6211 177.676 38.8237L177.676 38.1048C177.676 36.6669 176.592 35.2289 174.786 35.2289C172.979 35.2289 171.896 36.6669 171.896 38.1048Z" fill="#2F87A5"/>
<path d="M171.896 49.9665L171.896 50.6855C171.896 52.1235 172.979 53.5613 174.786 53.5613C176.592 53.5613 177.676 52.4829 177.676 50.6855L177.676 49.9665C177.676 48.5286 176.592 47.0908 174.786 47.0908C172.979 47.0908 171.896 48.5286 171.896 49.9665Z" fill="#2F87A5"/>
<path d="M171.896 2.87574C171.896 4.67314 172.979 5.75159 174.786 5.75159C176.592 5.75159 177.676 4.31366 177.676 2.87574C177.676 1.43782 176.592 -0.00010654 174.786 -0.000106461C172.979 -0.000106382 171.896 1.43782 171.896 2.87574Z" fill="#2F87A5"/>
<path d="M207.669 86.9929L207.307 87.7119C206.585 89.1498 206.946 90.5877 208.391 91.3066C209.836 92.0256 211.282 91.6662 212.004 90.2283L212.366 89.8688C212.727 89.5093 212.727 88.7903 212.727 88.4309C212.727 87.3524 212.366 86.6334 211.282 86.274C210.198 85.555 208.391 85.9145 207.669 86.9929Z" fill="#0B2D7C"/>
<path d="M216.336 78.3656L215.613 78.7251C214.53 79.444 214.168 81.2414 214.891 82.3199C215.613 83.3983 217.42 83.7578 218.504 83.0389L218.865 82.6794C219.588 82.3199 219.949 81.2414 219.949 80.5225C219.949 80.163 219.949 79.4441 219.588 79.0846C219.226 77.6467 217.42 77.2872 216.336 78.3656Z" fill="#0B2D7C"/>
<path d="M231.151 76.5701C231.151 74.7727 229.705 73.6943 228.26 74.0538C227.899 74.0538 227.538 74.0538 227.538 74.0538C226.092 74.4132 225.009 75.8511 225.37 77.2891C225.731 78.727 226.815 79.8054 228.622 79.446L229.344 79.446C230.067 79.0865 231.151 78.008 231.151 76.5701Z" fill="#0B2D7C"/>
<path d="M203.33 110.36L203.33 110.719L203.33 111.079L203.33 121.863L203.33 122.582L203.33 133.366L203.33 134.085L203.33 145.229C203.33 146.667 204.414 148.105 206.221 148.105C208.027 148.105 209.111 147.026 209.111 145.229L209.111 134.085L209.111 133.366L209.111 122.582L209.111 121.863L209.111 111.079L209.111 110.719L209.111 110.36C209.111 108.922 208.027 107.484 206.221 107.484C204.414 107.484 203.33 108.922 203.33 110.36Z" fill="#0B2D7C"/>
<path d="M247.768 76.5696C247.768 78.0075 248.852 79.4454 250.658 79.4454L251.381 79.4454C252.826 79.4454 254.272 78.367 254.272 76.5696C254.272 74.7722 253.188 73.6937 251.381 73.6937L250.658 73.6937C248.852 73.6937 247.768 75.1317 247.768 76.5696Z" fill="#0B2D7C"/>
<path d="M239.094 73.6926C237.649 73.6926 236.204 74.771 236.204 76.5684C236.204 78.3658 237.649 79.0848 239.094 79.0848L239.817 79.0848C241.262 79.0848 242.707 78.0063 242.707 76.2089C242.707 74.4115 241.623 73.3331 239.817 73.3331L239.094 73.3331L239.094 73.6926Z" fill="#0B2D7C"/>
<path d="M265.111 76.5696C265.111 75.1317 264.027 73.6937 262.221 73.6937L261.498 73.6937C260.053 73.6937 258.608 74.7722 258.608 76.5696C258.608 78.367 259.692 79.4454 261.498 79.4454L262.221 79.4454C264.027 79.086 265.111 78.0075 265.111 76.5696Z" fill="#0B2D7C"/>
<path d="M203.688 98.8562L203.688 99.5751C203.688 101.013 204.772 102.451 206.218 102.451C207.663 102.451 209.108 101.373 209.108 99.9346L209.108 99.2157L209.108 98.8562C209.108 97.4183 208.024 96.3398 206.579 96.3398C205.134 96.3398 203.688 97.4183 203.688 98.8562Z" fill="#0B2D7C"/>
<path d="M282.453 70.0985C281.369 70.8174 281.008 72.6148 281.73 73.6933C282.453 74.7717 284.259 75.1312 285.343 74.4122L286.066 74.0528C286.788 73.6933 287.15 72.6148 287.15 71.8959C287.15 71.5364 287.15 70.8174 286.788 70.458C286.066 69.3795 284.259 69.02 283.175 69.739L282.453 70.0985Z" fill="#0B2D7C"/>
<path d="M273.422 73.6926L272.699 73.6926C271.254 73.6926 270.17 75.1305 270.17 76.5684C270.17 78.0064 271.615 79.0848 273.061 79.0848L273.783 79.0848C275.228 78.7253 275.951 77.6469 275.951 76.5684L275.951 76.2089C276.312 74.4115 274.867 73.3331 273.422 73.6926Z" fill="#0B2D7C"/>
<path d="M292.572 19.053L292.572 19.7719C292.572 21.2098 293.656 22.6478 295.463 22.6478C297.269 22.6478 298.353 21.5693 298.353 19.7719L298.353 19.053C298.353 17.6151 297.269 16.1771 295.463 16.1771C293.656 16.1771 292.572 17.6151 292.572 19.053Z" fill="#0B2D7C"/>
<path d="M292.572 41.6998L292.572 42.4188C292.572 43.8567 293.656 45.2946 295.463 45.2946C297.269 45.2946 298.353 44.2162 298.353 42.4188L298.353 41.6998C298.353 40.2619 297.269 38.824 295.463 38.824C293.656 38.824 292.572 40.2619 292.572 41.6998Z" fill="#0B2D7C"/>
<path d="M292.572 30.5557L292.572 31.2747C292.572 32.7126 293.656 34.1505 295.463 34.1505C297.269 34.1505 298.353 33.0721 298.353 31.2747L298.353 30.5557C298.353 29.1178 297.269 27.6799 295.463 27.6799C293.656 27.6799 292.572 29.1178 292.572 30.5557Z" fill="#0B2D7C"/>
<path d="M292.572 52.8434L292.572 53.5623C292.572 55.0002 293.656 56.4382 295.101 56.4382C296.547 56.4382 297.992 55.3597 297.992 53.9218L297.992 53.2029C297.992 51.765 296.908 50.6865 295.463 50.6865C294.017 50.3271 292.572 51.4055 292.572 52.8434Z" fill="#0B2D7C"/>
<path d="M289.679 62.5506L289.318 62.9101C288.595 64.348 288.957 65.786 290.041 66.5049C291.486 67.2239 292.931 66.8644 293.654 65.786L294.015 65.067C294.376 64.7075 294.376 64.348 294.376 63.6291C294.376 62.5506 294.015 61.8317 292.931 61.1127C291.847 60.7532 290.402 61.1127 289.679 62.5506Z" fill="#0B2D7C"/>
<path d="M292.572 7.90852C292.572 9.70591 293.656 10.7844 295.463 10.7844C297.269 10.7844 298.353 9.34643 298.353 7.90852C298.353 6.4706 297.269 5.03267 295.463 5.03267C293.656 5.03267 292.572 6.4706 292.572 7.90852Z" fill="#0B2D7C"/>
<path d="M72.1753 431.015L56.278 440.002L47.2454 430.656L53.0262 415.558L73.9818 427.061L72.1753 431.015Z" fill="white" stroke="#0B2D7C" stroke-miterlimit="10" stroke-linecap="round" stroke-linejoin="round"/>
<path d="M62.0577 425.623L74.342 424.545L75.0646 424.904L69.6451 438.924L56.2769 440.003L59.8899 431.375" fill="white"/>
<path d="M62.0577 425.623L74.342 424.545L75.0646 424.904L69.6451 438.924L56.2769 440.003L59.8899 431.375" stroke="#0B2D7C" stroke-miterlimit="10" stroke-linecap="round" stroke-linejoin="round"/>
<path d="M75.0664 424.904L62.7821 425.983L62.0594 425.983L57.0012 420.231L56.6399 419.871L53.0269 415.558L60.9755 414.839L61.6981 414.839L66.0338 414.479L68.2016 416.996L68.5629 417.355L68.9242 417.715L70.0081 419.152L72.5373 422.028L73.2599 422.388L75.0664 424.904Z" fill="white" stroke="#0B2D7C" stroke-miterlimit="10" stroke-linecap="round" stroke-linejoin="round"/>
<path d="M30.2656 170.033L19.4265 189.086L4.25173 185.131L0.999999 165.719L29.543 165L30.2656 170.033Z" fill="white" stroke="#0B2D7C" stroke-miterlimit="10" stroke-linecap="round" stroke-linejoin="round"/>
<path d="M16.5374 170.752L28.4604 162.125L29.5443 162.125L32.0734 180.099L19.4278 189.086L17.6213 178.301" fill="white"/>
<path d="M16.5374 170.752L28.4604 162.125L29.5443 162.125L32.0734 180.099L19.4278 189.086L17.6213 178.301" stroke="#0B2D7C" stroke-miterlimit="10" stroke-linecap="round" stroke-linejoin="round"/>
<path d="M29.5432 162.124L17.2589 170.392L16.5363 171.111L8.22632 168.235L7.50371 168.235L1.00024 165.719L8.58762 160.327L9.31023 159.967L13.6459 156.732L17.6202 158.17L18.3428 158.17L19.0654 158.529L20.8719 159.248L25.2076 160.686L25.9302 161.046L29.5432 162.124Z" fill="white" stroke="#0B2D7C" stroke-miterlimit="10" stroke-linecap="round" stroke-linejoin="round"/>
<path d="M292.572 216.765L278.12 228.987L266.919 221.798L269.81 205.262L293.295 212.451L292.572 216.765Z" fill="white" stroke="#0B2D7C" stroke-miterlimit="10" stroke-linecap="round" stroke-linejoin="round"/>
<path d="M281.009 213.531L293.294 209.936L294.016 209.936L291.487 225.394L278.119 228.988L279.925 220.001" fill="white"/>
<path d="M281.009 213.531L293.294 209.936L294.016 209.936L291.487 225.394L278.119 228.988L279.925 220.001" stroke="#0B2D7C" stroke-miterlimit="10" stroke-linecap="round" stroke-linejoin="round"/>
<path d="M294.018 209.936L281.733 213.53L281.011 213.89L274.869 209.217L274.507 208.857L269.81 205.262L277.759 203.106L278.482 202.746L282.817 201.308L285.708 203.465L286.069 203.824L286.43 204.184L287.875 205.262L291.127 207.779L291.85 208.138L294.018 209.936Z" fill="white" stroke="#0B2D7C" stroke-miterlimit="10" stroke-linecap="round" stroke-linejoin="round"/>
<path fill-rule="evenodd" clip-rule="evenodd" d="M259.938 305.729H225.271V322.353C225.271 325.993 223.828 329.479 221.254 332.046C218.684 334.622 215.196 336.06 211.56 336.06H207.938V370.729H259.938V305.729Z" fill="#D0DDFB"/>
<path fill-rule="evenodd" clip-rule="evenodd" d="M259.938 313.123C259.938 311.165 259.159 309.28 257.772 307.899C256.385 306.509 254.505 305.729 252.544 305.729H246.938V370.729H259.938V313.123Z" fill="#D0DDFB"/>
<path fill-rule="evenodd" clip-rule="evenodd" d="M151.062 207.139C151.062 204.522 150.022 202.008 148.172 200.158C146.322 198.308 143.808 197.268 141.191 197.268C126.111 197.268 99.0625 197.268 99.0625 197.268V262.268H120.729V243.803C120.729 237.247 126.042 231.934 132.598 231.934H151.062V207.139Z" fill="#D0DDFB"/>
<path fill-rule="evenodd" clip-rule="evenodd" d="M225 243.151C225 236.992 220.008 232 213.85 232C196.352 232 162.648 232 145.15 232C138.992 232 134 236.992 134 243.151C134 263.141 134 304.859 134 324.85C134 331.008 138.992 336 145.15 336C162.648 336 196.352 336 213.85 336C220.008 336 225 331.008 225 324.85C225 304.859 225 263.141 225 243.151Z" fill="#E9EDFC"/>
<path fill-rule="evenodd" clip-rule="evenodd" d="M145.15 232H200.85C207.008 232 212 236.992 212 243.15C212 263.144 212 304.856 212 324.85C212 331.008 207.008 336 200.85 336H213.85C220.008 336 225 331.008 225 324.85C225 304.856 225 263.144 225 243.15C225 236.992 220.008 232 213.85 232C196.352 232 162.648 232 145.15 232ZM145.15 336H166.465H145.15ZM145.007 336H145.08H145.007ZM144.864 335.996H144.942H144.864ZM144.721 335.991L144.799 335.996L144.721 335.991ZM144.578 335.987H144.66H144.578ZM144.435 335.978L144.517 335.983L144.435 335.978ZM144.292 335.965L144.378 335.974L144.292 335.965ZM144.153 335.957L144.235 335.961L144.153 335.957ZM144.01 335.944L144.097 335.952L144.01 335.944ZM143.871 335.926L143.958 335.935L143.871 335.926ZM143.733 335.909L143.819 335.922L143.733 335.909ZM143.594 335.892L143.681 335.905L143.594 335.892ZM143.455 335.87L143.542 335.883L143.455 335.87ZM143.317 335.848L143.403 335.866L143.317 335.848ZM143.178 335.827L143.265 335.84L143.178 335.827ZM143.039 335.801L143.13 335.818L143.039 335.801ZM142.905 335.775L142.992 335.792L142.905 335.775ZM142.766 335.744L142.857 335.762L142.766 335.744ZM142.632 335.714L142.723 335.736L142.632 335.714ZM142.498 335.684L142.584 335.705L142.498 335.684ZM142.363 335.649L142.45 335.671L142.363 335.649ZM142.233 335.614L142.316 335.636L142.233 335.614ZM142.099 335.575L142.181 335.601L142.099 335.575ZM141.965 335.541L142.051 335.562L141.965 335.541ZM141.835 335.497L141.917 335.523L141.835 335.497ZM141.705 335.458L141.787 335.484L141.705 335.458ZM141.575 335.415L141.657 335.441L141.575 335.415ZM141.445 335.367L141.523 335.398L141.445 335.367ZM141.319 335.324L141.397 335.35L141.319 335.324ZM141.189 335.276L141.267 335.302L141.189 335.276ZM141.063 335.224L141.137 335.255L141.063 335.224ZM140.938 335.177L141.011 335.207L140.938 335.177ZM140.812 335.125L140.881 335.155L140.812 335.125ZM140.686 335.068L140.756 335.099L140.686 335.068ZM140.561 335.016L140.63 335.047L140.561 335.016ZM140.439 334.96L140.509 334.99L140.439 334.96ZM140.318 334.899L140.383 334.934L140.318 334.899ZM140.197 334.843L140.262 334.873L140.197 334.843ZM140.075 334.778L140.14 334.813L140.075 334.778ZM139.954 334.717L140.019 334.752L139.954 334.717ZM139.837 334.652L139.898 334.687L139.837 334.652ZM139.72 334.587L139.776 334.622L139.72 334.587ZM139.599 334.522L139.659 334.557L139.599 334.522ZM139.486 334.453L139.542 334.488L139.486 334.453ZM139.369 334.384L139.425 334.418L139.369 334.384ZM139.256 334.314L139.308 334.349L139.256 334.314ZM139.139 334.245L139.196 334.28L139.139 334.245ZM139.027 334.171L139.083 334.206L139.027 334.171ZM138.918 334.093L138.97 334.132L138.918 334.093ZM138.806 334.02L138.858 334.054L138.806 334.02ZM138.697 333.942L138.749 333.981L138.697 333.942ZM138.589 333.864L138.637 333.903L138.589 333.864ZM138.481 333.786L138.528 333.82L138.481 333.786ZM138.372 333.703L138.424 333.742L138.372 333.703ZM138.268 333.621L138.316 333.66L138.268 333.621ZM138.16 333.539L138.212 333.578L138.16 333.539ZM138.056 333.452L138.108 333.491L138.056 333.452ZM137.956 333.37L138.004 333.409L137.956 333.37ZM137.852 333.279L137.9 333.322L137.852 333.279ZM137.753 333.192L137.8 333.235L137.753 333.192ZM137.653 333.101L137.701 333.144L137.653 333.101ZM137.553 333.014L137.601 333.058L137.553 333.014ZM137.458 332.919L137.506 332.967L137.458 332.919ZM137.363 332.828L137.41 332.871L137.363 332.828ZM137.267 332.733L137.315 332.78L137.267 332.733ZM137.172 332.637L137.22 332.685L137.172 332.637ZM137.081 332.542L137.124 332.59L137.081 332.542ZM136.986 332.447L137.033 332.494L136.986 332.447ZM136.899 332.347L136.942 332.399L136.899 332.347ZM136.808 332.247L136.856 332.299L136.808 332.247ZM136.721 332.148L136.769 332.2L136.721 332.148ZM136.63 332.044L136.678 332.1L136.63 332.044ZM136.548 331.94L136.596 332L136.548 331.94ZM136.461 331.84L136.509 331.896L136.461 331.84ZM136.379 331.732L136.427 331.792L136.379 331.732ZM136.297 331.628L136.344 331.688L136.297 331.628ZM136.214 331.519L136.262 331.584L136.214 331.519ZM136.136 331.411L136.184 331.48L136.136 331.411ZM136.058 331.303L136.106 331.372L136.058 331.303ZM135.98 331.194L136.028 331.264L135.98 331.194ZM135.907 331.082L135.954 331.155L135.907 331.082ZM135.829 330.973L135.881 331.047L135.829 330.973ZM135.755 330.861L135.807 330.934L135.755 330.861ZM135.686 330.744L135.733 330.822L135.686 330.744ZM135.616 330.631L135.664 330.709L135.616 330.631ZM135.547 330.514L135.595 330.596L135.547 330.514ZM135.478 330.397L135.525 330.484L135.478 330.397ZM135.413 330.28L135.46 330.367L135.413 330.28ZM135.348 330.163L135.395 330.254L135.348 330.163ZM135.283 330.046L135.33 330.137L135.283 330.046ZM135.222 329.925L135.27 330.016L135.222 329.925ZM135.157 329.803L135.205 329.899L135.157 329.803ZM135.101 329.682L135.148 329.777L135.101 329.682ZM135.04 329.561L135.088 329.66L135.04 329.561ZM134.984 329.439L135.031 329.539L134.984 329.439ZM134.932 329.314L134.975 329.418L134.932 329.314ZM134.875 329.188L134.923 329.292L134.875 329.188ZM134.823 329.062L134.867 329.171L134.823 329.062ZM134.776 328.937L134.815 329.045L134.776 328.937ZM134.724 328.811L134.767 328.919L134.724 328.811ZM134.676 328.681L134.719 328.794L134.676 328.681ZM134.633 328.555L134.672 328.664L134.633 328.555ZM134.585 328.425L134.624 328.538L134.585 328.425ZM134.542 328.295L134.581 328.408L134.542 328.295ZM134.503 328.165L134.537 328.278L134.503 328.165ZM134.459 328.035L134.498 328.148L134.459 328.035ZM134.425 327.901L134.455 328.018L134.425 327.901ZM134.386 327.767L134.42 327.884L134.386 327.767ZM134.351 327.637L134.381 327.754L134.351 327.637ZM134.316 327.502L134.347 327.619L134.316 327.502ZM134.286 327.368L134.312 327.485L134.286 327.368ZM134.256 327.234L134.282 327.351L134.256 327.234ZM134.225 327.095L134.251 327.212L134.225 327.095ZM134.199 326.961L134.221 327.073L134.199 326.961ZM134.173 326.822L134.195 326.939L134.173 326.822ZM134.152 326.683L134.169 326.8L134.152 326.683ZM134.13 326.545L134.147 326.657L134.13 326.545ZM134.108 326.406L134.126 326.519L134.108 326.406ZM134.091 326.267L134.104 326.376L134.091 326.267ZM134.074 326.129L134.087 326.233L134.074 326.129ZM134.056 325.99L134.069 326.09L134.056 325.99ZM134.043 325.847L134.052 325.947L134.043 325.847ZM134.035 325.708L134.039 325.804L134.035 325.708ZM134.022 325.565L134.03 325.656L134.022 325.565ZM134.013 325.422L134.017 325.509L134.013 325.422ZM134.009 325.279L134.013 325.357L134.009 325.279ZM134.004 325.136V325.206V325.136ZM134 324.993V325.05V324.993ZM134 242.959V243.007V242.959ZM134.004 242.799V242.864V242.799ZM134.013 242.643L134.009 242.721L134.013 242.643ZM134.017 242.495L134.013 242.578L134.017 242.495ZM134.03 242.348L134.022 242.435L134.03 242.348ZM134.039 242.201L134.035 242.292L134.039 242.201ZM134.052 242.053L134.043 242.153L134.052 242.053ZM134.069 241.91L134.056 242.01L134.069 241.91ZM134.087 241.767L134.074 241.871L134.087 241.767ZM134.104 241.624L134.091 241.733L134.104 241.624ZM134.126 241.481L134.108 241.594L134.126 241.481ZM134.147 241.343L134.13 241.455L134.147 241.343ZM134.169 241.204L134.152 241.317L134.169 241.204ZM134.195 241.065L134.173 241.178L134.195 241.065ZM134.221 240.927L134.199 241.039L134.221 240.927ZM134.251 240.788L134.225 240.905L134.251 240.788ZM134.282 240.654L134.256 240.766L134.282 240.654ZM134.312 240.515L134.286 240.632L134.312 240.515ZM134.347 240.381L134.316 240.498L134.347 240.381ZM134.381 240.246L134.351 240.363L134.381 240.246ZM134.42 240.116L134.386 240.233L134.42 240.116ZM134.455 239.982L134.425 240.099L134.455 239.982ZM134.498 239.852L134.459 239.965L134.498 239.852ZM134.537 239.722L134.503 239.835L134.537 239.722ZM134.581 239.592L134.542 239.705L134.581 239.592ZM134.624 239.462L134.585 239.575L134.624 239.462ZM134.672 239.336L134.633 239.445L134.672 239.336ZM134.719 239.206L134.676 239.319L134.719 239.206ZM134.767 239.081L134.724 239.189L134.767 239.081ZM134.815 238.955L134.776 239.063L134.815 238.955ZM134.867 238.829L134.823 238.938L134.867 238.829ZM134.923 238.708L134.875 238.812L134.923 238.708ZM134.975 238.587L134.932 238.686L134.975 238.587ZM135.031 238.461L134.984 238.561L135.031 238.461ZM135.088 238.34L135.04 238.439L135.088 238.34ZM135.148 238.223L135.101 238.318L135.148 238.223ZM135.205 238.101L135.157 238.197L135.205 238.101ZM135.27 237.984L135.222 238.075L135.27 237.984ZM135.33 237.863L135.283 237.954L135.33 237.863ZM135.395 237.75L135.348 237.837L135.395 237.75ZM135.46 237.633L135.413 237.72L135.46 237.633ZM135.525 237.516L135.478 237.603L135.525 237.516ZM135.595 237.404L135.547 237.486L135.595 237.404ZM135.664 237.291L135.616 237.369L135.664 237.291ZM135.733 237.178L135.686 237.256L135.733 237.178ZM135.807 237.066L135.755 237.139L135.807 237.066ZM135.881 236.953L135.829 237.027L135.881 236.953ZM135.954 236.845L135.907 236.918L135.954 236.845ZM136.028 236.736L135.98 236.806L136.028 236.736ZM136.106 236.628L136.058 236.697L136.106 236.628ZM136.184 236.52L136.136 236.589L136.184 236.52ZM136.262 236.416L136.214 236.481L136.262 236.416ZM136.344 236.312L136.297 236.372L136.344 236.312ZM136.427 236.208L136.379 236.268L136.427 236.208ZM136.509 236.104L136.461 236.16L136.509 236.104ZM136.596 236L136.548 236.06L136.596 236ZM136.678 235.9L136.63 235.956L136.678 235.9ZM136.765 235.8L136.721 235.852L136.765 235.8ZM136.856 235.701L136.808 235.753L136.856 235.701ZM136.942 235.601L136.899 235.653L136.942 235.601ZM137.033 235.506L136.986 235.553L137.033 235.506ZM137.124 235.41L137.081 235.458L137.124 235.41ZM137.22 235.315L137.172 235.363L137.22 235.315ZM137.315 235.22L137.267 235.267L137.315 235.22ZM137.41 235.129L137.363 235.172L137.41 235.129ZM137.506 235.033L137.458 235.081L137.506 235.033ZM137.601 234.942L137.553 234.986L137.601 234.942ZM137.701 234.856L137.653 234.899L137.701 234.856ZM137.8 234.765L137.753 234.808L137.8 234.765ZM137.9 234.678L137.852 234.721L137.9 234.678ZM138.004 234.591L137.956 234.63L138.004 234.591ZM138.108 234.509L138.056 234.548L138.108 234.509ZM138.212 234.422L138.16 234.461L138.212 234.422ZM138.316 234.34L138.268 234.379L138.316 234.34ZM138.42 234.258L138.372 234.297L138.42 234.258ZM138.528 234.18L138.481 234.214L138.528 234.18ZM138.637 234.097L138.589 234.136L138.637 234.097ZM138.749 234.019L138.697 234.058L138.749 234.019ZM138.858 233.946L138.806 233.98L138.858 233.946ZM138.97 233.868L138.918 233.907L138.97 233.868ZM139.083 233.794L139.027 233.829L139.083 233.794ZM139.196 233.72L139.139 233.755L139.196 233.72ZM139.308 233.651L139.256 233.686L139.308 233.651ZM139.425 233.582L139.369 233.616L139.425 233.582ZM139.542 233.512L139.486 233.547L139.542 233.512ZM139.659 233.443L139.599 233.478L139.659 233.443ZM139.776 233.378L139.72 233.413L139.776 233.378ZM139.898 233.313L139.837 233.348L139.898 233.313ZM140.019 233.248L139.954 233.283L140.019 233.248ZM140.14 233.187L140.075 233.222L140.14 233.187ZM140.262 233.127L140.197 233.157L140.262 233.127ZM140.383 233.066L140.318 233.101L140.383 233.066ZM140.509 233.01L140.439 233.04L140.509 233.01ZM140.63 232.953L140.561 232.984L140.63 232.953ZM140.756 232.901L140.686 232.932L140.756 232.901ZM140.881 232.845L140.812 232.875L140.881 232.845ZM141.011 232.793L140.938 232.823L141.011 232.793ZM141.137 232.745L141.063 232.776L141.137 232.745ZM141.267 232.698L141.189 232.724L141.267 232.698ZM141.393 232.65L141.319 232.676L141.393 232.65ZM141.523 232.602L141.445 232.633L141.523 232.602ZM141.657 232.559L141.575 232.585L141.657 232.559ZM141.787 232.516L141.705 232.542L141.787 232.516ZM141.917 232.477L141.835 232.503L141.917 232.477ZM142.051 232.438L141.965 232.459L142.051 232.438ZM142.181 232.399L142.099 232.425L142.181 232.399ZM142.316 232.364L142.233 232.386L142.316 232.364ZM142.45 232.329L142.363 232.351L142.45 232.329ZM142.584 232.299L142.498 232.316L142.584 232.299ZM142.723 232.264L142.632 232.286L142.723 232.264ZM142.857 232.238L142.766 232.256L142.857 232.238ZM142.992 232.208L142.905 232.225L142.992 232.208ZM143.13 232.182L143.039 232.199L143.13 232.182ZM143.265 232.16L143.178 232.173L143.265 232.16ZM143.403 232.134L143.317 232.152L143.403 232.134ZM143.542 232.117L143.455 232.13L143.542 232.117ZM143.681 232.095L143.594 232.108L143.681 232.095ZM143.819 232.078L143.733 232.091L143.819 232.078ZM143.958 232.065L143.871 232.074L143.958 232.065ZM144.097 232.048L144.01 232.056L144.097 232.048ZM144.235 232.039L144.153 232.043L144.235 232.039ZM144.378 232.026L144.292 232.035L144.378 232.026ZM144.517 232.017L144.435 232.022L144.517 232.017ZM144.66 232.013H144.578H144.66ZM144.799 232.004L144.721 232.009L144.799 232.004ZM144.937 232.004H144.864H144.937ZM145.08 232H145.007H145.08Z" fill="#C2CDF7"/>
<path d="M151.062 197.268H138.062V231.934H151.062V197.268Z" fill="#D0DDFB"/>
<path fill-rule="evenodd" clip-rule="evenodd" d="M190.333 351.548V362C190.333 365.449 191.703 368.756 194.142 371.191C196.578 373.631 199.884 375 203.333 375C217.079 375 242.333 375 242.333 375C244.725 375 246.667 373.059 246.667 370.667C246.667 368.275 244.725 366.333 242.333 366.333H203.333C202.185 366.333 201.08 365.878 200.27 365.064C199.455 364.253 199 363.148 199 362V351.548C199 349.156 197.059 347.215 194.667 347.215C192.275 347.215 190.333 349.156 190.333 351.548ZM259.667 366.333C262.059 366.333 264 368.275 264 370.667C264 373.059 262.059 375 259.667 375C257.275 375 255.333 373.059 255.333 370.667C255.333 368.275 257.275 366.333 259.667 366.333ZM238 327.333V349H216.333C216.333 346.608 214.392 344.667 212 344.667C209.608 344.667 207.667 346.608 207.667 349V353.333C207.667 355.725 209.608 357.667 212 357.667H242.333C244.725 357.667 246.667 355.725 246.667 353.333V323C246.667 320.608 244.725 318.667 242.333 318.667H238C235.608 318.667 233.667 320.608 233.667 323C233.667 325.392 235.608 327.333 238 327.333ZM264 353.333V314.333C264 310.884 262.631 307.578 260.191 305.142C257.756 302.703 254.449 301.333 251 301.333C244.968 301.333 238 301.333 238 301.333C235.608 301.333 233.667 303.275 233.667 305.667C233.667 308.059 235.608 310 238 310C238 310 244.968 310 251 310C252.148 310 253.253 310.455 254.064 311.27C254.878 312.08 255.333 313.185 255.333 314.333V353.333C255.333 355.725 257.275 357.667 259.667 357.667C262.059 357.667 264 355.725 264 353.333ZM229.333 245.134C229.333 240.502 227.492 236.056 224.216 232.784C220.944 229.508 216.498 227.667 211.866 227.667C191.898 227.667 154.102 227.667 134.134 227.667C129.502 227.667 125.056 229.508 121.784 232.784C118.508 236.056 116.667 240.502 116.667 245.134C116.667 265.102 116.667 302.898 116.667 322.866C116.667 327.498 118.508 331.944 121.784 335.216C125.056 338.492 129.502 340.333 134.134 340.333C154.102 340.333 191.898 340.333 211.866 340.333C216.498 340.333 220.944 338.492 224.216 335.216C227.492 331.944 229.333 327.498 229.333 322.866V245.134ZM220.667 245.134V322.866C220.667 325.201 219.739 327.437 218.088 329.088C216.437 330.739 214.201 331.667 211.866 331.667H134.134C131.799 331.667 129.563 330.739 127.912 329.088C126.261 327.437 125.333 325.201 125.333 322.866V245.134C125.333 242.799 126.261 240.563 127.912 238.912C129.563 237.261 131.799 236.333 134.134 236.333H211.866C214.201 236.333 216.437 237.261 218.088 238.912C219.739 240.563 220.667 242.799 220.667 245.134ZM203.199 301.333C203.199 301.333 207.593 301.333 207.667 301.333C210.059 301.333 212 303.275 212 305.667C212 308.05 210.072 309.987 207.693 310H203.199C200.881 310 199 311.881 199 314.199V323C199 325.392 197.059 327.333 194.667 327.333C192.275 327.333 190.333 325.392 190.333 323C190.333 323 190.333 318.576 190.333 314.199C190.333 307.092 196.092 301.333 203.199 301.333ZM82 214.667V253.667C82 257.116 83.3693 260.422 85.809 262.858C88.2443 265.297 91.5507 266.667 95 266.667C101.032 266.667 108 266.667 108 266.667C110.392 266.667 112.333 264.725 112.333 262.333C112.333 259.941 110.392 258 108 258C108 258 101.032 258 95 258C93.8517 258 92.7467 257.545 91.9363 256.73C91.1217 255.92 90.6667 254.815 90.6667 253.667V214.667C90.6667 212.275 88.7253 210.333 86.3333 210.333C83.9413 210.333 82 212.275 82 214.667ZM134 266.667H142.667C149.847 266.667 155.667 260.847 155.667 253.667V245C155.667 242.608 153.725 240.667 151.333 240.667C148.941 240.667 147 242.608 147 245V253.667C147 256.059 145.059 258 142.667 258H134C131.608 258 129.667 259.941 129.667 262.333C129.667 264.725 131.608 266.667 134 266.667ZM108 240.667V219H129.667C129.667 221.392 131.608 223.333 134 223.333C136.392 223.333 138.333 221.392 138.333 219V214.667C138.333 212.275 136.392 210.333 134 210.333H103.667C101.275 210.333 99.3333 212.275 99.3333 214.667V245C99.3333 247.392 101.275 249.333 103.667 249.333H108C110.392 249.333 112.333 247.392 112.333 245C112.333 242.608 110.392 240.667 108 240.667ZM155.667 219V206C155.667 202.551 154.297 199.244 151.858 196.809C149.422 194.369 146.116 193 142.667 193C128.921 193 103.667 193 103.667 193C101.275 193 99.3333 194.941 99.3333 197.333C99.3333 199.725 101.275 201.667 103.667 201.667H142.667C143.815 201.667 144.92 202.122 145.73 202.936C146.545 203.747 147 204.852 147 206V219C147 221.392 148.941 223.333 151.333 223.333C153.725 223.333 155.667 221.392 155.667 219ZM86.3333 193C88.7253 193 90.6667 194.941 90.6667 197.333C90.6667 199.725 88.7253 201.667 86.3333 201.667C83.9413 201.667 82 199.725 82 197.333C82 194.941 83.9413 193 86.3333 193Z" fill="#0B2D7C"/>
</svg>
