<svg width="1440" height="886" viewBox="0 0 1440 886" fill="none" xmlns="http://www.w3.org/2000/svg">
<g filter="url(#filter0_df)">
<rect x="238" y="250.596" width="958" height="385" rx="10" fill="url(#paint0_angular)" fill-opacity="0.4" shape-rendering="crispEdges"/>
</g>
<g opacity="0.5">
<path opacity="0.5" d="M870.16 187.832C870.798 187.832 871.314 187.316 871.314 186.679C871.314 186.042 870.798 185.525 870.16 185.525C869.523 185.525 869.007 186.042 869.007 186.679C869.007 187.316 869.523 187.832 870.16 187.832Z" fill="white"/>
<path opacity="0.5" d="M930.223 151.713C930.86 151.713 931.376 151.196 931.376 150.559C931.376 149.922 930.86 149.406 930.223 149.406C929.586 149.406 929.069 149.922 929.069 150.559C929.069 151.196 929.586 151.713 930.223 151.713Z" fill="white"/>
<path opacity="0.5" d="M1007.95 166.248C1008.59 166.248 1009.1 165.731 1009.1 165.094C1009.1 164.457 1008.59 163.941 1007.95 163.941C1007.31 163.941 1006.79 164.457 1006.79 165.094C1006.79 165.731 1007.31 166.248 1007.95 166.248Z" fill="white"/>
<path opacity="0.5" d="M1020.92 489.607C1021.56 489.607 1022.07 489.091 1022.07 488.454C1022.07 487.816 1021.56 487.3 1020.92 487.3C1020.28 487.3 1019.77 487.816 1019.77 488.454C1019.77 489.091 1020.28 489.607 1020.92 489.607Z" fill="white"/>
<path opacity="0.5" d="M515.552 155.814C516.189 155.814 516.706 155.298 516.706 154.661C516.706 154.024 516.189 153.507 515.552 153.507C514.915 153.507 514.398 154.024 514.398 154.661C514.398 155.298 514.915 155.814 515.552 155.814Z" fill="white"/>
<path opacity="0.5" d="M516.705 227.541C517.342 227.541 517.859 227.024 517.859 226.387C517.859 225.75 517.342 225.234 516.705 225.234C516.068 225.234 515.552 225.75 515.552 226.387C515.552 227.024 516.068 227.541 516.705 227.541Z" fill="white"/>
<path opacity="0.5" d="M424.856 135.588C425.493 135.588 426.009 135.072 426.009 134.435C426.009 133.798 425.493 133.281 424.856 133.281C424.219 133.281 423.702 133.798 423.702 134.435C423.702 135.072 424.219 135.588 424.856 135.588Z" fill="white"/>
<path opacity="0.5" d="M621.039 135.588C621.676 135.588 622.193 135.072 622.193 134.435C622.193 133.798 621.676 133.281 621.039 133.281C620.402 133.281 619.886 133.798 619.886 134.435C619.886 135.072 620.402 135.588 621.039 135.588Z" fill="white"/>
<path opacity="0.5" d="M710.762 303.626C711.399 303.626 711.916 303.109 711.916 302.472C711.916 301.835 711.399 301.318 710.762 301.318C710.125 301.318 709.608 301.835 709.608 302.472C709.608 303.109 710.125 303.626 710.762 303.626Z" fill="white"/>
<path opacity="0.5" d="M535.342 387.887C535.979 387.887 536.496 387.371 536.496 386.734C536.496 386.097 535.979 385.58 535.342 385.58C534.705 385.58 534.188 386.097 534.188 386.734C534.188 387.371 534.705 387.887 535.342 387.887Z" fill="white"/>
<path opacity="0.5" d="M438.442 389.041C439.079 389.041 439.595 388.525 439.595 387.888C439.595 387.25 439.079 386.734 438.442 386.734C437.805 386.734 437.288 387.25 437.288 387.888C437.288 388.525 437.805 389.041 438.442 389.041Z" fill="white"/>
<path opacity="0.5" d="M1076.42 424.494C1077.44 424.494 1078.26 423.668 1078.26 422.649C1078.26 421.629 1077.44 420.803 1076.42 420.803C1075.4 420.803 1074.57 421.629 1074.57 422.649C1074.57 423.668 1075.4 424.494 1076.42 424.494Z" fill="white"/>
<path opacity="0.5" d="M407.167 484.121C408.186 484.121 409.013 483.295 409.013 482.275C409.013 481.256 408.186 480.43 407.167 480.43C406.148 480.43 405.321 481.256 405.321 482.275C405.321 483.295 406.148 484.121 407.167 484.121Z" fill="white"/>
<path opacity="0.5" d="M1006.79 317.622C1007.81 317.622 1008.64 316.796 1008.64 315.776C1008.64 314.757 1007.81 313.931 1006.79 313.931C1005.78 313.931 1004.95 314.757 1004.95 315.776C1004.95 316.796 1005.78 317.622 1006.79 317.622Z" fill="white"/>
<path opacity="0.5" d="M869.032 270.89C870.052 270.89 870.878 270.063 870.878 269.044C870.878 268.025 870.052 267.198 869.032 267.198C868.013 267.198 867.187 268.025 867.187 269.044C867.187 270.063 868.013 270.89 869.032 270.89Z" fill="white"/>
<path opacity="0.5" d="M1047.04 255.329C1048.06 255.329 1048.89 254.503 1048.89 253.484C1048.89 252.464 1048.06 251.638 1047.04 251.638C1046.02 251.638 1045.2 252.464 1045.2 253.484C1045.2 254.503 1046.02 255.329 1047.04 255.329Z" fill="white"/>
<path opacity="0.5" d="M585.33 292.115C585.967 292.115 586.484 291.599 586.484 290.962C586.484 290.325 585.967 289.808 585.33 289.808C584.693 289.808 584.177 290.325 584.177 290.962C584.177 291.599 584.693 292.115 585.33 292.115Z" fill="white"/>
<path opacity="0.5" d="M654.571 240.64C655.208 240.64 655.724 240.124 655.724 239.487C655.724 238.849 655.208 238.333 654.571 238.333C653.933 238.333 653.417 238.849 653.417 239.487C653.417 240.124 653.933 240.64 654.571 240.64Z" fill="white"/>
<path opacity="0.5" d="M474.51 304.753C475.147 304.753 475.664 304.237 475.664 303.6C475.664 302.963 475.147 302.446 474.51 302.446C473.873 302.446 473.356 302.963 473.356 303.6C473.356 304.237 473.873 304.753 474.51 304.753Z" fill="white"/>
<path opacity="0.5" d="M718.375 746.598C719.012 746.598 719.529 746.081 719.529 745.444C719.529 744.807 719.012 744.29 718.375 744.29C717.738 744.29 717.222 744.807 717.222 745.444C717.222 746.081 717.738 746.598 718.375 746.598Z" fill="white"/>
<path opacity="0.5" d="M1002.05 795.817C1003.07 795.817 1003.9 794.99 1003.9 793.971C1003.9 792.952 1003.07 792.125 1002.05 792.125C1001.03 792.125 1000.21 792.952 1000.21 793.971C1000.21 794.99 1001.03 795.817 1002.05 795.817Z" fill="white"/>
<path opacity="0.5" d="M556.055 768.387C556.692 768.387 557.209 767.871 557.209 767.234C557.209 766.597 556.692 766.08 556.055 766.08C555.418 766.08 554.901 766.597 554.901 767.234C554.901 767.871 555.418 768.387 556.055 768.387Z" fill="white"/>
<path opacity="0.5" d="M466.076 701.352C466.714 701.352 467.23 700.835 467.23 700.198C467.23 699.561 466.714 699.045 466.076 699.045C465.439 699.045 464.923 699.561 464.923 700.198C464.923 700.835 465.439 701.352 466.076 701.352Z" fill="white"/>
<path opacity="0.5" d="M822.607 135.588C823.244 135.588 823.76 135.072 823.76 134.435C823.76 133.798 823.244 133.281 822.607 133.281C821.97 133.281 821.453 133.798 821.453 134.435C821.453 135.072 821.97 135.588 822.607 135.588Z" fill="white"/>
<path opacity="0.5" d="M421.343 254.842C421.98 254.842 422.497 254.326 422.497 253.688C422.497 253.051 421.98 252.535 421.343 252.535C420.706 252.535 420.189 253.051 420.189 253.688C420.189 254.326 420.706 254.842 421.343 254.842Z" fill="white"/>
<path opacity="0.5" d="M707.763 157.634C708.782 157.634 709.608 156.808 709.608 155.789C709.608 154.769 708.782 153.943 707.763 153.943C706.743 153.943 705.917 154.769 705.917 155.789C705.917 156.808 706.743 157.634 707.763 157.634Z" fill="white"/>
<path opacity="0.5" d="M1045.2 132.692C1046.22 132.692 1047.04 131.865 1047.04 130.846C1047.04 129.826 1046.22 129 1045.2 129C1044.18 129 1043.35 129.826 1043.35 130.846C1043.35 131.865 1044.18 132.692 1045.2 132.692Z" fill="white"/>
<path opacity="0.5" d="M779.874 216.518C780.893 216.518 781.72 215.691 781.72 214.672C781.72 213.653 780.893 212.826 779.874 212.826C778.855 212.826 778.028 213.653 778.028 214.672C778.028 215.691 778.855 216.518 779.874 216.518Z" fill="white"/>
<path opacity="0.5" d="M643.752 709.401C644.389 709.401 644.906 708.885 644.906 708.248C644.906 707.61 644.389 707.094 643.752 707.094C643.115 707.094 642.599 707.61 642.599 708.248C642.599 708.885 643.115 709.401 643.752 709.401Z" fill="white"/>
<path opacity="0.5" d="M420.19 609.528C420.827 609.528 421.343 609.011 421.343 608.374C421.343 607.737 420.827 607.22 420.19 607.22C419.553 607.22 419.036 607.737 419.036 608.374C419.036 609.011 419.553 609.528 420.19 609.528Z" fill="white"/>
<path opacity="0.5" d="M557.208 656.696C557.845 656.696 558.362 656.179 558.362 655.542C558.362 654.905 557.845 654.389 557.208 654.389C556.571 654.389 556.055 654.905 556.055 655.542C556.055 656.179 556.571 656.696 557.208 656.696Z" fill="white"/>
<path opacity="0.5" d="M973.572 688.047C974.209 688.047 974.725 687.531 974.725 686.894C974.725 686.257 974.209 685.74 973.572 685.74C972.934 685.74 972.418 686.257 972.418 686.894C972.418 687.531 972.934 688.047 973.572 688.047Z" fill="white"/>
<path opacity="0.5" d="M883.08 597.274C883.717 597.274 884.234 596.757 884.234 596.12C884.234 595.483 883.717 594.967 883.08 594.967C882.443 594.967 881.927 595.483 881.927 596.12C881.927 596.757 882.443 597.274 883.08 597.274Z" fill="white"/>
<path opacity="0.5" d="M1064.27 708.248C1064.9 708.248 1065.42 707.731 1065.42 707.094C1065.42 706.457 1064.9 705.941 1064.27 705.941C1063.63 705.941 1063.11 706.457 1063.11 707.094C1063.11 707.731 1063.63 708.248 1064.27 708.248Z" fill="white"/>
<path opacity="0.5" d="M990.824 597.966C991.844 597.966 992.67 597.14 992.67 596.12C992.67 595.101 991.844 594.275 990.824 594.275C989.805 594.275 988.979 595.101 988.979 596.12C988.979 597.14 989.805 597.966 990.824 597.966Z" fill="white"/>
<path opacity="0.5" d="M1067.78 588.994C1068.42 588.994 1068.93 588.477 1068.93 587.84C1068.93 587.203 1068.42 586.687 1067.78 586.687C1067.14 586.687 1066.63 587.203 1066.63 587.84C1066.63 588.477 1067.14 588.994 1067.78 588.994Z" fill="white"/>
<path opacity="0.5" d="M906.69 737.728C907.71 737.728 908.536 736.901 908.536 735.882C908.536 734.863 907.71 734.036 906.69 734.036C905.671 734.036 904.845 734.863 904.845 735.882C904.845 736.901 905.671 737.728 906.69 737.728Z" fill="white"/>
<path opacity="0.5" d="M730.783 640.033C731.803 640.033 732.629 639.207 732.629 638.187C732.629 637.168 731.803 636.342 730.783 636.342C729.764 636.342 728.938 637.168 728.938 638.187C728.938 639.207 729.764 640.033 730.783 640.033Z" fill="white"/>
<path opacity="0.5" d="M791.461 792.125C792.48 792.125 793.307 791.299 793.307 790.28C793.307 789.26 792.48 788.434 791.461 788.434C790.442 788.434 789.615 789.26 789.615 790.28C789.615 791.299 790.442 792.125 791.461 792.125Z" fill="white"/>
<path opacity="0.5" d="M420.189 797.662C421.209 797.662 422.035 796.836 422.035 795.817C422.035 794.797 421.209 793.971 420.189 793.971C419.17 793.971 418.344 794.797 418.344 795.817C418.344 796.836 419.17 797.662 420.189 797.662Z" fill="white"/>
</g>
<path d="M684.536 230.899C692.479 230.899 698.918 224.46 698.918 216.518C698.918 208.575 692.479 202.137 684.536 202.137C676.594 202.137 670.155 208.575 670.155 216.518C670.155 224.46 676.594 230.899 684.536 230.899Z" fill="url(#paint1_linear)"/>
<path d="M1230.75 257.732C1228.97 265.473 1233.8 273.19 1241.54 274.969C1249.28 276.747 1257 271.914 1258.78 264.173C1260.56 256.432 1255.72 248.715 1247.98 246.937C1240.24 245.158 1232.53 249.991 1230.75 257.732Z" fill="url(#paint2_linear)"/>
<path d="M287.595 218.553C306.397 218.553 321.639 203.31 321.639 184.508C321.639 165.705 306.397 150.463 287.595 150.463C268.792 150.463 253.55 165.705 253.55 184.508C253.55 203.31 268.792 218.553 287.595 218.553Z" fill="url(#paint3_linear)"/>
<path d="M430.441 713.072C428.946 706.46 422.374 702.313 415.762 703.808C409.15 705.303 405.003 711.875 406.498 718.487C407.993 725.098 414.565 729.246 421.177 727.751C427.789 726.256 431.936 719.684 430.441 713.072Z" fill="url(#paint4_linear)"/>
<path opacity="0.2" d="M1060.98 347.505C1035.71 268.112 869.078 250.267 688.798 307.649C508.518 365.031 382.858 475.908 408.128 555.302C433.398 634.695 600.029 652.539 780.309 595.158C960.589 537.776 1086.25 426.898 1060.98 347.505Z" fill="#EDF2FF"/>
<path opacity="0.2" d="M1005.04 365.311C984.095 299.519 846.02 284.728 696.636 332.276C547.253 379.823 443.13 471.703 464.071 537.495C485.012 603.288 623.087 618.078 772.471 570.53C921.854 522.983 1025.98 431.103 1005.04 365.311Z" fill="#EDF2FF"/>
<path opacity="0.2" d="M941.658 385.483C925.624 335.109 819.902 323.785 705.522 360.192C591.141 396.598 511.415 466.948 527.449 517.323C543.483 567.697 649.204 579.021 763.585 542.614C877.966 506.208 957.692 435.858 941.658 385.483Z" fill="#EDF2FF"/>
<path opacity="0.2" d="M879.938 405.128C868.685 369.775 794.472 361.833 714.178 387.389C633.884 412.946 577.915 462.324 589.168 497.678C600.421 533.032 674.634 540.974 754.928 515.417C835.222 489.86 891.191 440.482 879.938 405.128Z" fill="#EDF2FF"/>
<path d="M722.271 412.996C668.784 430.109 630.903 461.175 637.69 482.378C644.477 503.581 693.323 506.917 746.839 489.803C800.326 472.69 838.208 441.624 831.421 420.421C824.633 399.218 775.758 395.882 722.271 412.996Z" fill="url(#paint5_radial)"/>
<path d="M1061.23 347.413C1057.41 335.376 1050.33 324.731 1040.47 315.565C1025.67 301.816 1004.62 291.374 978.771 284.326C952.927 277.306 922.325 273.709 888.447 273.709C829.274 273.709 760.037 284.645 688.683 307.356C606.277 333.578 535.27 370.995 484.858 411.488C459.652 431.734 439.58 452.734 425.831 473.531C412.053 494.299 404.599 514.865 404.599 534.154C404.599 541.434 405.672 548.541 407.847 555.386C411.676 567.423 418.754 578.069 428.616 587.234C443.409 600.983 464.467 611.425 490.311 618.474C516.155 625.493 546.757 629.09 580.636 629.09C639.808 629.09 709.045 618.155 780.399 595.443C862.805 569.222 933.812 531.804 984.224 491.312C1009.43 471.066 1029.5 450.065 1043.25 429.268C1057.03 408.5 1064.48 387.935 1064.48 368.646C1064.48 361.365 1063.41 354.259 1061.23 347.413ZM1042.76 428.949C1001.6 491.08 903.733 555.56 780.196 594.863C708.9 617.546 639.721 628.481 580.636 628.481C535.502 628.481 496.199 622.1 466.323 609.743C451.385 603.565 438.797 595.907 428.993 586.799C419.189 577.691 412.169 567.133 408.369 555.212C406.194 548.396 405.15 541.376 405.15 534.154C405.15 515.01 412.575 494.561 426.295 473.85C467.454 411.72 565.32 347.239 688.857 307.936C760.153 285.254 829.332 274.318 888.418 274.318C933.551 274.318 972.854 280.7 1002.73 293.056C1017.67 299.235 1030.26 306.892 1040.06 316C1049.86 325.108 1056.88 335.666 1060.68 347.587C1062.86 354.404 1063.9 361.423 1063.9 368.646C1063.9 387.79 1056.48 408.239 1042.76 428.949Z" fill="#EDF2FF"/>
<path d="M988.082 338.799C975.812 327.399 958.351 318.727 936.945 312.925C915.538 307.095 890.158 304.137 862.08 304.137C813.031 304.137 755.686 313.186 696.543 332.011C628.263 353.737 569.41 384.744 527.613 418.304C506.729 435.069 490.108 452.502 478.68 469.702C467.281 486.932 461.073 503.958 461.073 519.97C461.073 526.003 461.943 531.891 463.771 537.576C466.961 547.554 472.821 556.401 481 564.001C493.27 575.4 510.731 584.073 532.138 589.874C553.544 595.704 578.924 598.663 607.002 598.663C656.051 598.663 713.396 589.613 772.539 570.788C840.819 549.063 899.672 518.055 941.469 484.495C962.354 467.73 978.974 450.297 990.402 433.097C1001.8 415.867 1008.01 398.841 1008.01 382.83C1008.01 376.796 1007.14 370.908 1005.31 365.223C1002.12 355.216 996.262 346.398 988.082 338.799ZM989.909 432.778C955.798 484.263 874.727 537.663 772.365 570.237C713.28 589.033 655.964 598.083 607.002 598.083C569.584 598.083 537.069 592.804 512.298 582.564C499.912 577.459 489.499 571.107 481.377 563.566C473.256 556.024 467.455 547.293 464.322 537.402C462.524 531.775 461.653 525.945 461.653 519.97C461.653 504.103 467.803 487.164 479.173 470.021C513.284 418.536 594.355 365.136 696.717 332.562C755.802 313.767 813.118 304.717 862.08 304.717C899.498 304.717 932.013 309.996 956.785 320.235C969.17 325.34 979.583 331.692 987.705 339.234C995.827 346.775 1001.63 355.506 1004.79 365.397C1006.59 371.024 1007.46 376.854 1007.46 382.83C1007.43 398.696 1001.28 415.606 989.909 432.778Z" fill="#EDF2FF"/>
<path d="M928.706 365.136C919.308 356.405 905.937 349.763 889.519 345.296C873.131 340.829 853.697 338.567 832.175 338.567C794.612 338.567 750.697 345.499 705.419 359.915C653.121 376.564 608.075 400.291 576.052 425.991C560.041 438.84 547.307 452.183 538.577 465.381C529.846 478.578 525.089 491.631 525.089 503.9C525.089 508.512 525.756 513.037 527.148 517.417C529.585 525.075 534.081 531.833 540.346 537.663C549.744 546.394 563.116 553.037 579.533 557.503C595.921 561.97 615.355 564.233 636.878 564.233C674.44 564.233 718.355 557.3 763.634 542.884C815.931 526.235 860.978 502.508 893 476.809C909.011 463.959 921.745 450.617 930.476 437.419C939.206 424.221 943.963 411.168 943.963 398.899C943.963 394.287 943.296 389.762 941.904 385.382C939.467 377.725 934.972 370.966 928.706 365.136ZM930.012 437.1C903.935 476.49 841.834 517.388 763.489 542.333C718.268 556.72 674.382 563.653 636.907 563.653C608.278 563.653 583.362 559.621 564.421 551.789C554.965 547.873 546.988 543 540.781 537.257C534.574 531.485 530.136 524.814 527.728 517.243C526.365 512.95 525.698 508.483 525.698 503.9C525.698 491.776 530.397 478.81 539.099 465.7C565.204 426.31 627.277 385.411 705.622 360.466C750.842 346.079 794.728 339.147 832.204 339.147C860.832 339.147 885.749 343.179 904.689 351.01C914.145 354.926 922.122 359.799 928.329 365.542C934.537 371.314 938.974 377.986 941.382 385.556C942.745 389.849 943.412 394.316 943.412 398.899C943.412 411.023 938.713 423.96 930.012 437.1Z" fill="#EDF2FF"/>
<path d="M870.898 390.777C864.285 384.628 854.887 379.958 843.371 376.825C831.856 373.693 818.194 372.097 803.111 372.097C776.745 372.097 745.883 376.97 714.092 387.093C677.371 398.783 645.725 415.461 623.274 433.503C612.049 442.524 603.086 451.893 596.937 461.175C590.788 470.457 587.452 479.622 587.452 488.266C587.452 491.515 587.916 494.705 588.902 497.78C590.614 503.175 593.775 507.932 598.184 512.022C604.798 518.171 614.196 522.841 625.711 525.974C637.226 529.107 650.888 530.702 665.971 530.702C692.338 530.702 723.2 525.829 754.99 515.706C791.712 504.016 823.357 487.338 845.808 469.296C857.033 460.275 865.996 450.907 872.145 441.625C878.295 432.343 881.63 423.177 881.63 414.533C881.63 411.284 881.166 408.094 880.18 405.019C878.469 399.653 875.307 394.867 870.898 390.777ZM871.681 441.306C862.544 455.112 847.084 469.209 827.012 482.03C806.969 494.851 782.314 506.395 754.816 515.155C723.084 525.249 692.28 530.122 665.971 530.122C645.87 530.122 628.409 527.279 615.124 521.797C608.481 519.041 602.883 515.648 598.561 511.616C594.211 507.584 591.107 502.914 589.425 497.606C588.467 494.589 588.003 491.486 588.003 488.266C588.003 479.767 591.281 470.689 597.401 461.494C606.538 447.687 621.998 433.59 642.07 420.769C662.113 407.949 686.768 396.404 714.266 387.645C745.999 377.551 776.803 372.678 803.111 372.678C823.212 372.678 840.674 375.52 853.959 381.002C860.601 383.758 866.199 387.152 870.521 391.183C874.872 395.215 877.976 399.885 879.658 405.193C880.615 408.21 881.079 411.313 881.079 414.533C881.079 423.032 877.773 432.111 871.681 441.306Z" fill="#EDF2FF"/>
<path d="M768.681 290.417C771.051 290.417 772.973 288.495 772.973 286.124C772.973 283.753 771.051 281.831 768.681 281.831C766.31 281.831 764.388 283.753 764.388 286.124C764.388 288.495 766.31 290.417 768.681 290.417Z" fill="url(#paint6_radial)"/>
<path d="M720.212 528.091C722.214 528.091 723.837 526.468 723.837 524.466C723.837 522.463 722.214 520.84 720.212 520.84C718.209 520.84 716.586 522.463 716.586 524.466C716.586 526.468 718.209 528.091 720.212 528.091Z" fill="url(#paint7_radial)"/>
<path d="M917.887 361.887C921.043 361.887 923.601 359.329 923.601 356.173C923.601 353.017 921.043 350.459 917.887 350.459C914.731 350.459 912.173 353.017 912.173 356.173C912.173 359.329 914.731 361.887 917.887 361.887Z" fill="url(#paint8_radial)"/>
<path d="M461.914 534.008C465.422 534.008 468.266 531.164 468.266 527.656C468.266 524.148 465.422 521.304 461.914 521.304C458.406 521.304 455.562 524.148 455.562 527.656C455.562 531.164 458.406 534.008 461.914 534.008Z" fill="url(#paint9_radial)"/>
<path d="M672.816 258.423C456.055 327.776 307.979 470.37 342.061 576.937C376.143 683.505 579.504 713.7 796.265 644.347C1013.03 575.023 1161.1 432.401 1127.02 325.833C1092.94 219.265 889.577 189.099 672.816 258.423Z" fill="url(#paint10_radial)"/>
<defs>
<filter id="filter0_df" x="-12" y="0.595947" width="1458" height="885" filterUnits="userSpaceOnUse" color-interpolation-filters="sRGB">
<feFlood flood-opacity="0" result="BackgroundImageFix"/>
<feColorMatrix in="SourceAlpha" type="matrix" values="0 0 0 0 0 0 0 0 0 0 0 0 0 0 0 0 0 0 127 0" result="hardAlpha"/>
<feOffset dy="4"/>
<feGaussianBlur stdDeviation="2"/>
<feComposite in2="hardAlpha" operator="out"/>
<feColorMatrix type="matrix" values="0 0 0 0 0 0 0 0 0 0 0 0 0 0 0 0 0 0 0.25 0"/>
<feBlend mode="normal" in2="BackgroundImageFix" result="effect1_dropShadow"/>
<feBlend mode="normal" in="SourceGraphic" in2="effect1_dropShadow" result="shape"/>
<feGaussianBlur stdDeviation="125" result="effect2_foregroundBlur"/>
</filter>
<radialGradient id="paint0_angular" cx="0" cy="0" r="1" gradientUnits="userSpaceOnUse" gradientTransform="translate(747 443) rotate(15.83) scale(340.93 191.305)">
<stop stop-color="white"/>
<stop offset="0.134581" stop-color="#FF5247" stop-opacity="0.72"/>
<stop offset="0.620033" stop-color="#5483E2" stop-opacity="0.9"/>
<stop offset="0.829748" stop-color="#FF43BF" stop-opacity="0.6"/>
</radialGradient>
<linearGradient id="paint1_linear" x1="694.719" y1="226.703" x2="674.369" y2="206.352" gradientUnits="userSpaceOnUse">
<stop stop-color="#B5A6D6"/>
<stop offset="0.1388" stop-color="#B19FDA" stop-opacity="0.8612"/>
<stop offset="0.3419" stop-color="#BEABE7" stop-opacity="0.6581"/>
<stop offset="0.589" stop-color="#B5A6D6" stop-opacity="0.411"/>
<stop offset="1" stop-color="#B5A6D6" stop-opacity="0"/>
</linearGradient>
<linearGradient id="paint2_linear" x1="1232.56" y1="268.596" x2="1256.95" y2="253.32" gradientUnits="userSpaceOnUse">
<stop stop-color="#B5A6D6"/>
<stop offset="0.1388" stop-color="#B19FDA" stop-opacity="0.8612"/>
<stop offset="0.3419" stop-color="#BEABE7" stop-opacity="0.6581"/>
<stop offset="0.589" stop-color="#B5A6D6" stop-opacity="0.411"/>
<stop offset="1" stop-color="#B5A6D6" stop-opacity="0"/>
</linearGradient>
<linearGradient id="paint3_linear" x1="311.701" y1="208.619" x2="263.525" y2="160.443" gradientUnits="userSpaceOnUse">
<stop stop-color="#B5A6D6"/>
<stop offset="0.1388" stop-color="#B19FDA" stop-opacity="0.8612"/>
<stop offset="0.3419" stop-color="#BEABE7" stop-opacity="0.6581"/>
<stop offset="0.589" stop-color="#B5A6D6" stop-opacity="0.411"/>
<stop offset="1" stop-color="#B5A6D6" stop-opacity="0"/>
</linearGradient>
<linearGradient id="paint4_linear" x1="425.031" y1="705.385" x2="411.921" y2="726.157" gradientUnits="userSpaceOnUse">
<stop stop-color="#B5A6D6"/>
<stop offset="0.1388" stop-color="#B19FDA" stop-opacity="0.8612"/>
<stop offset="0.3419" stop-color="#BEABE7" stop-opacity="0.6581"/>
<stop offset="0.589" stop-color="#B5A6D6" stop-opacity="0.411"/>
<stop offset="1" stop-color="#B5A6D6" stop-opacity="0"/>
</linearGradient>
<radialGradient id="paint5_radial" cx="0" cy="0" r="1" gradientUnits="userSpaceOnUse" gradientTransform="translate(734.537 451.373) rotate(-17.7385) scale(101.69 40.3161)">
<stop stop-color="white"/>
<stop offset="1" stop-color="white" stop-opacity="0"/>
</radialGradient>
<radialGradient id="paint6_radial" cx="0" cy="0" r="1" gradientUnits="userSpaceOnUse" gradientTransform="translate(768.666 286.122) scale(4.28162)">
<stop stop-color="white"/>
<stop offset="0.022588" stop-color="#FCFDFE"/>
<stop offset="1" stop-color="#FED0F5"/>
</radialGradient>
<radialGradient id="paint7_radial" cx="0" cy="0" r="1" gradientUnits="userSpaceOnUse" gradientTransform="translate(720.221 524.474) rotate(180) scale(3.62571)">
<stop stop-color="white"/>
<stop offset="0.022588" stop-color="#FCFDFE"/>
<stop offset="1" stop-color="#FB7AE2"/>
</radialGradient>
<radialGradient id="paint8_radial" cx="0" cy="0" r="1" gradientUnits="userSpaceOnUse" gradientTransform="translate(917.892 356.161) rotate(45) scale(5.71296)">
<stop stop-color="white"/>
<stop offset="0.022588" stop-color="#FCFDFE"/>
<stop offset="1" stop-color="#F2AAE4"/>
</radialGradient>
<radialGradient id="paint9_radial" cx="0" cy="0" r="1" gradientUnits="userSpaceOnUse" gradientTransform="translate(461.915 527.672) rotate(-135) scale(6.34864)">
<stop stop-color="white"/>
<stop offset="0.022588" stop-color="#FCFDFE"/>
<stop offset="1" stop-color="#F1B3E5"/>
</radialGradient>
<radialGradient id="paint10_radial" cx="0" cy="0" r="1" gradientUnits="userSpaceOnUse" gradientTransform="translate(734.51 451.405) rotate(-17.7374) scale(412.055 202.59)">
<stop stop-color="white"/>
<stop offset="1" stop-color="white" stop-opacity="0"/>
</radialGradient>
</defs>
</svg>
