<svg width="1170" height="596" viewBox="0 0 1170 596" fill="none" xmlns="http://www.w3.org/2000/svg">
<mask id="mask0" style="mask-type:alpha" maskUnits="userSpaceOnUse" x="0" y="0" width="1170" height="596">
<rect width="1170" height="596" fill="#0B2D7C"/>
</mask>
<g mask="url(#mask0)">
<path opacity="0.3" d="M1695.4 311.675C1666.95 413.396 1574.57 486.932 1448.07 523.529C1321.57 560.123 1161.03 559.751 996.439 513.709C831.849 467.667 694.419 384.685 605.271 287.766C516.117 190.842 475.303 80.0461 503.758 -21.6749C532.214 -123.396 624.592 -196.932 751.097 -233.529C877.594 -270.123 1038.13 -269.751 1202.72 -223.709C1367.31 -177.667 1504.74 -94.6845 1593.89 2.23359C1683.05 99.1584 1723.86 209.954 1695.4 311.675Z" stroke="white"/>
<path opacity="0.5" d="M1409.43 292.817C1396.6 331.549 1352.61 356.044 1291.57 364.175C1230.57 372.301 1152.72 364.05 1072.47 337.47C992.235 310.891 927.284 271.797 883.241 228.956C839.187 186.102 816.111 139.562 819.453 98.0804C822.793 56.6252 852.56 18.9251 906.713 -0.932682C960.871 -20.7922 1039.4 -22.7876 1140.1 7.22533C1220.31 33.7945 1294.11 85.7897 1344.63 140.885C1369.88 168.433 1389.31 196.74 1400.8 223.012C1412.3 249.294 1415.84 273.475 1409.43 292.817Z" stroke="white"/>
<circle cx="813" cy="441" r="16" fill="#A37AEB"/>
<rect x="1003" y="302" width="22" height="22" fill="#873385"/>
</g>
</svg>
