<svg width="301" height="57" viewBox="0 0 301 57" fill="none" xmlns="http://www.w3.org/2000/svg">
<g clip-path="url(#clip0)">
<path fill-rule="evenodd" clip-rule="evenodd" d="M33.772 40.6535L29.6589 36.4882C28.0966 37.946 26.5174 39.1005 24.9201 39.9512C23.324 40.8012 21.4147 41.2261 19.1934 41.2261C17.4576 41.2261 15.8525 40.8881 14.3772 40.211C12.9021 39.5339 11.6264 38.606 10.5501 37.4252C9.47394 36.2453 8.64151 34.8656 8.05071 33.2865C7.46066 31.7073 7.16632 30.0146 7.16632 28.2107C7.16632 26.4054 7.46066 24.7218 8.05071 23.1595C8.64151 21.598 9.47394 20.236 10.5501 19.0727C11.6264 17.9102 12.9021 16.9908 14.3772 16.3136C15.8525 15.6372 17.4576 15.2986 19.1934 15.2986C21.2756 15.2986 23.1329 15.7151 24.7642 16.5482C26.3959 17.3806 27.9407 18.4743 29.3977 19.8278L33.5114 15.0907C32.6438 14.2576 31.7241 13.494 30.7519 12.7993C29.7805 12.1053 28.7219 11.5062 27.5762 11.0032C26.4304 10.4996 25.1721 10.1097 23.801 9.83224C22.4298 9.55407 20.9109 9.41498 19.2454 9.41498C16.4685 9.41498 13.9347 9.91021 11.6439 10.8993C9.35244 11.8883 7.37424 13.2419 5.70798 14.96C4.04169 16.6782 2.74913 18.6822 1.82889 20.9736C0.908639 23.2642 0.449219 25.7114 0.449219 28.3146C0.449219 30.9523 0.91777 33.4166 1.85488 35.7078C2.79198 37.9978 4.08524 39.9849 5.73395 41.6686C7.38267 43.3518 9.33486 44.6795 11.5912 45.6515C13.8476 46.6236 16.3126 47.1091 18.9848 47.1091C20.6862 47.1091 22.2393 46.9615 23.645 46.6666C25.0508 46.3713 26.3439 45.9381 27.5242 45.3655C28.7043 44.7925 29.8064 44.1152 30.8306 43.3348C31.8543 42.5537 32.8348 41.6596 33.772 40.6535Z" fill="#073387"/>
<path fill-rule="evenodd" clip-rule="evenodd" d="M116.383 19.7348C116.383 18.5224 116.901 17.4921 117.937 16.6441C118.972 15.7948 120.423 15.3708 122.287 15.3708C123.944 15.3708 125.584 15.6917 127.206 16.3323C128.829 16.9728 130.469 17.8993 132.125 19.111L135.543 14.2803C133.68 12.791 131.686 11.6571 129.562 10.8785C127.439 10.0991 125.049 9.70947 122.39 9.70947C120.595 9.70947 118.938 9.96038 117.428 10.4629C115.909 10.9647 114.615 11.683 113.536 12.6179C112.457 13.5535 111.611 14.6699 110.99 15.9685C110.377 17.2672 110.066 18.713 110.066 20.3059C110.066 22.0027 110.333 23.4401 110.869 24.6175C111.404 25.7947 112.189 26.7991 113.208 27.6302C114.226 28.4615 115.495 29.1539 116.996 29.7083C118.506 30.2626 120.224 30.7637 122.166 31.2141C123.858 31.6299 125.229 32.0281 126.291 32.4086C127.344 32.7898 128.173 33.197 128.786 33.6292C129.389 34.0624 129.804 34.5384 130.028 35.0577C130.253 35.5777 130.365 36.1655 130.365 36.8236C130.365 38.2443 129.787 39.3699 128.631 40.2002C127.474 41.0323 125.911 41.447 123.944 41.447C121.666 41.447 119.628 41.0398 117.834 40.2262C116.038 39.4126 114.261 38.2443 112.499 36.72L108.668 41.2915C110.843 43.2649 113.208 44.7284 115.762 45.6807C118.317 46.6332 120.992 47.1092 123.788 47.1092C125.687 47.1092 127.431 46.8666 129.019 46.3822C130.598 45.8967 131.962 45.1866 133.084 44.2518C134.214 43.317 135.095 42.1745 135.733 40.824C136.363 39.4737 136.683 37.9325 136.683 36.2008C136.683 34.6772 136.432 33.3525 135.932 32.2269C135.431 31.1015 134.689 30.1153 133.722 29.266C132.755 28.418 131.53 27.699 130.063 27.1102C128.596 26.5222 126.904 25.9855 125.005 25.5004C123.271 25.0848 121.847 24.6862 120.716 24.3055C119.594 23.9251 118.714 23.5094 118.066 23.0587C117.428 22.6089 116.988 22.1239 116.746 21.6047C116.505 21.0846 116.383 20.4616 116.383 19.7348Z" fill="#073387"/>
<path fill-rule="evenodd" clip-rule="evenodd" d="M187.277 20.2493V46.2254H193.604V10.0039H186.809L175.762 27.1317L164.716 10.0039H157.922V46.2254H164.249V20.3526L175.606 37.3256H175.814L187.277 20.2493Z" fill="#073387"/>
<path fill-rule="evenodd" clip-rule="evenodd" d="M246.761 28.3146C246.761 30.0847 246.457 31.7595 245.852 33.3392C245.245 34.9182 244.405 36.2889 243.331 37.4511C242.257 38.6136 240.965 39.5339 239.459 40.211C237.952 40.8885 236.298 41.2261 234.497 41.2261C232.693 41.2261 231.032 40.879 229.508 40.1852C227.982 39.4904 226.675 38.5533 225.583 37.374C224.491 36.1933 223.642 34.8137 223.037 33.2343C222.43 31.6556 222.128 29.9802 222.128 28.2107C222.128 26.4399 222.43 24.7654 223.037 23.1862C223.642 21.6065 224.483 20.236 225.558 19.0728C226.632 17.9102 227.921 16.9908 229.428 16.3136C230.937 15.6372 232.591 15.2986 234.392 15.2986C236.193 15.2986 237.857 15.6456 239.381 16.3403C240.905 17.0343 242.214 17.9714 243.304 19.1514C244.395 20.3308 245.245 21.7112 245.852 23.2902C246.457 24.8693 246.761 26.5446 246.761 28.3146ZM253.464 28.2107C253.464 25.6418 252.997 23.2122 252.06 20.9209C251.126 18.6309 249.827 16.6346 248.165 14.934C246.501 13.2327 244.508 11.8883 242.187 10.8993C239.866 9.91021 237.302 9.41498 234.497 9.41498C231.689 9.41498 229.126 9.91864 226.805 10.9252C224.483 11.9318 222.473 13.2938 220.776 15.012C219.077 16.7301 217.763 18.7349 216.826 21.0256C215.89 23.3161 215.422 25.746 215.422 28.3146C215.422 30.8829 215.89 33.3117 216.826 35.6032C217.763 37.8944 219.06 39.8901 220.724 41.5908C222.385 43.2911 224.379 44.6363 226.7 45.6254C229.021 46.6145 231.584 47.1091 234.392 47.1091C237.198 47.1091 239.761 46.6053 242.082 45.5996C244.405 44.593 246.414 43.2308 248.113 41.5119C249.809 39.7945 251.126 37.7897 252.06 35.4993C252.997 33.2087 253.464 30.7789 253.464 28.2107Z" fill="#073387"/>
<path fill-rule="evenodd" clip-rule="evenodd" d="M280.055 19.7349C280.055 18.5224 280.573 17.4922 281.608 16.6442C282.643 15.7948 284.094 15.3709 285.959 15.3709C287.615 15.3709 289.256 15.6918 290.877 16.3324C292.5 16.9729 294.14 17.8994 295.798 19.1111L299.214 14.2804C297.349 12.7911 295.358 11.6572 293.233 10.8786C291.111 10.0992 288.72 9.70956 286.062 9.70956C284.266 9.70956 282.61 9.96048 281.1 10.463C279.58 10.9647 278.286 11.6831 277.206 12.618C276.128 13.5536 275.283 14.67 274.66 15.9686C274.048 17.2673 273.737 18.7131 273.737 20.306C273.737 22.0028 274.005 23.4402 274.54 24.6176C275.075 25.7948 275.861 26.7992 276.879 27.6303C277.897 28.4616 279.167 29.154 280.668 29.7084C282.178 30.2627 283.896 30.7638 285.837 31.2142C287.528 31.63 288.901 32.0282 289.963 32.4087C291.014 32.7899 291.844 33.1971 292.457 33.6293C293.06 34.0625 293.475 34.5385 293.7 35.0578C293.925 35.5778 294.037 36.1656 294.037 36.8237C294.037 38.2444 293.457 39.37 292.302 40.2003C291.146 41.0323 289.583 41.4471 287.615 41.4471C285.337 41.4471 283.299 41.0399 281.505 40.2263C279.71 39.4127 277.932 38.2444 276.171 36.7201L272.339 41.2916C274.513 43.2649 276.879 44.7285 279.434 45.6808C281.988 46.6332 284.664 47.1093 287.46 47.1093C289.358 47.1093 291.102 46.8667 292.69 46.3823C294.268 45.8968 295.633 45.1867 296.754 44.2519C297.884 43.3171 298.767 42.1746 299.404 40.8241C300.035 39.4737 300.355 37.9326 300.355 36.2008C300.355 34.6773 300.103 33.3526 299.604 32.227C299.104 31.1016 298.359 30.1154 297.394 29.2661C296.426 28.4181 295.203 27.6991 293.735 27.1103C292.267 26.5223 290.574 25.9856 288.678 25.5005C286.942 25.0849 285.519 24.6863 284.389 24.3056C283.266 23.9252 282.386 23.5095 281.738 23.0588C281.1 22.609 280.66 22.124 280.417 21.6047C280.177 21.0847 280.055 20.4617 280.055 19.7349Z" fill="#073387"/>
<path fill-rule="evenodd" clip-rule="evenodd" d="M77.1722 17.2553L59.8358 34.5687C59.6122 34.1355 59.4106 33.6841 59.2299 33.2159C58.6245 31.6429 58.3216 29.9738 58.3216 28.2112C58.3216 26.4471 58.6245 24.7787 59.2299 23.2056C59.8358 21.6318 60.6754 20.2666 61.7489 19.1077C62.8225 17.9495 64.1125 17.0335 65.6182 16.3589C67.1252 15.685 68.7781 15.3478 70.5785 15.3478C72.3792 15.3478 74.0414 15.6934 75.5641 16.3855C76.1305 16.6424 76.6665 16.932 77.1722 17.2553ZM75.6424 40.1661C74.136 40.8405 72.483 41.1773 70.6828 41.1773C68.8818 41.1773 67.2197 40.8316 65.6962 40.1404C65.1307 39.8827 64.5948 39.593 64.0895 39.2689L81.425 21.9572C81.6488 22.3896 81.8507 22.8403 82.0314 23.3091C82.6367 24.8823 82.9396 26.5512 82.9396 28.3147C82.9396 30.0781 82.6367 31.7463 82.0314 33.3202C81.425 34.8931 80.5856 36.2586 79.512 37.4166C78.4385 38.575 77.1491 39.4915 75.6424 40.1661ZM78.2656 45.5342C80.5856 44.5315 82.5939 43.1746 84.2906 41.462C85.9868 39.7512 87.3023 37.754 88.2371 35.4719C89.1725 33.1901 89.64 30.7696 89.64 28.2112C89.64 25.6521 89.1725 23.2316 88.2371 20.9487C87.6829 19.5955 87.0002 18.3456 86.1902 17.1986L97.4659 5.93848L92.9854 1.46408L81.6756 12.7585C80.6601 12.0672 79.5578 11.4696 78.3691 10.965C76.0491 9.97973 73.487 9.48638 70.6828 9.48638C67.8776 9.48638 65.3157 9.9881 62.9957 10.9909C60.6754 11.9937 58.667 13.3505 56.9705 15.0622C55.274 16.7739 53.958 18.7711 53.0232 21.053C52.0884 23.3351 51.6209 25.7556 51.6209 28.3147C51.6209 30.8731 52.0884 33.2928 53.0232 35.5757C53.5781 36.9295 54.2605 38.1796 55.0706 39.3271L43.7959 50.5861L48.2762 55.0603L59.5857 43.7663C60.6011 44.458 61.7035 45.0556 62.8919 45.56C65.212 46.5452 67.7738 47.0381 70.5785 47.0381C73.3833 47.0381 75.9453 46.5361 78.2656 45.5342Z" fill="#073387"/>
</g>
<defs>
<clipPath id="clip0">
<rect width="300.551" height="56.2321" fill="white" transform="translate(0.449219)"/>
</clipPath>
</defs>
</svg>
