<svg width="178" height="80" viewBox="0 0 178 80" fill="none" xmlns="http://www.w3.org/2000/svg">
<g clip-path="url(#clip0)">
<g clip-path="url(#clip1)">
<path d="M37.9311 26.0221V26.0711L33.3186 1.71859L29.4911 0.491135L27.0867 3.7316L37.9311 26.0221Z" fill="#0B2D7C"/>
<path d="M40.4338 15.8602L42.3967 25.2869L44.5067 15.7128L42.4457 14.3382L40.4338 15.8602Z" fill="#0B2D7C"/>
<path d="M55.0073 17.5288L52.5047 17.7743L49.5605 27.1028L56.0378 19.7873L55.0073 17.5288Z" fill="#0B2D7C"/>
<path d="M76.4021 19.492V15.515L72.5255 14.2876L54.3696 31.3246L76.4021 19.492Z" fill="#0B2D7C"/>
<path d="M32.0425 29.5564L26.6448 21.4553L26.743 21.6517L26.6448 21.4553L24.1914 21.8481L23.7988 24.3029L32.0425 29.5564Z" fill="#0B2D7C"/>
<path d="M66.7844 37.8063L57.1177 39.7211L66.7844 41.8323L68.2565 39.8193L66.7844 37.8063Z" fill="#0B2D7C"/>
<path d="M27.7246 39.7691L2.89515 36.6268L0.490723 39.8673L2.89515 43.1077L27.7246 39.7691Z" fill="#0B2D7C"/>
<path d="M18.5485 45.1706L17.8125 47.4781L19.8243 48.9511L28.4116 44.1394L18.5485 45.1706Z" fill="#0B2D7C"/>
<path d="M21.3945 51.9942L21.2964 54.4491L23.6517 55.2838L30.5215 48.0664L21.3945 51.9942Z" fill="#0B2D7C"/>
<path d="M33.7602 51.405L26.4487 57.8368L27.0866 60.1936L29.5892 60.2918L33.7602 51.405Z" fill="#0B2D7C"/>
<path d="M42.4458 54.2541L40.4829 63.7791L42.4948 65.2029L44.5067 63.73L42.4458 54.2541Z" fill="#0B2D7C"/>
<path d="M76.4511 60.0463L54.3696 48.312L72.6236 65.2507L76.4511 64.0233V60.0463Z" fill="#0B2D7C"/>
<path d="M52.1123 61.8635L47.1562 53.5659L48.2849 63.0909L50.6402 63.8274L52.1123 61.8635Z" fill="#0B2D7C"/>
<path d="M37.9802 53.5659L27.2339 75.9055L29.6383 79.1459L33.4657 77.9185L37.9802 53.5659Z" fill="#0B2D7C"/>
<path d="M108.887 31.6178C109.524 31.4214 110.064 31.1268 110.506 30.7341C111.537 29.8994 112.077 28.672 112.077 27.0517C112.077 25.5787 111.537 24.4004 110.506 23.5166C109.476 22.6329 108.003 22.191 106.09 22.191H98.5327V38.0497H102.606V32.207H105.108L108.494 38.0005H113.057L108.887 31.6178ZM102.606 25.2351H105.55C106.335 25.2351 106.973 25.3823 107.365 25.7261C107.758 26.0698 107.955 26.5607 107.955 27.2481C107.955 27.9355 107.758 28.4756 107.365 28.7702C106.973 29.1138 106.384 29.2611 105.55 29.2611H102.606V25.2351Z" fill="#0B2D7C"/>
<path d="M127.73 34.8112H119.191V31.5707H125.717V28.5758H119.191V25.3353H127.386V22.144H115.02V38.0025H127.73V34.8112Z" fill="#0B2D7C"/>
<path d="M137.102 32.2086H140.732V32.4542C140.732 32.896 140.634 33.2888 140.488 33.6325C140.34 33.9762 140.095 34.2217 139.8 34.4671C139.506 34.7126 139.163 34.86 138.77 34.9582C138.377 35.0564 137.936 35.1054 137.494 35.1054C136.611 35.1054 135.924 34.909 135.335 34.5653C134.746 34.2217 134.305 33.6325 134.011 32.896C133.716 32.1595 133.569 31.2266 133.569 30.0974C133.569 29.0173 133.716 28.1335 134.011 27.397C134.305 26.6605 134.747 26.1205 135.286 25.7277C135.826 25.3349 136.512 25.1385 137.298 25.1385C138.083 25.1385 138.721 25.3349 139.261 25.6786C139.8 26.0714 140.144 26.6605 140.39 27.4462L144.217 25.9241C143.628 24.5003 142.745 23.4692 141.665 22.8309C140.536 22.1926 139.113 21.849 137.298 21.849C135.678 21.849 134.255 22.1926 133.078 22.8309C131.9 23.4692 130.968 24.4512 130.33 25.6295C129.692 26.8569 129.349 28.3299 129.349 30.0484C129.349 31.8159 129.643 33.2888 130.281 34.5163C130.87 35.7437 131.753 36.6766 132.832 37.2657C133.912 37.904 135.188 38.1986 136.611 38.1986C137.985 38.1986 139.113 37.904 139.997 37.3148C140.536 36.9711 140.929 36.4802 141.272 35.9401L141.42 37.9531H144.217V29.4591H137.052V32.2086H137.102Z" fill="#0B2D7C"/>
<path d="M160.017 34.8112H151.479V31.5707H158.054V28.5758H151.479V25.3353H159.723V22.144H147.357V38.0025H160.017V34.8112Z" fill="#0B2D7C"/>
<path d="M176.799 38.0025V22.144H173.119V30.1469L173.217 33.0928L171.991 30.736L167.084 22.144H162.471V38.0025H166.152V29.9996L166.054 27.0538L167.28 29.4104L172.187 38.0025H176.799Z" fill="#0B2D7C"/>
<path d="M106.04 53.9584L106.138 55.7259H106.09L104.912 53.5165L100.349 46.2008H98.6802V57.1988H99.9554V49.4413L99.8573 47.6738H99.9068L101.084 49.8341L105.648 57.1988H107.316V46.2008H106.04V53.9584Z" fill="#0B2D7C"/>
<path d="M111.831 52.2399H116.787V51.0125H111.831V47.4284H118.21V46.2008H110.456V57.1988H118.455V55.9713H111.831V52.2399Z" fill="#0B2D7C"/>
<path d="M119.388 47.4284H123.215V57.1988H124.589V47.4284H128.416V46.2008H119.388V47.4284Z" fill="#0B2D7C"/>
<path d="M139.899 56.1678L137.298 46.2008H135.777L133.176 56.1678L130.527 46.2008H129.103L132.342 57.1988H134.011L135.924 50.0796L136.513 47.5756L137.102 50.0796L139.015 57.1988H140.684L143.922 46.2008H142.549L139.899 56.1678Z" fill="#0B2D7C"/>
<path d="M150.203 46.0056C147.063 46.0056 145.1 48.2151 145.1 51.701C145.1 55.1869 147.063 57.3963 150.203 57.3963C153.344 57.3963 155.307 55.1869 155.307 51.701C155.307 48.2151 153.294 46.0056 150.203 46.0056ZM150.203 56.1198C147.897 56.1198 146.523 54.4505 146.523 51.701C146.523 48.9514 147.946 47.2822 150.203 47.2822C152.51 47.2822 153.884 48.9514 153.884 51.701C153.884 54.4505 152.461 56.1198 150.203 56.1198Z" fill="#0B2D7C"/>
<path d="M165.66 49.3931C165.66 47.4292 164.189 46.1526 161.931 46.1526H157.76V57.1506H159.085V52.5844H161.735L164.729 57.1506H166.298L163.207 52.4372C164.729 52.0935 165.66 50.9642 165.66 49.3931ZM159.085 51.357V47.4292H161.882C163.452 47.4292 164.237 48.0675 164.237 49.3931C164.237 50.7187 163.452 51.357 161.882 51.357H159.085Z" fill="#0B2D7C"/>
<path d="M172.629 50.6687L177.045 46.2008H175.278L169.733 51.8471V46.2008H168.409V57.1988H169.733V53.6638L171.696 51.6507L175.474 57.1988H177.094L172.629 50.6687Z" fill="#0B2D7C"/>
</g>
</g>
<defs>
<clipPath id="clip0">
<rect width="177.143" height="80" fill="white"/>
</clipPath>
<clipPath id="clip1">
<rect width="177.143" height="80" fill="white"/>
</clipPath>
</defs>
</svg>
