<svg width="121" height="48" viewBox="0 0 121 48" fill="none" xmlns="http://www.w3.org/2000/svg">
<path d="M0 13.8644H2.04123V11.4297H0V13.8644ZM0.0574994 31.5656H2.01249V17.1582H0.0574994V31.5656Z" fill="#0B2D7C"/>
<path d="M8.46436 31.564H10.4193V24.6611C10.4193 23.9737 10.4768 23.3149 10.6493 22.7134C11.3106 20.336 13.4381 18.6461 15.9106 18.6461C18.6992 18.6461 19.0443 20.6511 19.0443 22.9139V31.564H20.9993V22.3983C20.9993 18.8465 19.7343 16.813 16.1693 16.813C12.748 16.813 10.9081 19.133 10.3906 20.4506H10.3331C10.3331 20.4506 10.3906 19.935 10.3906 19.3049V17.1566H8.46436V31.564Z" fill="#0B2D7C"/>
<path d="M39.7227 24.2887C39.7227 28.6424 43.1438 31.9077 47.3701 31.9077C51.5963 31.9077 55.0175 28.6424 55.0175 24.2887C55.0175 20.0209 51.5963 16.813 47.3701 16.813C43.1438 16.813 39.7227 20.0209 39.7227 24.2887ZM41.7351 24.2887C41.7351 21.0234 44.2651 18.5888 47.3701 18.5888C50.475 18.5888 53.0051 21.0234 53.0051 24.2887C53.0051 27.6399 50.475 30.1605 47.3701 30.1605C44.2651 30.1605 41.7351 27.6399 41.7351 24.2887Z" fill="#0B2D7C"/>
<path d="M60.3955 31.5623H62.3505V25.49C62.3505 24.5735 62.4656 23.5995 62.753 22.683C63.3855 20.5635 64.9093 18.9595 66.9504 18.9595C67.3242 18.9595 67.6693 19.0167 67.6693 19.0167V17.0977C67.6693 17.0977 67.2955 17.0117 66.893 17.0117C64.6217 17.0117 63.0118 18.673 62.3218 20.8498H62.2643C62.2643 20.8498 62.3218 20.3343 62.3218 19.7042V17.1549H60.3955V31.5623Z" fill="#0B2D7C"/>
<path d="M72.368 31.564H74.323V24.747C74.323 24.0883 74.3805 23.4294 74.5242 22.828C75.128 20.6224 76.9105 18.5888 79.268 18.5888C81.9992 18.5888 82.3154 20.7084 82.3154 22.8852V31.564H84.2705V24.747C84.2705 23.9737 84.3279 23.2862 84.5291 22.6561C85.0754 20.5365 86.8866 18.5888 89.1004 18.5888C91.7453 18.5888 92.2341 20.5365 92.2341 22.8852V31.564H94.1891V22.3983C94.1891 18.8465 92.8954 16.813 89.3879 16.813C86.9442 16.813 84.8454 18.4743 84.0691 20.4219H84.0117C83.5804 18.0446 82.2004 16.813 79.5267 16.813C77.2842 16.813 74.9842 18.5028 74.2943 20.4506H74.2367C74.2367 20.4506 74.2943 19.935 74.2943 19.3049V17.1566H72.368V31.564Z" fill="#0B2D7C"/>
<path d="M99.2498 27.6399C99.2498 30.5042 101.751 31.9077 104.166 31.9077C107.788 31.9077 108.996 28.7856 108.996 28.7856H109.053C109.053 28.7856 108.996 29.2725 108.996 29.9886V31.564H110.865V22.3409C110.865 18.7321 108.938 16.813 105.46 16.813C102.211 16.813 100.314 18.4456 100.314 18.4456L101.234 19.935C101.234 19.935 102.93 18.5602 105.316 18.5602C107.386 18.5602 108.91 19.5053 108.91 22.2837V22.6561H108.105C105.604 22.6561 99.2498 22.7706 99.2498 27.6399ZM101.262 27.5253C101.262 24.3459 105.805 24.26 108.076 24.26H108.91V24.8902C108.91 27.3821 107.242 30.2464 104.482 30.2464C102.326 30.2464 101.262 28.8715 101.262 27.5253Z" fill="#0B2D7C"/>
<path d="M116.946 28.1571C116.946 31.3078 119.073 31.6802 120.281 31.6802C120.654 31.6802 121 31.6228 121 31.6228V29.8756C121 29.8756 120.769 29.9043 120.511 29.9043C119.764 29.9043 118.9 29.6178 118.9 27.7274V11.4297H116.946V28.1571Z" fill="#0B2D7C"/>
<path fill-rule="evenodd" clip-rule="evenodd" d="M37.3247 3.8168C38.7499 3.06315 40.098 2.69629 41.3731 2.69629C42.6627 2.69629 43.6903 2.99572 44.4824 3.5674L44.4892 3.57203C45.2711 4.10948 45.6358 4.78023 45.6358 5.60381C45.6358 6.31079 45.4461 6.90537 45.0772 7.40424L45.0701 7.41449C44.7271 7.91407 44.362 8.10915 43.9737 8.10915C43.7381 8.10915 43.5878 8.02363 43.4754 7.8403C43.3067 7.53078 43.0606 6.98401 42.7348 6.18725C42.4558 5.47731 42.105 4.90811 41.6696 4.50371C41.2394 4.04491 40.6819 3.81915 40.0277 3.81915C38.9151 3.81915 37.9947 4.43502 37.264 5.54306L37.2602 5.54913C36.5759 6.6341 35.9071 8.31075 35.2469 10.5539C34.8868 11.7802 34.6007 12.9197 34.3892 13.9719C34.33 14.2083 34.2846 14.4003 34.2538 14.5465C34.2256 14.6797 34.2013 14.8104 34.2013 14.8988V14.9882C34.2013 15.2326 34.2836 15.4708 34.4943 15.6358C34.6885 15.7878 34.9388 15.8344 35.1849 15.8344C35.7325 15.8344 36.5157 15.8042 37.5308 15.7449L39.6738 15.7012L39.6904 15.7346L39.7313 15.7752C39.7326 15.7766 39.7392 15.7831 39.7463 15.8042C39.7538 15.8269 39.7615 15.8658 39.7615 15.9267C39.7615 16.0439 39.6751 16.2911 39.3795 16.7036L39.3744 16.7107L39.3697 16.718C39.246 16.9097 39.1384 17.033 39.0504 17.1053C38.9633 17.1768 38.9175 17.1806 38.9068 17.1806L35.1358 17.2701C34.6337 17.2706 34.197 17.347 33.8753 17.5474L33.866 17.5533L33.8571 17.5596C33.563 17.7688 33.3775 18.0871 33.2731 18.4662C31.386 24.8495 30.9828 26.8241 29.7371 32.9259L29.5544 33.8203L29.5528 33.8284L29.5515 33.8368C29.383 34.9203 28.9108 36.2252 28.3673 37.4602C27.8262 38.6898 27.2249 39.8272 26.8125 40.5696C25.9944 42.043 25.1202 43.2217 24.1933 44.1144L24.1891 44.1186C23.2818 45.0225 22.4018 45.6808 21.5503 46.105C20.8417 46.4579 20.2788 46.7029 19.8553 46.8473L19.6658 46.3861C20.022 46.1647 20.4163 45.8467 20.8471 45.4432C21.4213 44.9373 21.9676 44.2574 22.4891 43.4138C23.0486 42.5603 23.5533 41.5196 24.0059 40.2965C24.4872 39.1124 25.4685 36.2974 25.7326 34.666L29.2066 18.6547C29.2484 18.5194 29.2631 18.3652 29.2631 18.2057C29.2631 17.9534 29.1596 17.7238 28.9364 17.5754C28.7387 17.4441 28.487 17.4041 28.2346 17.4041L25.5412 17.4489C25.357 17.4485 25.27 17.414 25.2318 17.389C25.2093 17.3451 25.1825 17.2555 25.1825 17.0885C25.1825 16.8918 25.2598 16.6701 25.462 16.4178C25.6797 16.1532 25.9078 16.0343 26.1505 16.0125L29.0676 15.8783L29.0771 15.8774C29.5975 15.8255 29.8785 15.4021 30.0124 14.904L30.3698 13.6577C31.1382 11.0958 32.1381 9.0073 33.3617 7.38128C34.6249 5.7125 35.9469 4.53198 37.3224 3.81807L37.3247 3.8168Z" fill="#0B2D7C"/>
</svg>
