<svg width="48" height="48" viewBox="0 0 48 48" fill="none" xmlns="http://www.w3.org/2000/svg">
<path fill-rule="evenodd" clip-rule="evenodd" d="M44.0625 43.9849L26.0625 9.98486L8.0625 43.9849H44.0625Z" fill="white" fill-opacity="0.2"/>
<path fill-rule="evenodd" clip-rule="evenodd" d="M18 24.9849V30.9849L26 24.9849L29 27.9849L33 23.9849L26 9.98492L18 24.9849Z" fill="white" fill-opacity="0.3"/>
<path fill-rule="evenodd" clip-rule="evenodd" d="M24.1875 13.3909L38.9905 43.9849H43.9905L25.9905 9.98492L24.1875 13.3909Z" fill="white" fill-opacity="0.5"/>
<path fill-rule="evenodd" clip-rule="evenodd" d="M4 42.9849C4.552 42.9849 5 43.4329 5 43.9849C5 44.5369 4.552 44.9849 4 44.9849C3.448 44.9849 3 44.5369 3 43.9849C3 43.4329 3.448 42.9849 4 42.9849ZM11.581 31.7629C12.499 31.0029 17 27.1589 17 27.1589V30.9849C17 31.3639 17.214 31.7099 17.553 31.8789C17.892 32.0489 18.297 32.0119 18.6 31.7849L23.896 27.8129C24.337 27.4819 24.427 26.8549 24.096 26.4129C23.765 25.9719 23.137 25.8819 22.696 26.2129L19 28.9849V24.9849C19 24.5939 18.773 24.2399 18.418 24.0759C18.063 23.9129 17.646 23.9719 17.349 24.2259L14.081 27.0269L23.424 9.32392C23.534 9.11592 23.751 8.98492 23.986 8.98492H24.014C24.249 8.98492 24.466 9.11592 24.576 9.32392L42.341 42.9849H8C7.448 42.9849 7 43.4329 7 43.9849C7 44.5369 7.448 44.9849 8 44.9849H44C44.35 44.9849 44.675 44.8019 44.856 44.5009C45.037 44.2009 45.048 43.8279 44.884 43.5179C44.884 43.5179 29.247 13.8889 26.345 8.39092C25.888 7.52592 24.991 6.98492 24.014 6.98492H23.986C23.009 6.98492 22.112 7.52592 21.655 8.39092L4.719 40.4799C4.461 40.9679 4.648 41.5739 5.137 41.8309C5.625 42.0889 6.23 41.9019 6.488 41.4139L11.581 31.7629ZM26 23.9849C26.552 23.9849 27 24.4329 27 24.9849C27 25.5369 26.552 25.9849 26 25.9849C25.448 25.9849 25 25.5369 25 24.9849C25 24.4329 25.448 23.9849 26 23.9849Z" fill="white"/>
</svg>
