<svg width="98" height="107" viewBox="0 0 98 107" fill="none" xmlns="http://www.w3.org/2000/svg">
<g opacity="0.15">
<ellipse cx="49.5" cy="48.5" rx="48.5" ry="48.5" transform="rotate(-90 49.5 48.5)" fill="url(#paint0_linear)"/>
<ellipse cx="49.5" cy="48.5" rx="48.5" ry="48.5" transform="rotate(-90 49.5 48.5)" fill="url(#paint1_radial)" fill-opacity="0.3"/>
</g>
<g clip-path="url(#clip0)">
<path fill-rule="evenodd" clip-rule="evenodd" d="M89.961 98.8024L53.2109 29.3857L16.4609 98.8024H89.961Z" fill="#FAFBFF"/>
<path fill-rule="evenodd" clip-rule="evenodd" d="M36.75 60.0108V72.2608L53.0833 60.0108L59.2083 66.1358L67.375 57.9691L53.0833 29.3858L36.75 60.0108Z" fill="#E9EDFC"/>
<path fill-rule="evenodd" clip-rule="evenodd" d="M49.3828 36.3397L79.6056 98.8025H89.8139L53.0639 29.3858L49.3828 36.3397Z" fill="#005CFF" fill-opacity="0.15"/>
<path fill-rule="evenodd" clip-rule="evenodd" d="M8.16667 96.7608C9.29367 96.7608 10.2083 97.6755 10.2083 98.8025C10.2083 99.9295 9.29367 100.844 8.16667 100.844C7.03967 100.844 6.125 99.9295 6.125 98.8025C6.125 97.6755 7.03967 96.7608 8.16667 96.7608ZM23.6445 73.8492C25.5188 72.2976 34.7083 64.4494 34.7083 64.4494V72.2608C34.7083 73.0346 35.1453 73.741 35.8374 74.0861C36.5295 74.4331 37.3564 74.3576 37.975 73.8941L48.7877 65.7846C49.688 65.1088 49.8718 63.8287 49.196 62.9263C48.5202 62.0259 47.238 61.8422 46.3377 62.518L38.7917 68.1775V60.0108C38.7917 59.2125 38.3282 58.4898 37.6034 58.1549C36.8786 57.8221 36.0272 57.9426 35.4209 58.4612L28.7487 64.1799L47.824 28.0363C48.0486 27.6116 48.4916 27.3441 48.9714 27.3441H49.0286C49.5084 27.3441 49.9514 27.6116 50.176 28.0363L86.4462 96.7608H16.3333C15.2063 96.7608 14.2917 97.6755 14.2917 98.8025C14.2917 99.9295 15.2063 100.844 16.3333 100.844H89.8333C90.5479 100.844 91.2115 100.471 91.581 99.856C91.9505 99.2435 91.973 98.4819 91.6382 97.849C91.6382 97.849 59.7126 37.3565 53.7877 26.1314C52.8547 24.3653 51.0233 23.2608 49.0286 23.2608H48.9714C46.9767 23.2608 45.1453 24.3653 44.2123 26.1314L9.63463 91.6464C9.10788 92.6428 9.48967 93.88 10.488 94.4047C11.4844 94.9315 12.7196 94.5497 13.2463 93.5534L23.6445 73.8492ZM53.0833 57.9691C54.2103 57.9691 55.125 58.8838 55.125 60.0108C55.125 61.1378 54.2103 62.0525 53.0833 62.0525C51.9563 62.0525 51.0417 61.1378 51.0417 60.0108C51.0417 58.8838 51.9563 57.9691 53.0833 57.9691Z" fill="#0B2D7C"/>
</g>
<defs>
<linearGradient id="paint0_linear" x1="98" y1="97" x2="0.999989" y2="1.14441e-05" gradientUnits="userSpaceOnUse">
<stop offset="0.135417" stop-color="#0B2D7C"/>
<stop offset="0.677083" stop-color="#A37AEB" stop-opacity="0"/>
</linearGradient>
<radialGradient id="paint1_radial" cx="0" cy="0" r="1" gradientUnits="userSpaceOnUse" gradientTransform="translate(49.5 48.5) rotate(90) scale(30.4108)">
<stop stop-color="#873385" stop-opacity="0"/>
<stop offset="1" stop-color="#E071DC"/>
</radialGradient>
<clipPath id="clip0">
<rect width="98" height="98" fill="white" transform="translate(0 9)"/>
</clipPath>
</defs>
</svg>
