<svg width="99" height="103" viewBox="0 0 99 103" fill="none" xmlns="http://www.w3.org/2000/svg">
<g opacity="0.15">
<ellipse cx="49.5" cy="48.5" rx="48.5" ry="48.5" transform="rotate(-90 49.5 48.5)" fill="url(#paint0_linear)"/>
<ellipse cx="49.5" cy="48.5" rx="48.5" ry="48.5" transform="rotate(-90 49.5 48.5)" fill="url(#paint1_radial)" fill-opacity="0.3"/>
</g>
<path fill-rule="evenodd" clip-rule="evenodd" d="M90.8796 63.8425H74.3796V71.7548C74.3796 73.4873 73.6928 75.1463 72.4677 76.3684C71.2446 77.5942 69.5843 78.2788 67.8539 78.2788H66.1296V94.78H90.8796V63.8425Z" fill="#D0DDFB"/>
<path fill-rule="evenodd" clip-rule="evenodd" d="M90.8799 67.3617C90.8799 66.4297 90.5091 65.5325 89.8491 64.8751C89.1891 64.2138 88.294 63.8425 87.3607 63.8425H84.6924V94.78H90.8799V67.3617Z" fill="#D0DDFB"/>
<path fill-rule="evenodd" clip-rule="evenodd" d="M39.0591 16.9181C39.0591 15.6723 38.5641 14.4761 37.6834 13.5954C36.8027 12.7147 35.6065 12.2197 34.3607 12.2197C27.1832 12.2197 14.3091 12.2197 14.3091 12.2197V43.1572H24.6216V34.3689C24.6216 31.2483 27.1502 28.7197 30.2708 28.7197H39.0591V16.9181Z" fill="#D0DDFB"/>
<path fill-rule="evenodd" clip-rule="evenodd" d="M74.2505 34.057C74.2505 31.1257 71.8745 28.7497 68.9437 28.7497C60.6153 28.7497 44.5732 28.7497 36.2448 28.7497C33.314 28.7497 30.938 31.1257 30.938 34.057C30.938 43.5718 30.938 63.4278 30.938 72.9425C30.938 75.8738 33.314 78.2498 36.2448 78.2498C44.5732 78.2498 60.6153 78.2498 68.9437 78.2498C71.8745 78.2498 74.2505 75.8738 74.2505 72.9425C74.2505 63.4278 74.2505 43.5718 74.2505 34.057Z" fill="#EFF2FF"/>
<path fill-rule="evenodd" clip-rule="evenodd" d="M36.2448 28.7497H62.7562C65.687 28.7497 68.063 31.1257 68.063 34.0565C68.063 43.5729 68.063 63.4265 68.063 72.9429C68.063 75.8737 65.687 78.2497 62.7562 78.2497H68.9437C71.8745 78.2497 74.2505 75.8737 74.2505 72.9429C74.2505 63.4265 74.2505 43.5729 74.2505 34.0565C74.2505 31.1257 71.8745 28.7497 68.9437 28.7497C60.6153 28.7497 44.5732 28.7497 36.2448 28.7497ZM36.2448 78.2497H46.3902H36.2448ZM36.1767 78.2497H36.2118H36.1767ZM36.1087 78.2477H36.1458H36.1087ZM36.0406 78.2456L36.0777 78.2477L36.0406 78.2456ZM35.9726 78.2435H36.0117H35.9726ZM35.9045 78.2394L35.9437 78.2415L35.9045 78.2394ZM35.8364 78.2332L35.8777 78.2374L35.8364 78.2332ZM35.7704 78.2291L35.8096 78.2312L35.7704 78.2291ZM35.7024 78.2229L35.7436 78.227L35.7024 78.2229ZM35.6364 78.2147L35.6776 78.2188L35.6364 78.2147ZM35.5704 78.2064L35.6116 78.2126L35.5704 78.2064ZM35.5044 78.1982L35.5456 78.2044L35.5044 78.1982ZM35.4384 78.1879L35.4796 78.194L35.4384 78.1879ZM35.3724 78.1775L35.4136 78.1858L35.3724 78.1775ZM35.3064 78.1672L35.3476 78.1734L35.3064 78.1672ZM35.2404 78.1548L35.2837 78.1631L35.2404 78.1548ZM35.1764 78.1425L35.2177 78.1507L35.1764 78.1425ZM35.1104 78.128L35.1537 78.1363L35.1104 78.128ZM35.0465 78.1136L35.0898 78.1239L35.0465 78.1136ZM34.9826 78.0992L35.0238 78.1095L34.9826 78.0992ZM34.9186 78.0827L34.9599 78.093L34.9186 78.0827ZM34.8567 78.0662L34.8959 78.0765L34.8567 78.0662ZM34.7928 78.0476L34.832 78.06L34.7928 78.0476ZM34.7289 78.0311L34.7701 78.0414L34.7289 78.0311ZM34.667 78.0105L34.7062 78.0229L34.667 78.0105ZM34.6051 77.9919L34.6443 78.0043L34.6051 77.9919ZM34.5432 77.9713L34.5824 77.9837L34.5432 77.9713ZM34.4814 77.9486L34.5185 77.963L34.4814 77.9486ZM34.4215 77.928L34.4587 77.9403L34.4215 77.928ZM34.3597 77.9053L34.3968 77.9177L34.3597 77.9053ZM34.2999 77.8805L34.3349 77.895L34.2999 77.8805ZM34.2401 77.8579L34.2751 77.8723L34.2401 77.8579ZM34.1802 77.8331L34.2132 77.8475L34.1802 77.8331ZM34.1204 77.8063L34.1534 77.8207L34.1204 77.8063ZM34.0606 77.7815L34.0936 77.796L34.0606 77.7815ZM34.0029 77.7547L34.0359 77.7692L34.0029 77.7547ZM33.9451 77.7258L33.976 77.7424L33.9451 77.7258ZM33.8874 77.699L33.9183 77.7135L33.8874 77.699ZM33.8296 77.6681L33.8606 77.6846L33.8296 77.6681ZM33.7719 77.6392L33.8028 77.6557L33.7719 77.6392ZM33.7162 77.6083L33.7451 77.6248L33.7162 77.6083ZM33.6605 77.5774L33.6873 77.5938L33.6605 77.5774ZM33.6027 77.5464L33.6316 77.5629L33.6027 77.5464ZM33.5491 77.5134L33.5759 77.5299L33.5491 77.5134ZM33.4934 77.4804L33.5202 77.4969L33.4934 77.4804ZM33.4398 77.4474L33.4646 77.4639L33.4398 77.4474ZM33.3841 77.4144L33.4109 77.4309L33.3841 77.4144ZM33.3305 77.3793L33.3573 77.3958L33.3305 77.3793ZM33.2789 77.3422L33.3037 77.3608L33.2789 77.3422ZM33.2253 77.3072L33.2501 77.3237L33.2253 77.3072ZM33.1737 77.27L33.1985 77.2886L33.1737 77.27ZM33.1222 77.2329L33.1449 77.2515L33.1222 77.2329ZM33.0706 77.1958L33.0933 77.2123L33.0706 77.1958ZM33.0191 77.1566L33.0438 77.1752L33.0191 77.1566ZM32.9696 77.1174L32.9922 77.136L32.9696 77.1174ZM32.918 77.0782L32.9427 77.0968L32.918 77.0782ZM32.8685 77.037L32.8932 77.0555L32.8685 77.037ZM32.8211 76.9978L32.8437 77.0163L32.8211 76.9978ZM32.7716 76.9545L32.7942 76.9751L32.7716 76.9545ZM32.7241 76.9132L32.7468 76.9338L32.7241 76.9132ZM32.6767 76.8699L32.6994 76.8905L32.6767 76.8699ZM32.6292 76.8287L32.6519 76.8493L32.6292 76.8287ZM32.5839 76.7833L32.6066 76.806L32.5839 76.7833ZM32.5385 76.74L32.5612 76.7606L32.5385 76.74ZM32.4931 76.6946L32.5158 76.7173L32.4931 76.6946ZM32.4477 76.6492L32.4704 76.6719L32.4477 76.6492ZM32.4044 76.6039L32.4251 76.6265L32.4044 76.6039ZM32.3591 76.5585L32.3817 76.5812L32.3591 76.5585ZM32.3178 76.511L32.3384 76.5358L32.3178 76.511ZM32.2745 76.4636L32.2972 76.4883L32.2745 76.4636ZM32.2332 76.4162L32.2559 76.4409L32.2332 76.4162ZM32.1899 76.3667L32.2126 76.3935L32.1899 76.3667ZM32.1507 76.3172L32.1734 76.346L32.1507 76.3172ZM32.1095 76.2697L32.1322 76.2965L32.1095 76.2697ZM32.0703 76.2182L32.093 76.247L32.0703 76.2182ZM32.0311 76.1687L32.0538 76.1975L32.0311 76.1687ZM31.9919 76.1171L32.0146 76.148L31.9919 76.1171ZM31.9548 76.0655L31.9775 76.0985L31.9548 76.0655ZM31.9177 76.014L31.9404 76.047L31.9177 76.014ZM31.8806 75.9624L31.9032 75.9954L31.8806 75.9624ZM31.8455 75.9088L31.8682 75.9439L31.8455 75.9088ZM31.8084 75.8572L31.8331 75.8923L31.8084 75.8572ZM31.7733 75.8036L31.7981 75.8387L31.7733 75.8036ZM31.7403 75.7479L31.763 75.785L31.7403 75.7479ZM31.7073 75.6943L31.73 75.7314L31.7073 75.6943ZM31.6743 75.6386L31.697 75.6778L31.6743 75.6386ZM31.6413 75.5829L31.664 75.6242L31.6413 75.5829ZM31.6104 75.5272L31.6331 75.5685L31.6104 75.5272ZM31.5794 75.4715L31.6021 75.5149L31.5794 75.4715ZM31.5485 75.4158L31.5712 75.4592L31.5485 75.4158ZM31.5196 75.3581L31.5423 75.4014L31.5196 75.3581ZM31.4887 75.3004L31.5114 75.3457L31.4887 75.3004ZM31.4619 75.2426L31.4846 75.288L31.4619 75.2426ZM31.433 75.1848L31.4557 75.2323L31.433 75.1848ZM31.4062 75.1271L31.4289 75.1745L31.4062 75.1271ZM31.3814 75.0673L31.4021 75.1168L31.3814 75.0673ZM31.3546 75.0075L31.3773 75.057L31.3546 75.0075ZM31.3299 74.9477L31.3505 74.9992L31.3299 74.9477ZM31.3072 74.8878L31.3257 74.9394L31.3072 74.8878ZM31.2824 74.828L31.3031 74.8796L31.2824 74.828ZM31.2597 74.7662L31.2804 74.8198L31.2597 74.7662ZM31.2391 74.7064L31.2577 74.7579L31.2391 74.7064ZM31.2164 74.6445L31.235 74.6981L31.2164 74.6445ZM31.1958 74.5826L31.2144 74.6362L31.1958 74.5826ZM31.1772 74.5207L31.1937 74.5743L31.1772 74.5207ZM31.1566 74.4588L31.1752 74.5125L31.1566 74.4588ZM31.1401 74.3949L31.1545 74.4506L31.1401 74.3949ZM31.1216 74.331L31.1381 74.3867L31.1216 74.331ZM31.1051 74.2691L31.1195 74.3248L31.1051 74.2691ZM31.0886 74.2052L31.103 74.2609L31.0886 74.2052ZM31.0741 74.1412L31.0865 74.1969L31.0741 74.1412ZM31.0597 74.0773L31.072 74.133L31.0597 74.0773ZM31.0452 74.0113L31.0576 74.067L31.0452 74.0113ZM31.0329 73.9474L31.0432 74.001L31.0329 73.9474ZM31.0205 73.8814L31.0308 73.937L31.0205 73.8814ZM31.0102 73.8153L31.0184 73.871L31.0102 73.8153ZM30.9999 73.7494L31.0081 73.803L30.9999 73.7494ZM30.9895 73.6833L30.9978 73.737L30.9895 73.6833ZM30.9813 73.6174L30.9875 73.6689L30.9813 73.6174ZM30.9731 73.5513L30.9792 73.6008L30.9731 73.5513ZM30.9648 73.4853L30.971 73.5328L30.9648 73.4853ZM30.9586 73.4173L30.9627 73.4647L30.9586 73.4173ZM30.9545 73.3513L30.9566 73.3967L30.9545 73.3513ZM30.9483 73.2832L30.9524 73.3265L30.9483 73.2832ZM30.9442 73.2152L30.9462 73.2564L30.9442 73.2152ZM30.9421 73.1471L30.9442 73.1842L30.9421 73.1471ZM30.9401 73.079V73.112V73.079ZM30.938 73.011V73.0378V73.011ZM30.938 33.9658V33.9885V33.9658ZM30.9401 33.8895V33.9204V33.8895ZM30.9442 33.8152L30.9421 33.8524L30.9442 33.8152ZM30.9462 33.7451L30.9442 33.7843L30.9462 33.7451ZM30.9524 33.675L30.9483 33.7162L30.9524 33.675ZM30.9566 33.6049L30.9545 33.6482L30.9566 33.6049ZM30.9627 33.5347L30.9586 33.5822L30.9627 33.5347ZM30.971 33.4667L30.9648 33.5141L30.971 33.4667ZM30.9792 33.3986L30.9731 33.4481L30.9792 33.3986ZM30.9875 33.3305L30.9813 33.3821L30.9875 33.3305ZM30.9978 33.2625L30.9895 33.3161L30.9978 33.2625ZM31.0081 33.1965L30.9999 33.2501L31.0081 33.1965ZM31.0184 33.1305L31.0102 33.1841L31.0184 33.1305ZM31.0308 33.0645L31.0205 33.1181L31.0308 33.0645ZM31.0432 32.9985L31.0329 33.0521L31.0432 32.9985ZM31.0576 32.9325L31.0452 32.9882L31.0576 32.9325ZM31.072 32.8685L31.0597 32.9222L31.072 32.8685ZM31.0865 32.8025L31.0741 32.8582L31.0865 32.8025ZM31.103 32.7386L31.0886 32.7943L31.103 32.7386ZM31.1195 32.6747L31.1051 32.7304L31.1195 32.6747ZM31.1381 32.6128L31.1216 32.6685L31.1381 32.6128ZM31.1545 32.5489L31.1401 32.6045L31.1545 32.5489ZM31.1752 32.487L31.1566 32.5406L31.1752 32.487ZM31.1937 32.4251L31.1772 32.4787L31.1937 32.4251ZM31.2144 32.3632L31.1958 32.4169L31.2144 32.3632ZM31.235 32.3014L31.2164 32.355L31.235 32.3014ZM31.2577 32.2415L31.2391 32.2931L31.2577 32.2415ZM31.2804 32.1797L31.2597 32.2333L31.2804 32.1797ZM31.3031 32.1198L31.2824 32.1714L31.3031 32.1198ZM31.3257 32.06L31.3072 32.1116L31.3257 32.06ZM31.3505 32.0002L31.3299 32.0518L31.3505 32.0002ZM31.3773 31.9425L31.3546 31.992L31.3773 31.9425ZM31.4021 31.8847L31.3814 31.9322L31.4021 31.8847ZM31.4289 31.8249L31.4062 31.8724L31.4289 31.8249ZM31.4557 31.7672L31.433 31.8146L31.4557 31.7672ZM31.4846 31.7115L31.4619 31.7569L31.4846 31.7115ZM31.5114 31.6537L31.4887 31.6991L31.5114 31.6537ZM31.5423 31.598L31.5196 31.6414L31.5423 31.598ZM31.5712 31.5403L31.5485 31.5836L31.5712 31.5403ZM31.6021 31.4867L31.5794 31.5279L31.6021 31.4867ZM31.6331 31.431L31.6104 31.4722L31.6331 31.431ZM31.664 31.3753L31.6413 31.4165L31.664 31.3753ZM31.697 31.3217L31.6743 31.3608L31.697 31.3217ZM31.73 31.268L31.7073 31.3052L31.73 31.268ZM31.763 31.2144L31.7403 31.2515L31.763 31.2144ZM31.7981 31.1608L31.7733 31.1959L31.7981 31.1608ZM31.8331 31.1072L31.8084 31.1422L31.8331 31.1072ZM31.8682 31.0556L31.8455 31.0907L31.8682 31.0556ZM31.9032 31.004L31.8806 31.037L31.9032 31.004ZM31.9404 30.9525L31.9177 30.9855L31.9404 30.9525ZM31.9775 30.9009L31.9548 30.9339L31.9775 30.9009ZM32.0146 30.8514L31.9919 30.8824L32.0146 30.8514ZM32.0538 30.8019L32.0311 30.8308L32.0538 30.8019ZM32.093 30.7524L32.0703 30.7813L32.093 30.7524ZM32.1322 30.7029L32.1095 30.7297L32.1322 30.7029ZM32.1734 30.6534L32.1507 30.6823L32.1734 30.6534ZM32.2126 30.606L32.1899 30.6328L32.2126 30.606ZM32.2539 30.5585L32.2332 30.5833L32.2539 30.5585ZM32.2972 30.5111L32.2745 30.5359L32.2972 30.5111ZM32.3384 30.4637L32.3178 30.4884L32.3384 30.4637ZM32.3817 30.4183L32.3591 30.441L32.3817 30.4183ZM32.4251 30.3729L32.4044 30.3956L32.4251 30.3729ZM32.4704 30.3275L32.4477 30.3502L32.4704 30.3275ZM32.5158 30.2822L32.4931 30.3048L32.5158 30.2822ZM32.5612 30.2389L32.5385 30.2595L32.5612 30.2389ZM32.6066 30.1935L32.5839 30.2162L32.6066 30.1935ZM32.6519 30.1502L32.6292 30.1708L32.6519 30.1502ZM32.6994 30.1089L32.6767 30.1295L32.6994 30.1089ZM32.7468 30.0656L32.7241 30.0862L32.7468 30.0656ZM32.7942 30.0244L32.7716 30.045L32.7942 30.0244ZM32.8437 29.9831L32.8211 30.0017L32.8437 29.9831ZM32.8932 29.9439L32.8685 29.9625L32.8932 29.9439ZM32.9427 29.9027L32.918 29.9212L32.9427 29.9027ZM32.9922 29.8635L32.9696 29.882L32.9922 29.8635ZM33.0417 29.8243L33.0191 29.8428L33.0417 29.8243ZM33.0933 29.7872L33.0706 29.8037L33.0933 29.7872ZM33.1449 29.748L33.1222 29.7665L33.1449 29.748ZM33.1985 29.7108L33.1737 29.7294L33.1985 29.7108ZM33.2501 29.6758L33.2253 29.6923L33.2501 29.6758ZM33.3037 29.6387L33.2789 29.6572L33.3037 29.6387ZM33.3573 29.6036L33.3305 29.6201L33.3573 29.6036ZM33.4109 29.5685L33.3841 29.585L33.4109 29.5685ZM33.4646 29.5355L33.4398 29.552L33.4646 29.5355ZM33.5202 29.5025L33.4934 29.519L33.5202 29.5025ZM33.5759 29.4695L33.5491 29.486L33.5759 29.4695ZM33.6316 29.4365L33.6027 29.453L33.6316 29.4365ZM33.6873 29.4056L33.6605 29.4221L33.6873 29.4056ZM33.7451 29.3747L33.7162 29.3912L33.7451 29.3747ZM33.8028 29.3437L33.7719 29.3602L33.8028 29.3437ZM33.8606 29.3149L33.8296 29.3313L33.8606 29.3149ZM33.9183 29.286L33.8874 29.3004L33.9183 29.286ZM33.976 29.2571L33.9451 29.2736L33.976 29.2571ZM34.0359 29.2303L34.0029 29.2447L34.0359 29.2303ZM34.0936 29.2035L34.0606 29.2179L34.0936 29.2035ZM34.1534 29.1787L34.1204 29.1932L34.1534 29.1787ZM34.2132 29.1519L34.1802 29.1663L34.2132 29.1519ZM34.2751 29.1272L34.2401 29.1416L34.2751 29.1272ZM34.3349 29.1045L34.2999 29.1189L34.3349 29.1045ZM34.3968 29.0818L34.3597 29.0942L34.3968 29.0818ZM34.4566 29.0591L34.4215 29.0715L34.4566 29.0591ZM34.5185 29.0364L34.4814 29.0509L34.5185 29.0364ZM34.5824 29.0158L34.5432 29.0282L34.5824 29.0158ZM34.6443 28.9952L34.6051 29.0075L34.6443 28.9952ZM34.7062 28.9766L34.667 28.989L34.7062 28.9766ZM34.7701 28.958L34.7289 28.9684L34.7701 28.958ZM34.832 28.9395L34.7928 28.9518L34.832 28.9395ZM34.8959 28.923L34.8567 28.9333L34.8959 28.923ZM34.9599 28.9065L34.9186 28.9168L34.9599 28.9065ZM35.0238 28.892L34.9826 28.9003L35.0238 28.892ZM35.0898 28.8755L35.0465 28.8859L35.0898 28.8755ZM35.1537 28.8632L35.1104 28.8714L35.1537 28.8632ZM35.2177 28.8487L35.1764 28.857L35.2177 28.8487ZM35.2837 28.8363L35.2404 28.8446L35.2837 28.8363ZM35.3476 28.826L35.3064 28.8322L35.3476 28.826ZM35.4136 28.8137L35.3724 28.8219L35.4136 28.8137ZM35.4796 28.8054L35.4384 28.8116L35.4796 28.8054ZM35.5456 28.7951L35.5044 28.8013L35.5456 28.7951ZM35.6116 28.7868L35.5704 28.793L35.6116 28.7868ZM35.6776 28.7807L35.6364 28.7848L35.6776 28.7807ZM35.7436 28.7724L35.7024 28.7765L35.7436 28.7724ZM35.8096 28.7683L35.7704 28.7704L35.8096 28.7683ZM35.8777 28.7621L35.8364 28.7662L35.8777 28.7621ZM35.9437 28.758L35.9045 28.76L35.9437 28.758ZM36.0117 28.7559H35.9726H36.0117ZM36.0777 28.7518L36.0406 28.7539L36.0777 28.7518ZM36.1437 28.7518H36.1087H36.1437ZM36.2118 28.7497H36.1767H36.2118Z" fill="#C2CDF7"/>
<path d="M39.0593 12.2197H32.8718V28.7197H39.0593V12.2197Z" fill="#D0DDFB"/>
<path fill-rule="evenodd" clip-rule="evenodd" d="M57.7507 85.6511V90.6258C57.7507 92.2676 58.4025 93.8413 59.5637 95.0004C60.7228 96.1616 62.2965 96.8133 63.9382 96.8133C70.4805 96.8133 82.5007 96.8133 82.5007 96.8133C83.6392 96.8133 84.5632 95.8893 84.5632 94.7508C84.5632 93.6123 83.6392 92.6883 82.5007 92.6883H63.9382C63.3917 92.6883 62.8657 92.4718 62.48 92.084C62.0923 91.6983 61.8757 91.1724 61.8757 90.6258V85.6511C61.8757 84.5126 60.9517 83.5886 59.8132 83.5886C58.6747 83.5886 57.7507 84.5126 57.7507 85.6511ZM90.7507 92.6883C91.8892 92.6883 92.8132 93.6123 92.8132 94.7508C92.8132 95.8893 91.8892 96.8133 90.7507 96.8133C89.6122 96.8133 88.6882 95.8893 88.6882 94.7508C88.6882 93.6123 89.6122 92.6883 90.7507 92.6883ZM80.4382 74.1258V84.4383H70.1257C70.1257 83.2998 69.2017 82.3758 68.0632 82.3758C66.9247 82.3758 66.0007 83.2998 66.0007 84.4383V86.5008C66.0007 87.6393 66.9247 88.5633 68.0632 88.5633H82.5007C83.6392 88.5633 84.5632 87.6393 84.5632 86.5008V72.0633C84.5632 70.9248 83.6392 70.0008 82.5007 70.0008H80.4382C79.2997 70.0008 78.3757 70.9248 78.3757 72.0633C78.3757 73.2018 79.2997 74.1258 80.4382 74.1258ZM92.8132 86.5008V67.9383C92.8132 66.2966 92.1615 64.7229 91.0003 63.5638C89.8412 62.4026 88.2675 61.7508 86.6257 61.7508C83.7547 61.7508 80.4382 61.7508 80.4382 61.7508C79.2997 61.7508 78.3757 62.6748 78.3757 63.8133C78.3757 64.9518 79.2997 65.8758 80.4382 65.8758C80.4382 65.8758 83.7547 65.8758 86.6257 65.8758C87.1723 65.8758 87.6982 66.0924 88.0839 66.4801C88.4717 66.8658 88.6882 67.3918 88.6882 67.9383V86.5008C88.6882 87.6393 89.6122 88.5633 90.7507 88.5633C91.8892 88.5633 92.8132 87.6393 92.8132 86.5008ZM76.3132 35.0023C76.3132 32.7974 75.4367 30.6813 73.8774 29.1241C72.3202 27.5649 70.2041 26.6883 67.9993 26.6883C58.4953 26.6883 40.5062 26.6883 31.0022 26.6883C28.7974 26.6883 26.6812 27.5649 25.124 29.1241C23.5648 30.6813 22.6882 32.7974 22.6882 35.0023C22.6882 44.5063 22.6882 62.4954 22.6882 71.9994C22.6882 74.2042 23.5648 76.3203 25.124 77.8775C26.6812 79.4368 28.7974 80.3133 31.0022 80.3133C40.5062 80.3133 58.4953 80.3133 67.9993 80.3133C70.2041 80.3133 72.3202 79.4368 73.8774 77.8775C75.4367 76.3203 76.3132 74.2042 76.3132 71.9994V35.0023ZM72.1882 35.0023V71.9994C72.1882 73.1111 71.7469 74.1753 70.961 74.9611C70.1752 75.7469 69.111 76.1883 67.9993 76.1883H31.0022C29.8905 76.1883 28.8262 75.7469 28.0404 74.9611C27.2546 74.1753 26.8132 73.1111 26.8132 71.9994V35.0023C26.8132 33.8906 27.2546 32.8263 28.0404 32.0405C28.8262 31.2547 29.8905 30.8133 31.0022 30.8133H67.9993C69.111 30.8133 70.1752 31.2547 70.961 32.0405C71.7469 32.8263 72.1882 33.8906 72.1882 35.0023ZM63.8743 61.7508C63.8743 61.7508 65.9657 61.7508 66.0007 61.7508C67.1392 61.7508 68.0632 62.6748 68.0632 63.8133C68.0632 64.9477 67.1454 65.8696 66.0131 65.8758H63.8743C62.7709 65.8758 61.8757 66.771 61.8757 67.8744V72.0633C61.8757 73.2018 60.9517 74.1258 59.8132 74.1258C58.6747 74.1258 57.7507 73.2018 57.7507 72.0633C57.7507 72.0633 57.7507 69.9575 57.7507 67.8744C57.7507 64.4919 60.4918 61.7508 63.8743 61.7508ZM6.18823 20.5008V39.0633C6.18823 40.7051 6.83998 42.2788 8.00117 43.4379C9.16029 44.5991 10.734 45.2508 12.3757 45.2508C15.2467 45.2508 18.5632 45.2508 18.5632 45.2508C19.7017 45.2508 20.6257 44.3268 20.6257 43.1883C20.6257 42.0498 19.7017 41.1258 18.5632 41.1258C18.5632 41.1258 15.2467 41.1258 12.3757 41.1258C11.8292 41.1258 11.3032 40.9093 10.9175 40.5215C10.5298 40.1358 10.3132 39.6099 10.3132 39.0633V20.5008C10.3132 19.3623 9.38923 18.4383 8.25073 18.4383C7.11223 18.4383 6.18823 19.3623 6.18823 20.5008ZM30.9382 45.2508H35.0632C38.4808 45.2508 41.2507 42.4809 41.2507 39.0633V34.9383C41.2507 33.7998 40.3267 32.8758 39.1882 32.8758C38.0497 32.8758 37.1257 33.7998 37.1257 34.9383V39.0633C37.1257 40.2018 36.2017 41.1258 35.0632 41.1258H30.9382C29.7997 41.1258 28.8757 42.0498 28.8757 43.1883C28.8757 44.3268 29.7997 45.2508 30.9382 45.2508ZM18.5632 32.8758V22.5633H28.8757C28.8757 23.7018 29.7997 24.6258 30.9382 24.6258C32.0767 24.6258 33.0007 23.7018 33.0007 22.5633V20.5008C33.0007 19.3623 32.0767 18.4383 30.9382 18.4383H16.5007C15.3622 18.4383 14.4382 19.3623 14.4382 20.5008V34.9383C14.4382 36.0768 15.3622 37.0008 16.5007 37.0008H18.5632C19.7017 37.0008 20.6257 36.0768 20.6257 34.9383C20.6257 33.7998 19.7017 32.8758 18.5632 32.8758ZM41.2507 22.5633V16.3758C41.2507 14.7341 40.599 13.1604 39.4378 12.0013C38.2787 10.8401 36.705 10.1883 35.0632 10.1883C28.521 10.1883 16.5007 10.1883 16.5007 10.1883C15.3622 10.1883 14.4382 11.1123 14.4382 12.2508C14.4382 13.3893 15.3622 14.3133 16.5007 14.3133H35.0632C35.6098 14.3133 36.1357 14.5299 36.5214 14.9176C36.9092 15.3033 37.1257 15.8293 37.1257 16.3758V22.5633C37.1257 23.7018 38.0497 24.6258 39.1882 24.6258C40.3267 24.6258 41.2507 23.7018 41.2507 22.5633ZM8.25073 10.1883C9.38923 10.1883 10.3132 11.1123 10.3132 12.2508C10.3132 13.3893 9.38923 14.3133 8.25073 14.3133C7.11223 14.3133 6.18823 13.3893 6.18823 12.2508C6.18823 11.1123 7.11223 10.1883 8.25073 10.1883Z" fill="#0B2D7C"/>
<defs>
<linearGradient id="paint0_linear" x1="98" y1="97" x2="0.999989" y2="1.14441e-05" gradientUnits="userSpaceOnUse">
<stop offset="0.135417" stop-color="#0B2D7C"/>
<stop offset="0.677083" stop-color="#A37AEB" stop-opacity="0"/>
</linearGradient>
<radialGradient id="paint1_radial" cx="0" cy="0" r="1" gradientUnits="userSpaceOnUse" gradientTransform="translate(49.5 48.5) rotate(90) scale(30.4108)">
<stop stop-color="#873385" stop-opacity="0"/>
<stop offset="1" stop-color="#E071DC"/>
</radialGradient>
</defs>
</svg>
