<svg width="48" height="48" viewBox="0 0 48 48" fill="none" xmlns="http://www.w3.org/2000/svg">
<path fill-rule="evenodd" clip-rule="evenodd" d="M44.0625 29.0151H36.0625V32.8514C36.0625 33.6914 35.7295 34.4958 35.1355 35.0883C34.5425 35.6826 33.7375 36.0145 32.8985 36.0145H32.0625V44.0151H44.0625V29.0151Z" fill="white" fill-opacity="0.4"/>
<path fill-rule="evenodd" clip-rule="evenodd" d="M18.9375 6.26286C18.9375 5.65886 18.6975 5.07886 18.2705 4.65186C17.8435 4.22486 17.2635 3.98486 16.6595 3.98486C13.1795 3.98486 6.9375 3.98486 6.9375 3.98486V18.9849H11.9375V14.7239C11.9375 13.2109 13.1635 11.9849 14.6765 11.9849H18.9375V6.26286Z" fill="white" fill-opacity="0.4"/>
<path fill-rule="evenodd" clip-rule="evenodd" d="M36 14.5732C36 13.152 34.848 12 33.427 12C29.389 12 21.611 12 17.573 12C16.152 12 15 13.152 15 14.5732C15 19.1864 15 28.8136 15 33.4268C15 34.848 16.152 36 17.573 36C21.611 36 29.389 36 33.427 36C34.848 36 36 34.848 36 33.4268C36 28.8136 36 19.1864 36 14.5732Z" fill="white" fill-opacity="0.4"/>
<path opacity="0.5" fill-rule="evenodd" clip-rule="evenodd" d="M17.573 12H30.427C31.848 12 33 13.152 33 14.573C33 19.187 33 28.813 33 33.427C33 34.848 31.848 36 30.427 36H33.427C34.848 36 36 34.848 36 33.427C36 28.813 36 19.187 36 14.573C36 13.152 34.848 12 33.427 12C29.389 12 21.611 12 17.573 12ZM17.573 36H22.492H17.573ZM17.54 36H17.557H17.54ZM17.507 35.999H17.525H17.507ZM17.474 35.998L17.492 35.999L17.474 35.998ZM17.441 35.997H17.46H17.441ZM17.408 35.995L17.427 35.996L17.408 35.995ZM17.375 35.992L17.395 35.994L17.375 35.992ZM17.343 35.99L17.362 35.991L17.343 35.99ZM17.31 35.987L17.33 35.989L17.31 35.987ZM17.278 35.983L17.298 35.985L17.278 35.983ZM17.246 35.979L17.266 35.982L17.246 35.979ZM17.214 35.975L17.234 35.978L17.214 35.975ZM17.182 35.97L17.202 35.973L17.182 35.97ZM17.15 35.965L17.17 35.969L17.15 35.965ZM17.118 35.96L17.138 35.963L17.118 35.96ZM17.086 35.954L17.107 35.958L17.086 35.954ZM17.055 35.948L17.075 35.952L17.055 35.948ZM17.023 35.941L17.044 35.945L17.023 35.941ZM16.992 35.934L17.013 35.939L16.992 35.934ZM16.961 35.927L16.981 35.932L16.961 35.927ZM16.93 35.919L16.95 35.924L16.93 35.919ZM16.9 35.911L16.919 35.916L16.9 35.911ZM16.869 35.902L16.888 35.908L16.869 35.902ZM16.838 35.894L16.858 35.899L16.838 35.894ZM16.808 35.884L16.827 35.89L16.808 35.884ZM16.778 35.875L16.797 35.881L16.778 35.875ZM16.748 35.865L16.767 35.871L16.748 35.865ZM16.718 35.854L16.736 35.861L16.718 35.854ZM16.689 35.844L16.707 35.85L16.689 35.844ZM16.659 35.833L16.677 35.839L16.659 35.833ZM16.63 35.821L16.647 35.828L16.63 35.821ZM16.601 35.81L16.618 35.817L16.601 35.81ZM16.572 35.798L16.588 35.805L16.572 35.798ZM16.543 35.785L16.559 35.792L16.543 35.785ZM16.514 35.773L16.53 35.78L16.514 35.773ZM16.486 35.76L16.502 35.767L16.486 35.76ZM16.458 35.746L16.473 35.754L16.458 35.746ZM16.43 35.733L16.445 35.74L16.43 35.733ZM16.402 35.718L16.417 35.726L16.402 35.718ZM16.374 35.704L16.389 35.712L16.374 35.704ZM16.347 35.689L16.361 35.697L16.347 35.689ZM16.32 35.674L16.333 35.682L16.32 35.674ZM16.292 35.659L16.306 35.667L16.292 35.659ZM16.266 35.643L16.279 35.651L16.266 35.643ZM16.239 35.627L16.252 35.635L16.239 35.627ZM16.213 35.611L16.225 35.619L16.213 35.611ZM16.186 35.595L16.199 35.603L16.186 35.595ZM16.16 35.578L16.173 35.586L16.16 35.578ZM16.135 35.56L16.147 35.569L16.135 35.56ZM16.109 35.543L16.121 35.551L16.109 35.543ZM16.084 35.525L16.096 35.534L16.084 35.525ZM16.059 35.507L16.07 35.516L16.059 35.507ZM16.034 35.489L16.045 35.497L16.034 35.489ZM16.009 35.47L16.021 35.479L16.009 35.47ZM15.985 35.451L15.996 35.46L15.985 35.451ZM15.96 35.432L15.972 35.441L15.96 35.432ZM15.936 35.412L15.948 35.421L15.936 35.412ZM15.913 35.393L15.924 35.402L15.913 35.393ZM15.889 35.372L15.9 35.382L15.889 35.372ZM15.866 35.352L15.877 35.362L15.866 35.352ZM15.843 35.331L15.854 35.341L15.843 35.331ZM15.82 35.311L15.831 35.321L15.82 35.311ZM15.798 35.289L15.809 35.3L15.798 35.289ZM15.776 35.268L15.787 35.278L15.776 35.268ZM15.754 35.246L15.765 35.257L15.754 35.246ZM15.732 35.224L15.743 35.235L15.732 35.224ZM15.711 35.202L15.721 35.213L15.711 35.202ZM15.689 35.18L15.7 35.191L15.689 35.18ZM15.669 35.157L15.679 35.169L15.669 35.157ZM15.648 35.134L15.659 35.146L15.648 35.134ZM15.628 35.111L15.639 35.123L15.628 35.111ZM15.607 35.087L15.618 35.1L15.607 35.087ZM15.588 35.063L15.599 35.077L15.588 35.063ZM15.568 35.04L15.579 35.053L15.568 35.04ZM15.549 35.015L15.56 35.029L15.549 35.015ZM15.53 34.991L15.541 35.005L15.53 34.991ZM15.511 34.966L15.522 34.981L15.511 34.966ZM15.493 34.941L15.504 34.957L15.493 34.941ZM15.475 34.916L15.486 34.932L15.475 34.916ZM15.457 34.891L15.468 34.907L15.457 34.891ZM15.44 34.865L15.451 34.882L15.44 34.865ZM15.422 34.84L15.434 34.857L15.422 34.84ZM15.405 34.814L15.417 34.831L15.405 34.814ZM15.389 34.787L15.4 34.805L15.389 34.787ZM15.373 34.761L15.384 34.779L15.373 34.761ZM15.357 34.734L15.368 34.753L15.357 34.734ZM15.341 34.707L15.352 34.727L15.341 34.707ZM15.326 34.68L15.337 34.7L15.326 34.68ZM15.311 34.653L15.322 34.674L15.311 34.653ZM15.296 34.626L15.307 34.647L15.296 34.626ZM15.282 34.598L15.293 34.619L15.282 34.598ZM15.267 34.57L15.278 34.592L15.267 34.57ZM15.254 34.542L15.265 34.564L15.254 34.542ZM15.24 34.514L15.251 34.537L15.24 34.514ZM15.227 34.486L15.238 34.509L15.227 34.486ZM15.215 34.457L15.225 34.481L15.215 34.457ZM15.202 34.428L15.213 34.452L15.202 34.428ZM15.19 34.399L15.2 34.424L15.19 34.399ZM15.179 34.37L15.188 34.395L15.179 34.37ZM15.167 34.341L15.177 34.366L15.167 34.341ZM15.156 34.311L15.166 34.337L15.156 34.311ZM15.146 34.282L15.155 34.307L15.146 34.282ZM15.135 34.252L15.144 34.278L15.135 34.252ZM15.125 34.222L15.134 34.248L15.125 34.222ZM15.116 34.192L15.124 34.218L15.116 34.192ZM15.106 34.162L15.115 34.188L15.106 34.162ZM15.098 34.131L15.105 34.158L15.098 34.131ZM15.089 34.1L15.097 34.127L15.089 34.1ZM15.081 34.07L15.088 34.097L15.081 34.07ZM15.073 34.039L15.08 34.066L15.073 34.039ZM15.066 34.008L15.072 34.035L15.066 34.008ZM15.059 33.977L15.065 34.004L15.059 33.977ZM15.052 33.945L15.058 33.972L15.052 33.945ZM15.046 33.914L15.051 33.94L15.046 33.914ZM15.04 33.882L15.045 33.909L15.04 33.882ZM15.035 33.85L15.039 33.877L15.035 33.85ZM15.03 33.818L15.034 33.844L15.03 33.818ZM15.025 33.786L15.029 33.812L15.025 33.786ZM15.021 33.754L15.024 33.779L15.021 33.754ZM15.017 33.722L15.02 33.746L15.017 33.722ZM15.013 33.69L15.016 33.713L15.013 33.69ZM15.01 33.657L15.012 33.68L15.01 33.657ZM15.008 33.625L15.009 33.647L15.008 33.625ZM15.005 33.592L15.007 33.613L15.005 33.592ZM15.003 33.559L15.004 33.579L15.003 33.559ZM15.002 33.526L15.003 33.544L15.002 33.526ZM15.001 33.493V33.509V33.493ZM15 33.46V33.473V33.46ZM15 14.529V14.54V14.529ZM15.001 14.492V14.507V14.492ZM15.003 14.456L15.002 14.474L15.003 14.456ZM15.004 14.422L15.003 14.441L15.004 14.422ZM15.007 14.388L15.005 14.408L15.007 14.388ZM15.009 14.354L15.008 14.375L15.009 14.354ZM15.012 14.32L15.01 14.343L15.012 14.32ZM15.016 14.287L15.013 14.31L15.016 14.287ZM15.02 14.254L15.017 14.278L15.02 14.254ZM15.024 14.221L15.021 14.246L15.024 14.221ZM15.029 14.188L15.025 14.214L15.029 14.188ZM15.034 14.156L15.03 14.182L15.034 14.156ZM15.039 14.124L15.035 14.15L15.039 14.124ZM15.045 14.092L15.04 14.118L15.045 14.092ZM15.051 14.06L15.046 14.086L15.051 14.06ZM15.058 14.028L15.052 14.055L15.058 14.028ZM15.065 13.997L15.059 14.023L15.065 13.997ZM15.072 13.965L15.066 13.992L15.072 13.965ZM15.08 13.934L15.073 13.961L15.08 13.934ZM15.088 13.903L15.081 13.93L15.088 13.903ZM15.097 13.873L15.089 13.9L15.097 13.873ZM15.105 13.842L15.098 13.869L15.105 13.842ZM15.115 13.812L15.106 13.838L15.115 13.812ZM15.124 13.782L15.116 13.808L15.124 13.782ZM15.134 13.752L15.125 13.778L15.134 13.752ZM15.144 13.722L15.135 13.748L15.144 13.722ZM15.155 13.693L15.146 13.718L15.155 13.693ZM15.166 13.663L15.156 13.689L15.166 13.663ZM15.177 13.634L15.167 13.659L15.177 13.634ZM15.188 13.605L15.179 13.63L15.188 13.605ZM15.2 13.576L15.19 13.601L15.2 13.576ZM15.213 13.548L15.202 13.572L15.213 13.548ZM15.225 13.52L15.215 13.543L15.225 13.52ZM15.238 13.491L15.227 13.514L15.238 13.491ZM15.251 13.463L15.24 13.486L15.251 13.463ZM15.265 13.436L15.254 13.458L15.265 13.436ZM15.278 13.408L15.267 13.43L15.278 13.408ZM15.293 13.381L15.282 13.402L15.293 13.381ZM15.307 13.353L15.296 13.374L15.307 13.353ZM15.322 13.327L15.311 13.347L15.322 13.327ZM15.337 13.3L15.326 13.32L15.337 13.3ZM15.352 13.273L15.341 13.293L15.352 13.273ZM15.368 13.247L15.357 13.266L15.368 13.247ZM15.384 13.221L15.373 13.239L15.384 13.221ZM15.4 13.195L15.389 13.213L15.4 13.195ZM15.417 13.169L15.405 13.186L15.417 13.169ZM15.434 13.143L15.422 13.16L15.434 13.143ZM15.451 13.118L15.44 13.135L15.451 13.118ZM15.468 13.093L15.457 13.109L15.468 13.093ZM15.486 13.068L15.475 13.084L15.486 13.068ZM15.504 13.043L15.493 13.059L15.504 13.043ZM15.522 13.019L15.511 13.034L15.522 13.019ZM15.541 12.995L15.53 13.009L15.541 12.995ZM15.56 12.971L15.549 12.985L15.56 12.971ZM15.579 12.947L15.568 12.96L15.579 12.947ZM15.599 12.923L15.588 12.937L15.599 12.923ZM15.618 12.9L15.607 12.913L15.618 12.9ZM15.638 12.877L15.628 12.889L15.638 12.877ZM15.659 12.854L15.648 12.866L15.659 12.854ZM15.679 12.831L15.669 12.843L15.679 12.831ZM15.7 12.809L15.689 12.82L15.7 12.809ZM15.721 12.787L15.711 12.798L15.721 12.787ZM15.743 12.765L15.732 12.776L15.743 12.765ZM15.765 12.743L15.754 12.754L15.765 12.743ZM15.787 12.722L15.776 12.732L15.787 12.722ZM15.809 12.7L15.798 12.711L15.809 12.7ZM15.831 12.679L15.82 12.689L15.831 12.679ZM15.854 12.659L15.843 12.669L15.854 12.659ZM15.877 12.638L15.866 12.648L15.877 12.638ZM15.9 12.618L15.889 12.628L15.9 12.618ZM15.924 12.598L15.913 12.607L15.924 12.598ZM15.948 12.579L15.936 12.588L15.948 12.579ZM15.972 12.559L15.96 12.568L15.972 12.559ZM15.996 12.54L15.985 12.549L15.996 12.54ZM16.02 12.521L16.009 12.53L16.02 12.521ZM16.045 12.503L16.034 12.511L16.045 12.503ZM16.07 12.484L16.059 12.493L16.07 12.484ZM16.096 12.466L16.084 12.475L16.096 12.466ZM16.121 12.449L16.109 12.457L16.121 12.449ZM16.147 12.431L16.135 12.44L16.147 12.431ZM16.173 12.414L16.16 12.422L16.173 12.414ZM16.199 12.397L16.186 12.405L16.199 12.397ZM16.225 12.381L16.213 12.389L16.225 12.381ZM16.252 12.365L16.239 12.373L16.252 12.365ZM16.279 12.349L16.266 12.357L16.279 12.349ZM16.306 12.333L16.292 12.341L16.306 12.333ZM16.333 12.318L16.32 12.326L16.333 12.318ZM16.361 12.303L16.347 12.311L16.361 12.303ZM16.389 12.288L16.374 12.296L16.389 12.288ZM16.417 12.274L16.402 12.282L16.417 12.274ZM16.445 12.26L16.43 12.267L16.445 12.26ZM16.473 12.246L16.458 12.254L16.473 12.246ZM16.502 12.233L16.486 12.24L16.502 12.233ZM16.53 12.22L16.514 12.227L16.53 12.22ZM16.559 12.208L16.543 12.215L16.559 12.208ZM16.588 12.195L16.572 12.202L16.588 12.195ZM16.618 12.183L16.601 12.19L16.618 12.183ZM16.647 12.172L16.63 12.179L16.647 12.172ZM16.677 12.161L16.659 12.167L16.677 12.161ZM16.706 12.15L16.689 12.156L16.706 12.15ZM16.736 12.139L16.718 12.146L16.736 12.139ZM16.767 12.129L16.748 12.135L16.767 12.129ZM16.797 12.119L16.778 12.125L16.797 12.119ZM16.827 12.11L16.808 12.116L16.827 12.11ZM16.858 12.101L16.838 12.106L16.858 12.101ZM16.888 12.092L16.869 12.098L16.888 12.092ZM16.919 12.084L16.9 12.089L16.919 12.084ZM16.95 12.076L16.93 12.081L16.95 12.076ZM16.981 12.069L16.961 12.073L16.981 12.069ZM17.013 12.061L16.992 12.066L17.013 12.061ZM17.044 12.055L17.023 12.059L17.044 12.055ZM17.075 12.048L17.055 12.052L17.075 12.048ZM17.107 12.042L17.086 12.046L17.107 12.042ZM17.138 12.037L17.118 12.04L17.138 12.037ZM17.17 12.031L17.15 12.035L17.17 12.031ZM17.202 12.027L17.182 12.03L17.202 12.027ZM17.234 12.022L17.214 12.025L17.234 12.022ZM17.266 12.018L17.246 12.021L17.266 12.018ZM17.298 12.015L17.278 12.017L17.298 12.015ZM17.33 12.011L17.31 12.013L17.33 12.011ZM17.362 12.009L17.343 12.01L17.362 12.009ZM17.395 12.006L17.375 12.008L17.395 12.006ZM17.427 12.004L17.408 12.005L17.427 12.004ZM17.46 12.003H17.441H17.46ZM17.492 12.001L17.474 12.002L17.492 12.001ZM17.524 12.001H17.507H17.524ZM17.557 12H17.54H17.557Z" fill="white"/>
<path fill-rule="evenodd" clip-rule="evenodd" d="M28 39.588V42C28 42.796 28.316 43.559 28.879 44.121C29.441 44.684 30.204 45 31 45C34.172 45 40 45 40 45C40.552 45 41 44.552 41 44C41 43.448 40.552 43 40 43H31C30.735 43 30.48 42.895 30.293 42.707C30.105 42.52 30 42.265 30 42V39.588C30 39.036 29.552 38.588 29 38.588C28.448 38.588 28 39.036 28 39.588ZM44 43C44.552 43 45 43.448 45 44C45 44.552 44.552 45 44 45C43.448 45 43 44.552 43 44C43 43.448 43.448 43 44 43ZM39 34V39H34C34 38.448 33.552 38 33 38C32.448 38 32 38.448 32 39V40C32 40.552 32.448 41 33 41H40C40.552 41 41 40.552 41 40V33C41 32.448 40.552 32 40 32H39C38.448 32 38 32.448 38 33C38 33.552 38.448 34 39 34ZM45 40V31C45 30.204 44.684 29.441 44.121 28.879C43.559 28.316 42.796 28 42 28C40.608 28 39 28 39 28C38.448 28 38 28.448 38 29C38 29.552 38.448 30 39 30C39 30 40.608 30 42 30C42.265 30 42.52 30.105 42.707 30.293C42.895 30.48 43 30.735 43 31V40C43 40.552 43.448 41 44 41C44.552 41 45 40.552 45 40ZM37 15.031C37 13.962 36.575 12.936 35.819 12.181C35.064 11.425 34.038 11 32.969 11C28.361 11 19.639 11 15.031 11C13.962 11 12.936 11.425 12.181 12.181C11.425 12.936 11 13.962 11 15.031C11 19.639 11 28.361 11 32.969C11 34.038 11.425 35.064 12.181 35.819C12.936 36.575 13.962 37 15.031 37C19.639 37 28.361 37 32.969 37C34.038 37 35.064 36.575 35.819 35.819C36.575 35.064 37 34.038 37 32.969V15.031ZM35 15.031V32.969C35 33.508 34.786 34.024 34.405 34.405C34.024 34.786 33.508 35 32.969 35H15.031C14.492 35 13.976 34.786 13.595 34.405C13.214 34.024 13 33.508 13 32.969V15.031C13 14.492 13.214 13.976 13.595 13.595C13.976 13.214 14.492 13 15.031 13H32.969C33.508 13 34.024 13.214 34.405 13.595C34.786 13.976 35 14.492 35 15.031ZM30.969 28C30.969 28 31.983 28 32 28C32.552 28 33 28.448 33 29C33 29.55 32.555 29.997 32.006 30H30.969C30.434 30 30 30.434 30 30.969V33C30 33.552 29.552 34 29 34C28.448 34 28 33.552 28 33C28 33 28 31.979 28 30.969C28 29.329 29.329 28 30.969 28ZM3 8V17C3 17.796 3.316 18.559 3.879 19.121C4.441 19.684 5.204 20 6 20C7.392 20 9 20 9 20C9.552 20 10 19.552 10 19C10 18.448 9.552 18 9 18C9 18 7.392 18 6 18C5.735 18 5.48 17.895 5.293 17.707C5.105 17.52 5 17.265 5 17V8C5 7.448 4.552 7 4 7C3.448 7 3 7.448 3 8ZM15 20H17C18.657 20 20 18.657 20 17V15C20 14.448 19.552 14 19 14C18.448 14 18 14.448 18 15V17C18 17.552 17.552 18 17 18H15C14.448 18 14 18.448 14 19C14 19.552 14.448 20 15 20ZM9 14V9H14C14 9.552 14.448 10 15 10C15.552 10 16 9.552 16 9V8C16 7.448 15.552 7 15 7H8C7.448 7 7 7.448 7 8V15C7 15.552 7.448 16 8 16H9C9.552 16 10 15.552 10 15C10 14.448 9.552 14 9 14ZM20 9V6C20 5.204 19.684 4.441 19.121 3.879C18.559 3.316 17.796 3 17 3C13.828 3 8 3 8 3C7.448 3 7 3.448 7 4C7 4.552 7.448 5 8 5H17C17.265 5 17.52 5.105 17.707 5.293C17.895 5.48 18 5.735 18 6V9C18 9.552 18.448 10 19 10C19.552 10 20 9.552 20 9ZM4 3C4.552 3 5 3.448 5 4C5 4.552 4.552 5 4 5C3.448 5 3 4.552 3 4C3 3.448 3.448 3 4 3Z" fill="white"/>
</svg>
