<svg width="48" height="48" viewBox="0 0 48 48" fill="none" xmlns="http://www.w3.org/2000/svg">
<g clip-path="url(#clip0)">
<path opacity="0.2" fill-rule="evenodd" clip-rule="evenodd" d="M14.061 22.9904C20.859 18.5794 27.518 18.8464 34.061 22.9904C33.925 29.5954 31.548 35.7764 24.061 40.9904C17.611 37.5804 14.708 31.2224 14.061 22.9904Z" fill="white"/>
<path opacity="0.2" fill-rule="evenodd" clip-rule="evenodd" d="M13.939 26.9968C9.65997 29.4218 7.46296 34.6028 6.93896 41.9968C11.89 46.1388 17.675 44.4528 23.939 40.9968C18.75 37.4708 15.652 32.6598 13.939 26.9968ZM36.939 24.9968C36.939 31.9968 31.939 38.9968 26.939 42.9968C32.477 45.0098 38.843 44.4928 43.939 39.9968C44.105 33.4658 41.193 28.8198 36.939 24.9968ZM23.939 24.9968C26.147 24.9968 27.939 26.7888 27.939 28.9968C27.939 31.2048 26.147 32.9968 23.939 32.9968C21.731 32.9968 19.939 31.2048 19.939 28.9968C19.939 26.7888 21.731 24.9968 23.939 24.9968ZM33.939 22.9968C33.002 17.3758 31.175 12.1118 26.939 6.99676C26.654 6.65276 25.939 6.99676 25.939 6.99676C19.939 10.9968 17.939 16.9968 17.939 20.9968C24.101 19.8208 29.939 20.9968 33.939 22.9968Z" fill="white"/>
<path opacity="0.5" fill-rule="evenodd" clip-rule="evenodd" d="M11.2505 29.2068C12.4385 33.8158 15.2975 39.0358 20.5495 42.7068C21.6725 42.2148 22.8145 41.6358 23.9735 40.9968C18.7845 37.4708 15.6865 32.6598 13.9735 26.9968C12.9485 27.5778 12.0425 28.3168 11.2505 29.2068ZM36.5245 28.7248C39.0945 31.9008 41.5535 36.6588 40.9735 41.9968C41.0215 42.0138 41.0685 42.0288 41.1165 42.0428C42.1015 41.4838 43.0585 40.8038 43.9735 39.9968C44.1395 33.4658 41.2275 28.8198 36.9735 24.9968C36.9735 26.2448 36.8145 27.4928 36.5245 28.7248ZM24.2265 8.30776C27.2395 12.0248 29.9735 16.1328 29.9735 20.9968V21.4758C31.4415 21.8838 32.7885 22.4038 33.9735 22.9968C33.0365 17.3758 31.2095 12.1118 26.9735 6.99676C26.6885 6.65276 25.9735 6.99676 25.9735 6.99676C25.3485 7.41376 24.7665 7.85176 24.2265 8.30776Z" fill="white"/>
<path opacity="0.5" fill-rule="evenodd" clip-rule="evenodd" d="M30 21C31 27 28 33 21 39L24 41C31.539 36.116 34.554 29.673 34 22L30 21Z" fill="white"/>
<path fill-rule="evenodd" clip-rule="evenodd" d="M43.2 41.833C41.261 43.113 37.551 45.06 32.987 45C30.05 44.961 26.827 43.787 23.5 41.866C23.495 41.863 23.49 41.86 23.486 41.857C23.486 41.857 17.274 38.142 14.415 30.698C14.407 30.678 14.4 30.658 14.393 30.637C13.816 29.123 13.378 27.456 13.157 25.635C13.759 25.18 14.39 24.762 15.047 24.384C15.188 26.432 15.633 28.28 16.26 29.928C16.267 29.945 16.275 29.963 16.282 29.981C18.836 36.633 24.318 40.023 24.514 40.142C27.5 41.864 30.377 42.965 33.013 43C37.024 43.053 40.291 41.356 42.013 40.227C42.094 40.948 42.56 41.553 43.2 41.833ZM5.99 40.203C7.722 41.313 10.999 42.989 15.003 43C16.905 43.005 18.985 42.385 21.125 41.382C22.139 42.201 22.851 42.642 22.957 42.707C20.176 44.13 17.447 45.007 14.997 45C10.466 44.988 6.763 43.075 4.823 41.823C5.458 41.536 5.917 40.926 5.99 40.203ZM4 39C4.552 39 5 39.448 5 40C5 40.552 4.552 41 4 41C3.448 41 3 40.552 3 40C3 39.448 3.448 39 4 39ZM44 39C44.552 39 45 39.448 45 40C45 40.552 44.552 41 44 41C43.448 41 43 40.552 43 40C43 39.448 43.448 39 44 39ZM25.975 4.315C28.82 6.818 35 13.364 35 23C35 31.847 29.809 37.58 26.732 40.201C26.168 39.92 25.597 39.612 25.023 39.281C25 39.267 24.941 39.23 24.848 39.169C27.479 37.095 33 31.704 33 23C33 14.166 27.335 8.165 24.721 5.866C25.375 5.613 25.863 5.026 25.975 4.315ZM3.074 38.227C3.975 27.466 13.007 19 24 19C26.771 19 29.418 19.538 31.841 20.515C31.935 21.241 31.989 21.991 31.999 22.763C29.567 21.632 26.856 21 24 21C14.082 21 5.929 28.616 5.074 38.313C4.764 38.115 4.395 38 4 38C3.666 38 3.351 38.082 3.074 38.227ZM42.926 38.313C42.459 33.017 39.816 28.342 35.897 25.189C35.964 24.48 36 23.751 36 23C36 22.922 36 22.844 35.999 22.768C40.983 26.247 44.391 31.832 44.926 38.227C44.649 38.082 44.334 38 44 38C43.605 38 43.236 38.115 42.926 38.313ZM24 24C21.24 24 19 26.24 19 29C19 31.76 21.24 34 24 34C26.76 34 29 31.76 29 29C29 26.24 26.76 24 24 24ZM24 26C25.656 26 27 27.344 27 29C27 30.656 25.656 32 24 32C22.344 32 21 30.656 21 29C21 27.344 22.344 26 24 26ZM22.025 4.315C22.137 5.026 22.625 5.613 23.279 5.866C20.993 7.877 16.373 12.719 15.25 19.812C14.511 20.132 13.794 20.493 13.1 20.89C13.906 12.406 19.394 6.629 22.025 4.315ZM24 3C24.552 3 25 3.448 25 4C25 4.552 24.552 5 24 5C23.448 5 23 4.552 23 4C23 3.448 23.448 3 24 3Z" fill="white"/>
</g>
<defs>
<clipPath id="clip0">
<rect width="48" height="48" fill="white"/>
</clipPath>
</defs>
</svg>
